solid OpenSCAD_Model
  facet normal -1 0 0
    outer loop
      vertex 4.9 -2.8 6.21725e-16
      vertex 4.9 5.96015e-18 0.0268421
      vertex 4.9 0 0
    endloop
  endfacet
  facet normal -1 -0 0
    outer loop
      vertex 4.9 5.96015e-18 0.0268421
      vertex 4.9 -2.8 6.21725e-16
      vertex 4.9 -2.8 0.0268421
    endloop
  endfacet
  facet normal -1 0 0
    outer loop
      vertex 4.9 -2.8 11.9732
      vertex 4.9 2.66454e-15 12
      vertex 4.9 2.65857e-15 11.9732
    endloop
  endfacet
  facet normal -1 -0 0
    outer loop
      vertex 4.9 2.66454e-15 12
      vertex 4.9 -2.8 11.9732
      vertex 4.9 -2.8 12
    endloop
  endfacet
  facet normal 0 -1 0
    outer loop
      vertex 6.69529 -2.8 3.86012
      vertex 9.58558 -2.8 6.21725e-16
      vertex 7.50554 -2.8 4.32792
    endloop
  endfacet
  facet normal 0 -1 0
    outer loop
      vertex 7.50554 -2.8 4.32792
      vertex 9.58558 -2.8 6.21725e-16
      vertex 19.1 -2.8 0.0268421
    endloop
  endfacet
  facet normal 0 -1 -0
    outer loop
      vertex 19.1 -2.8 0.0268421
      vertex 9.58558 -2.8 6.21725e-16
      vertex 19.1 -2.8 6.21725e-16
    endloop
  endfacet
  facet normal 0 -1 0
    outer loop
      vertex 4.875 -2.8 7.94856
      vertex 4.9 -2.8 11.9732
      vertex 4.38781 -2.8 11.9732
    endloop
  endfacet
  facet normal 0 -1 0
    outer loop
      vertex 4.9 -2.8 11.9732
      vertex 7.50554 -2.8 7.67208
      vertex 19.1 -2.8 11.9732
    endloop
  endfacet
  facet normal 0 -1 0
    outer loop
      vertex 4.875 -2.8 7.94856
      vertex 4.38781 -2.8 11.9732
      vertex 3.38582 -2.8 11.7602
    endloop
  endfacet
  facet normal 0 -1 0
    outer loop
      vertex 4.9 -2.8 11.9732
      vertex 6.69529 -2.8 8.13988
      vertex 7.50554 -2.8 7.67208
    endloop
  endfacet
  facet normal 0 -1 0
    outer loop
      vertex 4.875 -2.8 7.94856
      vertex 3.38582 -2.8 11.7602
      vertex 2.45 -2.8 11.3435
    endloop
  endfacet
  facet normal 0 -1 0
    outer loop
      vertex 8.05548 -2.8 6.91516
      vertex 19.1 -2.8 11.9732
      vertex 7.50554 -2.8 7.67208
    endloop
  endfacet
  facet normal 0 -1 0
    outer loop
      vertex 4.875 -2.8 7.94856
      vertex 2.45 -2.8 11.3435
      vertex 1.62126 -2.8 10.7414
    endloop
  endfacet
  facet normal 0 -1 0
    outer loop
      vertex 8.25 -2.8 6
      vertex 19.1 -2.8 11.9732
      vertex 8.05548 -2.8 6.91516
    endloop
  endfacet
  facet normal 0 -1 0
    outer loop
      vertex 4.17971 -2.8 7.32252
      vertex 1.62126 -2.8 10.7414
      vertex 0.935816 -2.8 9.98015
    endloop
  endfacet
  facet normal 0 -1 0
    outer loop
      vertex 19.1 -2.8 0.0268421
      vertex 19.1 -2.8 11.9732
      vertex 8.25 -2.8 6
    endloop
  endfacet
  facet normal 0 -1 0
    outer loop
      vertex 4.17971 -2.8 7.32252
      vertex 0.935816 -2.8 9.98015
      vertex 0.423627 -2.8 9.09301
    endloop
  endfacet
  facet normal 0 -1 0
    outer loop
      vertex 4.9 -2.8 11.9732
      vertex 5.76481 -2.8 8.23767
      vertex 6.69529 -2.8 8.13988
    endloop
  endfacet
  facet normal -0 -1 0
    outer loop
      vertex 24 -2.8 7.1
      vertex 19.1 -2.8 11.9732
      vertex 19.1 -2.8 0.0268421
    endloop
  endfacet
  facet normal 0 -1 0
    outer loop
      vertex 4.17971 -2.8 7.32252
      vertex 0.423627 -2.8 9.09301
      vertex 0.107077 -2.8 8.11877
    endloop
  endfacet
  facet normal 0 -1 -0
    outer loop
      vertex 4.9 -2.8 11.9732
      vertex 4.875 -2.8 7.94856
      vertex 5.76481 -2.8 8.23767
    endloop
  endfacet
  facet normal 0 -1 0
    outer loop
      vertex 1.62126 -2.8 10.7414
      vertex 4.17971 -2.8 7.32252
      vertex 4.875 -2.8 7.94856
    endloop
  endfacet
  facet normal 0 -1 0
    outer loop
      vertex 3.79917 -2.8 6.4678
      vertex 0.107077 -2.8 8.11877
      vertex 0 -2.8 7.1
    endloop
  endfacet
  facet normal 0 -1 0
    outer loop
      vertex 0.107077 -2.8 8.11877
      vertex 3.79917 -2.8 6.4678
      vertex 4.17971 -2.8 7.32252
    endloop
  endfacet
  facet normal 0 -1 0
    outer loop
      vertex 0 -2.8 7.1
      vertex 3.79917 -2.8 5.5322
      vertex 3.79917 -2.8 6.4678
    endloop
  endfacet
  facet normal 0 -1 0
    outer loop
      vertex 0 -2.8 4.9
      vertex 3.79917 -2.8 5.5322
      vertex 0 -2.8 7.1
    endloop
  endfacet
  facet normal 0 -1 0
    outer loop
      vertex 0.107077 -2.8 3.88123
      vertex 3.79917 -2.8 5.5322
      vertex 0 -2.8 4.9
    endloop
  endfacet
  facet normal 0 -1 -0
    outer loop
      vertex 3.79917 -2.8 5.5322
      vertex 0.107077 -2.8 3.88123
      vertex 4.17971 -2.8 4.67748
    endloop
  endfacet
  facet normal 0 -1 0
    outer loop
      vertex 0.423627 -2.8 2.90699
      vertex 4.17971 -2.8 4.67748
      vertex 0.107077 -2.8 3.88123
    endloop
  endfacet
  facet normal 0 -1 0
    outer loop
      vertex 0.935816 -2.8 2.01985
      vertex 4.17971 -2.8 4.67748
      vertex 0.423627 -2.8 2.90699
    endloop
  endfacet
  facet normal 0 -1 0
    outer loop
      vertex 1.62126 -2.8 1.25859
      vertex 4.17971 -2.8 4.67748
      vertex 0.935816 -2.8 2.01985
    endloop
  endfacet
  facet normal 0 -1 0
    outer loop
      vertex 4.9 -2.8 11.9732
      vertex 19.1 -2.8 12
      vertex 4.9 -2.8 12
    endloop
  endfacet
  facet normal 0 -1 -0
    outer loop
      vertex 19.1 -2.8 12
      vertex 4.9 -2.8 11.9732
      vertex 19.1 -2.8 11.9732
    endloop
  endfacet
  facet normal -0 -1 -0
    outer loop
      vertex 21.55 -2.8 11.3435
      vertex 19.1 -2.8 11.9732
      vertex 24 -2.8 7.1
    endloop
  endfacet
  facet normal 0 -1 0
    outer loop
      vertex 19.1 -2.8 11.9732
      vertex 20.6142 -2.8 11.7602
      vertex 19.6122 -2.8 11.9732
    endloop
  endfacet
  facet normal 0 -1 0
    outer loop
      vertex 19.1 -2.8 11.9732
      vertex 21.55 -2.8 11.3435
      vertex 20.6142 -2.8 11.7602
    endloop
  endfacet
  facet normal 0 -1 0
    outer loop
      vertex 21.55 -2.8 11.3435
      vertex 24 -2.8 7.1
      vertex 22.3787 -2.8 10.7414
    endloop
  endfacet
  facet normal 0 -1 0
    outer loop
      vertex 22.3787 -2.8 10.7414
      vertex 24 -2.8 7.1
      vertex 23.0642 -2.8 9.98015
    endloop
  endfacet
  facet normal 0 -1 0
    outer loop
      vertex 23.0642 -2.8 9.98015
      vertex 24 -2.8 7.1
      vertex 23.5764 -2.8 9.09301
    endloop
  endfacet
  facet normal 0 -1 0
    outer loop
      vertex 19.1 -2.8 0.0268421
      vertex 8.25 -2.8 6
      vertex 8.05548 -2.8 5.08484
    endloop
  endfacet
  facet normal 0 -1 0
    outer loop
      vertex 23.5764 -2.8 9.09301
      vertex 24 -2.8 7.1
      vertex 23.8929 -2.8 8.11877
    endloop
  endfacet
  facet normal 0 -1 0
    outer loop
      vertex 19.1 -2.8 0.0268421
      vertex 8.05548 -2.8 5.08484
      vertex 7.50554 -2.8 4.32792
    endloop
  endfacet
  facet normal 0 -1 -0
    outer loop
      vertex 24 -2.8 7.1
      vertex 19.1 -2.8 0.0268421
      vertex 24 -2.8 4.9
    endloop
  endfacet
  facet normal 0 -1 0
    outer loop
      vertex 9.58558 -2.8 6.21725e-16
      vertex 6.69529 -2.8 3.86012
      vertex 4.9 -2.8 0.0268421
    endloop
  endfacet
  facet normal 0 -1 0
    outer loop
      vertex 4.9 -2.8 0.0268421
      vertex 6.69529 -2.8 3.86012
      vertex 5.76481 -2.8 3.76233
    endloop
  endfacet
  facet normal 0 -1 -0
    outer loop
      vertex 4.17971 -2.8 4.67748
      vertex 1.62126 -2.8 1.25859
      vertex 4.875 -2.8 4.05144
    endloop
  endfacet
  facet normal 0 -1 0
    outer loop
      vertex 9.58558 -2.8 6.21725e-16
      vertex 4.9 -2.8 0.0268421
      vertex 4.9 -2.8 6.21725e-16
    endloop
  endfacet
  facet normal 0 -1 0
    outer loop
      vertex 2.45 -2.8 0.656475
      vertex 4.875 -2.8 4.05144
      vertex 1.62126 -2.8 1.25859
    endloop
  endfacet
  facet normal 0 -1 0
    outer loop
      vertex 24 -2.8 4.9
      vertex 19.1 -2.8 0.0268421
      vertex 23.8929 -2.8 3.88123
    endloop
  endfacet
  facet normal 0 -1 0
    outer loop
      vertex 3.38582 -2.8 0.239822
      vertex 4.875 -2.8 4.05144
      vertex 2.45 -2.8 0.656475
    endloop
  endfacet
  facet normal 0 -1 0
    outer loop
      vertex 23.8929 -2.8 3.88123
      vertex 19.1 -2.8 0.0268421
      vertex 23.5764 -2.8 2.90699
    endloop
  endfacet
  facet normal 0 -1 0
    outer loop
      vertex 4.38781 -2.8 0.0268421
      vertex 4.875 -2.8 4.05144
      vertex 3.38582 -2.8 0.239822
    endloop
  endfacet
  facet normal 0 -1 0
    outer loop
      vertex 23.5764 -2.8 2.90699
      vertex 19.1 -2.8 0.0268421
      vertex 23.0642 -2.8 2.01985
    endloop
  endfacet
  facet normal 0 -1 0
    outer loop
      vertex 4.9 -2.8 0.0268421
      vertex 4.875 -2.8 4.05144
      vertex 4.38781 -2.8 0.0268421
    endloop
  endfacet
  facet normal 0 -1 0
    outer loop
      vertex 23.0642 -2.8 2.01985
      vertex 19.1 -2.8 0.0268421
      vertex 22.3787 -2.8 1.25859
    endloop
  endfacet
  facet normal 0 -1 0
    outer loop
      vertex 4.875 -2.8 4.05144
      vertex 4.9 -2.8 0.0268421
      vertex 5.76481 -2.8 3.76233
    endloop
  endfacet
  facet normal 0 -1 0
    outer loop
      vertex 22.3787 -2.8 1.25859
      vertex 19.1 -2.8 0.0268421
      vertex 21.55 -2.8 0.656475
    endloop
  endfacet
  facet normal 0 -1 0
    outer loop
      vertex 21.55 -2.8 0.656475
      vertex 19.1 -2.8 0.0268421
      vertex 20.6142 -2.8 0.239822
    endloop
  endfacet
  facet normal 0 -1 0
    outer loop
      vertex 20.6142 -2.8 0.239822
      vertex 19.1 -2.8 0.0268421
      vertex 19.6122 -2.8 0.0268421
    endloop
  endfacet
  facet normal 1 -0 0
    outer loop
      vertex 19.1 -2.8 0.0268421
      vertex 19.1 0 0
      vertex 19.1 5.96015e-18 0.0268421
    endloop
  endfacet
  facet normal 1 0 0
    outer loop
      vertex 19.1 0 0
      vertex 19.1 -2.8 0.0268421
      vertex 19.1 -2.8 6.21725e-16
    endloop
  endfacet
  facet normal 1 -0 0
    outer loop
      vertex 19.1 -2.8 12
      vertex 19.1 2.65857e-15 11.9732
      vertex 19.1 2.66454e-15 12
    endloop
  endfacet
  facet normal 1 0 0
    outer loop
      vertex 19.1 2.65857e-15 11.9732
      vertex 19.1 -2.8 12
      vertex 19.1 -2.8 11.9732
    endloop
  endfacet
  facet normal 0 1 -2.22045e-16
    outer loop
      vertex 4.9 0 0
      vertex 7.50554 9.60992e-16 4.32792
      vertex 19.1 0 0
    endloop
  endfacet
  facet normal 0 1 -2.22045e-16
    outer loop
      vertex 7.50554 9.60992e-16 4.32792
      vertex 4.9 0 0
      vertex 4.9 5.96015e-18 0.0268421
    endloop
  endfacet
  facet normal 0 1 -2.22045e-16
    outer loop
      vertex 20.6142 2.61128e-15 11.7602
      vertex 19.1 2.65857e-15 11.9732
      vertex 19.6122 2.65857e-15 11.9732
    endloop
  endfacet
  facet normal 0 1 -2.22045e-16
    outer loop
      vertex 19.1 2.65857e-15 11.9732
      vertex 7.50554 1.70354e-15 7.67208
      vertex 4.9 2.65857e-15 11.9732
    endloop
  endfacet
  facet normal 0 1 -2.22045e-16
    outer loop
      vertex 21.55 2.51877e-15 11.3435
      vertex 19.1 2.65857e-15 11.9732
      vertex 20.6142 2.61128e-15 11.7602
    endloop
  endfacet
  facet normal 0 1 -2.22045e-16
    outer loop
      vertex 6.69529 1.80742e-15 8.13988
      vertex 4.9 2.65857e-15 11.9732
      vertex 7.50554 1.70354e-15 7.67208
    endloop
  endfacet
  facet normal 0 1 -2.22045e-16
    outer loop
      vertex 19.1 2.65857e-15 11.9732
      vertex 21.55 2.51877e-15 11.3435
      vertex 24 1.57652e-15 7.1
    endloop
  endfacet
  facet normal 0 1 -2.22045e-16
    outer loop
      vertex 5.76481 1.82913e-15 8.23767
      vertex 4.9 2.65857e-15 11.9732
      vertex 6.69529 1.80742e-15 8.13988
    endloop
  endfacet
  facet normal 0 1 -2.22045e-16
    outer loop
      vertex 24 1.57652e-15 7.1
      vertex 21.55 2.51877e-15 11.3435
      vertex 22.3787 2.38507e-15 10.7414
    endloop
  endfacet
  facet normal 0 1 -2.22045e-16
    outer loop
      vertex 4.9 2.65857e-15 11.9732
      vertex 4.875 1.76493e-15 7.94856
      vertex 4.38781 2.65857e-15 11.9732
    endloop
  endfacet
  facet normal 0 1 -2.22045e-16
    outer loop
      vertex 24 1.57652e-15 7.1
      vertex 22.3787 2.38507e-15 10.7414
      vertex 23.0642 2.21604e-15 9.98015
    endloop
  endfacet
  facet normal 0 1 -2.22045e-16
    outer loop
      vertex 4.38781 2.65857e-15 11.9732
      vertex 4.875 1.76493e-15 7.94856
      vertex 3.38582 2.61128e-15 11.7602
    endloop
  endfacet
  facet normal 0 1 -2.22045e-16
    outer loop
      vertex 24 1.57652e-15 7.1
      vertex 23.0642 2.21604e-15 9.98015
      vertex 23.5764 2.01905e-15 9.09301
    endloop
  endfacet
  facet normal 0 1 -2.22045e-16
    outer loop
      vertex 3.38582 2.61128e-15 11.7602
      vertex 4.875 1.76493e-15 7.94856
      vertex 2.45 2.51877e-15 11.3435
    endloop
  endfacet
  facet normal 0 1 -2.22045e-16
    outer loop
      vertex 4.17971 1.62593e-15 7.32252
      vertex 1.62126 2.38507e-15 10.7414
      vertex 4.875 1.76493e-15 7.94856
    endloop
  endfacet
  facet normal 0 1 -2.22045e-16
    outer loop
      vertex 2.45 2.51877e-15 11.3435
      vertex 4.875 1.76493e-15 7.94856
      vertex 1.62126 2.38507e-15 10.7414
    endloop
  endfacet
  facet normal 0 1 -2.22045e-16
    outer loop
      vertex 24 1.57652e-15 7.1
      vertex 23.5764 2.01905e-15 9.09301
      vertex 23.8929 1.80273e-15 8.11877
    endloop
  endfacet
  facet normal 0 1 -2.22045e-16
    outer loop
      vertex 4.875 1.76493e-15 7.94856
      vertex 4.9 2.65857e-15 11.9732
      vertex 5.76481 1.82913e-15 8.23767
    endloop
  endfacet
  facet normal 0 1 -2.22045e-16
    outer loop
      vertex 19.1 2.65857e-15 11.9732
      vertex 24 1.57652e-15 7.1
      vertex 19.1 5.96015e-18 0.0268421
    endloop
  endfacet
  facet normal 0 1 -2.22045e-16
    outer loop
      vertex 19.1 2.65857e-15 11.9732
      vertex 8.05548 1.53547e-15 6.91516
      vertex 7.50554 1.70354e-15 7.67208
    endloop
  endfacet
  facet normal 0 1 -2.22045e-16
    outer loop
      vertex 19.1 2.65857e-15 11.9732
      vertex 8.25 1.33227e-15 6
      vertex 8.05548 1.53547e-15 6.91516
    endloop
  endfacet
  facet normal 0 1 -2.22045e-16
    outer loop
      vertex 19.1 2.65857e-15 11.9732
      vertex 19.1 5.96015e-18 0.0268421
      vertex 8.25 1.33227e-15 6
    endloop
  endfacet
  facet normal 0 1 -2.22045e-16
    outer loop
      vertex 19.1 5.96015e-18 0.0268421
      vertex 24 1.57652e-15 7.1
      vertex 24 1.08802e-15 4.9
    endloop
  endfacet
  facet normal 0 1 -2.22045e-16
    outer loop
      vertex 8.25 1.33227e-15 6
      vertex 19.1 5.96015e-18 0.0268421
      vertex 8.05548 1.12906e-15 5.08484
    endloop
  endfacet
  facet normal 0 1 -2.22045e-16
    outer loop
      vertex 19.1 5.96015e-18 0.0268421
      vertex 24 1.08802e-15 4.9
      vertex 23.8929 8.61807e-16 3.88123
    endloop
  endfacet
  facet normal 0 1 -2.22045e-16
    outer loop
      vertex 8.05548 1.12906e-15 5.08484
      vertex 19.1 5.96015e-18 0.0268421
      vertex 7.50554 9.60992e-16 4.32792
    endloop
  endfacet
  facet normal 0 1 -2.22045e-16
    outer loop
      vertex 19.1 0 0
      vertex 7.50554 9.60992e-16 4.32792
      vertex 19.1 5.96015e-18 0.0268421
    endloop
  endfacet
  facet normal 0 1 -2.22045e-16
    outer loop
      vertex 19.1 5.96015e-18 0.0268421
      vertex 23.8929 8.61807e-16 3.88123
      vertex 23.5764 6.45481e-16 2.90699
    endloop
  endfacet
  facet normal 0 1 -2.22045e-16
    outer loop
      vertex 19.1 2.65857e-15 11.9732
      vertex 4.9 2.66454e-15 12
      vertex 19.1 2.66454e-15 12
    endloop
  endfacet
  facet normal 0 1 -2.22045e-16
    outer loop
      vertex 4.9 2.66454e-15 12
      vertex 19.1 2.65857e-15 11.9732
      vertex 4.9 2.65857e-15 11.9732
    endloop
  endfacet
  facet normal 0 1 -2.22045e-16
    outer loop
      vertex 1.62126 2.38507e-15 10.7414
      vertex 4.17971 1.62593e-15 7.32252
      vertex 0.935816 2.21604e-15 9.98015
    endloop
  endfacet
  facet normal 0 1 -2.22045e-16
    outer loop
      vertex 0.935816 2.21604e-15 9.98015
      vertex 4.17971 1.62593e-15 7.32252
      vertex 0.423627 2.01905e-15 9.09301
    endloop
  endfacet
  facet normal 0 1 -2.22045e-16
    outer loop
      vertex 0.423627 2.01905e-15 9.09301
      vertex 4.17971 1.62593e-15 7.32252
      vertex 0.107077 1.80273e-15 8.11877
    endloop
  endfacet
  facet normal 0 1 -2.22045e-16
    outer loop
      vertex 3.79917 1.43614e-15 6.4678
      vertex 0.107077 1.80273e-15 8.11877
      vertex 4.17971 1.62593e-15 7.32252
    endloop
  endfacet
  facet normal 0 1 -2.22045e-16
    outer loop
      vertex 0.107077 1.80273e-15 8.11877
      vertex 3.79917 1.43614e-15 6.4678
      vertex 0 1.57652e-15 7.1
    endloop
  endfacet
  facet normal 0 1 -2.22045e-16
    outer loop
      vertex 3.79917 1.22839e-15 5.5322
      vertex 0 1.57652e-15 7.1
      vertex 3.79917 1.43614e-15 6.4678
    endloop
  endfacet
  facet normal 0 1 -2.22045e-16
    outer loop
      vertex 3.79917 1.22839e-15 5.5322
      vertex 0 1.08802e-15 4.9
      vertex 0 1.57652e-15 7.1
    endloop
  endfacet
  facet normal 0 1 -2.22045e-16
    outer loop
      vertex 0.107077 8.61807e-16 3.88123
      vertex 3.79917 1.22839e-15 5.5322
      vertex 4.17971 1.03861e-15 4.67748
    endloop
  endfacet
  facet normal 0 1 -2.22045e-16
    outer loop
      vertex 1.62126 2.79463e-16 1.25859
      vertex 4.17971 1.03861e-15 4.67748
      vertex 4.875 8.99601e-16 4.05144
    endloop
  endfacet
  facet normal 0 1 -2.22045e-16
    outer loop
      vertex 3.79917 1.22839e-15 5.5322
      vertex 0.107077 8.61807e-16 3.88123
      vertex 0 1.08802e-15 4.9
    endloop
  endfacet
  facet normal 0 1 -2.22045e-16
    outer loop
      vertex 4.9 5.96015e-18 0.0268421
      vertex 4.875 8.99601e-16 4.05144
      vertex 5.76481 8.35404e-16 3.76233
    endloop
  endfacet
  facet normal 0 1 -2.22045e-16
    outer loop
      vertex 7.50554 9.60992e-16 4.32792
      vertex 4.9 5.96015e-18 0.0268421
      vertex 6.69529 8.57119e-16 3.86012
    endloop
  endfacet
  facet normal 0 1 -2.22045e-16
    outer loop
      vertex 6.69529 8.57119e-16 3.86012
      vertex 4.9 5.96015e-18 0.0268421
      vertex 5.76481 8.35404e-16 3.76233
    endloop
  endfacet
  facet normal 0 1 -2.22045e-16
    outer loop
      vertex 19.1 5.96015e-18 0.0268421
      vertex 23.5764 6.45481e-16 2.90699
      vertex 23.0642 4.48497e-16 2.01985
    endloop
  endfacet
  facet normal 0 1 -2.22045e-16
    outer loop
      vertex 4.875 8.99601e-16 4.05144
      vertex 4.9 5.96015e-18 0.0268421
      vertex 4.38781 5.96015e-18 0.0268421
    endloop
  endfacet
  facet normal 0 1 -2.22045e-16
    outer loop
      vertex 19.1 5.96015e-18 0.0268421
      vertex 23.0642 4.48497e-16 2.01985
      vertex 22.3787 2.79463e-16 1.25859
    endloop
  endfacet
  facet normal 0 1 -2.22045e-16
    outer loop
      vertex 4.17971 1.03861e-15 4.67748
      vertex 0.423627 6.45481e-16 2.90699
      vertex 0.107077 8.61807e-16 3.88123
    endloop
  endfacet
  facet normal 0 1 -2.22045e-16
    outer loop
      vertex 19.1 5.96015e-18 0.0268421
      vertex 22.3787 2.79463e-16 1.25859
      vertex 21.55 1.45767e-16 0.656475
    endloop
  endfacet
  facet normal 0 1 -2.22045e-16
    outer loop
      vertex 4.17971 1.03861e-15 4.67748
      vertex 0.935816 4.48497e-16 2.01985
      vertex 0.423627 6.45481e-16 2.90699
    endloop
  endfacet
  facet normal 0 1 -2.22045e-16
    outer loop
      vertex 19.1 5.96015e-18 0.0268421
      vertex 21.55 1.45767e-16 0.656475
      vertex 20.6142 5.32513e-17 0.239822
    endloop
  endfacet
  facet normal 0 1 -2.22045e-16
    outer loop
      vertex 4.17971 1.03861e-15 4.67748
      vertex 1.62126 2.79463e-16 1.25859
      vertex 0.935816 4.48497e-16 2.01985
    endloop
  endfacet
  facet normal 0 1 -2.22045e-16
    outer loop
      vertex 19.1 5.96015e-18 0.0268421
      vertex 20.6142 5.32513e-17 0.239822
      vertex 19.6122 5.96015e-18 0.0268421
    endloop
  endfacet
  facet normal 0 1 -2.22045e-16
    outer loop
      vertex 4.875 8.99601e-16 4.05144
      vertex 2.45 1.45767e-16 0.656475
      vertex 1.62126 2.79463e-16 1.25859
    endloop
  endfacet
  facet normal 0 1 -2.22045e-16
    outer loop
      vertex 4.875 8.99601e-16 4.05144
      vertex 3.38582 5.32513e-17 0.239822
      vertex 2.45 1.45767e-16 0.656475
    endloop
  endfacet
  facet normal 0 1 -2.22045e-16
    outer loop
      vertex 4.875 8.99601e-16 4.05144
      vertex 4.38781 5.96015e-18 0.0268421
      vertex 3.38582 5.32513e-17 0.239822
    endloop
  endfacet
  facet normal 0 -2.22045e-16 -1
    outer loop
      vertex 9.58558 -2.8 6.21725e-16
      vertex 19.1 0 0
      vertex 19.1 -2.8 6.21725e-16
    endloop
  endfacet
  facet normal 0 -2.22045e-16 -1
    outer loop
      vertex 4.9 0 0
      vertex 9.58558 -2.8 6.21725e-16
      vertex 4.9 -2.8 6.21725e-16
    endloop
  endfacet
  facet normal 0 -2.22045e-16 -1
    outer loop
      vertex 9.58558 -2.8 6.21725e-16
      vertex 4.9 0 0
      vertex 19.1 0 0
    endloop
  endfacet
  facet normal -0 0 1
    outer loop
      vertex 4.9 2.66454e-15 12
      vertex 19.1 -2.8 12
      vertex 19.1 2.66454e-15 12
    endloop
  endfacet
  facet normal 0 0 1
    outer loop
      vertex 19.1 -2.8 12
      vertex 4.9 2.66454e-15 12
      vertex 4.9 -2.8 12
    endloop
  endfacet
  facet normal -1 0 0
    outer loop
      vertex 0 -2.8 4.9
      vertex 0 1.57652e-15 7.1
      vertex 0 1.08802e-15 4.9
    endloop
  endfacet
  facet normal -1 -0 0
    outer loop
      vertex 0 1.57652e-15 7.1
      vertex 0 -2.8 4.9
      vertex 0 -2.8 7.1
    endloop
  endfacet
  facet normal 1 -0 0
    outer loop
      vertex 24 -2.8 7.1
      vertex 24 1.08802e-15 4.9
      vertex 24 1.57652e-15 7.1
    endloop
  endfacet
  facet normal 1 0 0
    outer loop
      vertex 24 1.08802e-15 4.9
      vertex 24 -2.8 7.1
      vertex 24 -2.8 4.9
    endloop
  endfacet
  facet normal -0.866026 0 -0.5
    outer loop
      vertex 0.935816 -2.8 2.01985
      vertex 0.423627 6.45481e-16 2.90699
      vertex 0.935816 4.48497e-16 2.01985
    endloop
  endfacet
  facet normal -0.866026 -0 -0.5
    outer loop
      vertex 0.423627 6.45481e-16 2.90699
      vertex 0.935816 -2.8 2.01985
      vertex 0.423627 -2.8 2.90699
    endloop
  endfacet
  facet normal -0.207912 0 -0.978148
    outer loop
      vertex 3.38582 -2.8 0.239822
      vertex 4.38781 5.96015e-18 0.0268421
      vertex 4.38781 -2.8 0.0268421
    endloop
  endfacet
  facet normal -0.207912 0 -0.978148
    outer loop
      vertex 4.38781 5.96015e-18 0.0268421
      vertex 3.38582 -2.8 0.239822
      vertex 3.38582 5.32513e-17 0.239822
    endloop
  endfacet
  facet normal -0.994522 0 -0.104528
    outer loop
      vertex 0.107077 -2.8 3.88123
      vertex 0 1.08802e-15 4.9
      vertex 0.107077 8.61807e-16 3.88123
    endloop
  endfacet
  facet normal -0.994522 -0 -0.104528
    outer loop
      vertex 0 1.08802e-15 4.9
      vertex 0.107077 -2.8 3.88123
      vertex 0 -2.8 4.9
    endloop
  endfacet
  facet normal -0.951057 0 -0.309017
    outer loop
      vertex 0.423627 -2.8 2.90699
      vertex 0.107077 8.61807e-16 3.88123
      vertex 0.423627 6.45481e-16 2.90699
    endloop
  endfacet
  facet normal -0.951057 -0 -0.309017
    outer loop
      vertex 0.107077 8.61807e-16 3.88123
      vertex 0.423627 -2.8 2.90699
      vertex 0.107077 -2.8 3.88123
    endloop
  endfacet
  facet normal -0.406737 0 -0.913545
    outer loop
      vertex 2.45 -2.8 0.656475
      vertex 3.38582 5.32513e-17 0.239822
      vertex 3.38582 -2.8 0.239822
    endloop
  endfacet
  facet normal -0.406737 0 -0.913545
    outer loop
      vertex 3.38582 5.32513e-17 0.239822
      vertex 2.45 -2.8 0.656475
      vertex 2.45 1.45767e-16 0.656475
    endloop
  endfacet
  facet normal -0.743145 0 -0.669131
    outer loop
      vertex 1.62126 -2.8 1.25859
      vertex 0.935816 4.48497e-16 2.01985
      vertex 1.62126 2.79463e-16 1.25859
    endloop
  endfacet
  facet normal -0.743145 -0 -0.669131
    outer loop
      vertex 0.935816 4.48497e-16 2.01985
      vertex 1.62126 -2.8 1.25859
      vertex 0.935816 -2.8 2.01985
    endloop
  endfacet
  facet normal 0 0 -1
    outer loop
      vertex 4.38781 -2.8 0.0268421
      vertex 4.9 5.96015e-18 0.0268421
      vertex 4.9 -2.8 0.0268421
    endloop
  endfacet
  facet normal -0 0 -1
    outer loop
      vertex 4.9 5.96015e-18 0.0268421
      vertex 4.38781 -2.8 0.0268421
      vertex 4.38781 5.96015e-18 0.0268421
    endloop
  endfacet
  facet normal -0.587785 0 -0.809017
    outer loop
      vertex 1.62126 -2.8 1.25859
      vertex 2.45 1.45767e-16 0.656475
      vertex 2.45 -2.8 0.656475
    endloop
  endfacet
  facet normal -0.587785 0 -0.809017
    outer loop
      vertex 2.45 1.45767e-16 0.656475
      vertex 1.62126 -2.8 1.25859
      vertex 1.62126 2.79463e-16 1.25859
    endloop
  endfacet
  facet normal 0.994522 0 -0.10453
    outer loop
      vertex 24 -2.8 4.9
      vertex 23.8929 8.61807e-16 3.88123
      vertex 24 1.08802e-15 4.9
    endloop
  endfacet
  facet normal 0.994522 0 -0.10453
    outer loop
      vertex 23.8929 8.61807e-16 3.88123
      vertex 24 -2.8 4.9
      vertex 23.8929 -2.8 3.88123
    endloop
  endfacet
  facet normal 0.743145 0 -0.669131
    outer loop
      vertex 23.0642 -2.8 2.01985
      vertex 22.3787 2.79463e-16 1.25859
      vertex 23.0642 4.48497e-16 2.01985
    endloop
  endfacet
  facet normal 0.743145 0 -0.669131
    outer loop
      vertex 22.3787 2.79463e-16 1.25859
      vertex 23.0642 -2.8 2.01985
      vertex 22.3787 -2.8 1.25859
    endloop
  endfacet
  facet normal 0.207912 0 -0.978148
    outer loop
      vertex 19.6122 -2.8 0.0268421
      vertex 20.6142 5.32513e-17 0.239822
      vertex 20.6142 -2.8 0.239822
    endloop
  endfacet
  facet normal 0.207912 0 -0.978148
    outer loop
      vertex 20.6142 5.32513e-17 0.239822
      vertex 19.6122 -2.8 0.0268421
      vertex 19.6122 5.96015e-18 0.0268421
    endloop
  endfacet
  facet normal 0.866025 0 -0.5
    outer loop
      vertex 23.5764 -2.8 2.90699
      vertex 23.0642 4.48497e-16 2.01985
      vertex 23.5764 6.45481e-16 2.90699
    endloop
  endfacet
  facet normal 0.866025 0 -0.5
    outer loop
      vertex 23.0642 4.48497e-16 2.01985
      vertex 23.5764 -2.8 2.90699
      vertex 23.0642 -2.8 2.01985
    endloop
  endfacet
  facet normal 0.951057 0 -0.309016
    outer loop
      vertex 23.8929 -2.8 3.88123
      vertex 23.5764 6.45481e-16 2.90699
      vertex 23.8929 8.61807e-16 3.88123
    endloop
  endfacet
  facet normal 0.951057 0 -0.309016
    outer loop
      vertex 23.5764 6.45481e-16 2.90699
      vertex 23.8929 -2.8 3.88123
      vertex 23.5764 -2.8 2.90699
    endloop
  endfacet
  facet normal 0.406736 0 -0.913546
    outer loop
      vertex 20.6142 -2.8 0.239822
      vertex 21.55 1.45767e-16 0.656475
      vertex 21.55 -2.8 0.656475
    endloop
  endfacet
  facet normal 0.406736 0 -0.913546
    outer loop
      vertex 21.55 1.45767e-16 0.656475
      vertex 20.6142 -2.8 0.239822
      vertex 20.6142 5.32513e-17 0.239822
    endloop
  endfacet
  facet normal 0.587786 0 -0.809017
    outer loop
      vertex 21.55 -2.8 0.656475
      vertex 22.3787 2.79463e-16 1.25859
      vertex 22.3787 -2.8 1.25859
    endloop
  endfacet
  facet normal 0.587786 0 -0.809017
    outer loop
      vertex 22.3787 2.79463e-16 1.25859
      vertex 21.55 -2.8 0.656475
      vertex 21.55 1.45767e-16 0.656475
    endloop
  endfacet
  facet normal 0 0 -1
    outer loop
      vertex 19.1 -2.8 0.0268421
      vertex 19.6122 5.96015e-18 0.0268421
      vertex 19.6122 -2.8 0.0268421
    endloop
  endfacet
  facet normal -0 0 -1
    outer loop
      vertex 19.6122 5.96015e-18 0.0268421
      vertex 19.1 -2.8 0.0268421
      vertex 19.1 5.96015e-18 0.0268421
    endloop
  endfacet
  facet normal 0.994522 -0 0.10453
    outer loop
      vertex 23.8929 -2.8 8.11877
      vertex 24 1.57652e-15 7.1
      vertex 23.8929 1.80273e-15 8.11877
    endloop
  endfacet
  facet normal 0.994522 0 0.10453
    outer loop
      vertex 24 1.57652e-15 7.1
      vertex 23.8929 -2.8 8.11877
      vertex 24 -2.8 7.1
    endloop
  endfacet
  facet normal 0.587786 0 0.809017
    outer loop
      vertex 21.55 2.51877e-15 11.3435
      vertex 22.3787 -2.8 10.7414
      vertex 22.3787 2.38507e-15 10.7414
    endloop
  endfacet
  facet normal 0.587786 0 0.809017
    outer loop
      vertex 22.3787 -2.8 10.7414
      vertex 21.55 2.51877e-15 11.3435
      vertex 21.55 -2.8 11.3435
    endloop
  endfacet
  facet normal 0.866025 -0 0.5
    outer loop
      vertex 23.0642 -2.8 9.98015
      vertex 23.5764 2.01905e-15 9.09301
      vertex 23.0642 2.21604e-15 9.98015
    endloop
  endfacet
  facet normal 0.866025 0 0.5
    outer loop
      vertex 23.5764 2.01905e-15 9.09301
      vertex 23.0642 -2.8 9.98015
      vertex 23.5764 -2.8 9.09301
    endloop
  endfacet
  facet normal 0.951057 -0 0.309016
    outer loop
      vertex 23.5764 -2.8 9.09301
      vertex 23.8929 1.80273e-15 8.11877
      vertex 23.5764 2.01905e-15 9.09301
    endloop
  endfacet
  facet normal 0.951057 0 0.309016
    outer loop
      vertex 23.8929 1.80273e-15 8.11877
      vertex 23.5764 -2.8 9.09301
      vertex 23.8929 -2.8 8.11877
    endloop
  endfacet
  facet normal 0.743145 -0 0.669131
    outer loop
      vertex 22.3787 -2.8 10.7414
      vertex 23.0642 2.21604e-15 9.98015
      vertex 22.3787 2.38507e-15 10.7414
    endloop
  endfacet
  facet normal 0.743145 0 0.669131
    outer loop
      vertex 23.0642 2.21604e-15 9.98015
      vertex 22.3787 -2.8 10.7414
      vertex 23.0642 -2.8 9.98015
    endloop
  endfacet
  facet normal 0.207912 0 0.978148
    outer loop
      vertex 19.6122 2.65857e-15 11.9732
      vertex 20.6142 -2.8 11.7602
      vertex 20.6142 2.61128e-15 11.7602
    endloop
  endfacet
  facet normal 0.207912 0 0.978148
    outer loop
      vertex 20.6142 -2.8 11.7602
      vertex 19.6122 2.65857e-15 11.9732
      vertex 19.6122 -2.8 11.9732
    endloop
  endfacet
  facet normal -0 0 1
    outer loop
      vertex 19.1 2.65857e-15 11.9732
      vertex 19.6122 -2.8 11.9732
      vertex 19.6122 2.65857e-15 11.9732
    endloop
  endfacet
  facet normal 0 0 1
    outer loop
      vertex 19.6122 -2.8 11.9732
      vertex 19.1 2.65857e-15 11.9732
      vertex 19.1 -2.8 11.9732
    endloop
  endfacet
  facet normal 0.406736 0 0.913546
    outer loop
      vertex 20.6142 2.61128e-15 11.7602
      vertex 21.55 -2.8 11.3435
      vertex 21.55 2.51877e-15 11.3435
    endloop
  endfacet
  facet normal 0.406736 0 0.913546
    outer loop
      vertex 21.55 -2.8 11.3435
      vertex 20.6142 2.61128e-15 11.7602
      vertex 20.6142 -2.8 11.7602
    endloop
  endfacet
  facet normal -0.994522 0 0.104528
    outer loop
      vertex 0 -2.8 7.1
      vertex 0.107077 1.80273e-15 8.11877
      vertex 0 1.57652e-15 7.1
    endloop
  endfacet
  facet normal -0.994522 0 0.104528
    outer loop
      vertex 0.107077 1.80273e-15 8.11877
      vertex 0 -2.8 7.1
      vertex 0.107077 -2.8 8.11877
    endloop
  endfacet
  facet normal -0.406737 0 0.913545
    outer loop
      vertex 2.45 2.51877e-15 11.3435
      vertex 3.38582 -2.8 11.7602
      vertex 3.38582 2.61128e-15 11.7602
    endloop
  endfacet
  facet normal -0.406737 0 0.913545
    outer loop
      vertex 3.38582 -2.8 11.7602
      vertex 2.45 2.51877e-15 11.3435
      vertex 2.45 -2.8 11.3435
    endloop
  endfacet
  facet normal -0.951057 0 0.309017
    outer loop
      vertex 0.107077 -2.8 8.11877
      vertex 0.423627 2.01905e-15 9.09301
      vertex 0.107077 1.80273e-15 8.11877
    endloop
  endfacet
  facet normal -0.951057 0 0.309017
    outer loop
      vertex 0.423627 2.01905e-15 9.09301
      vertex 0.107077 -2.8 8.11877
      vertex 0.423627 -2.8 9.09301
    endloop
  endfacet
  facet normal -0 0 1
    outer loop
      vertex 4.38781 2.65857e-15 11.9732
      vertex 4.9 -2.8 11.9732
      vertex 4.9 2.65857e-15 11.9732
    endloop
  endfacet
  facet normal 0 0 1
    outer loop
      vertex 4.9 -2.8 11.9732
      vertex 4.38781 2.65857e-15 11.9732
      vertex 4.38781 -2.8 11.9732
    endloop
  endfacet
  facet normal -0.866026 0 0.5
    outer loop
      vertex 0.423627 -2.8 9.09301
      vertex 0.935816 2.21604e-15 9.98015
      vertex 0.423627 2.01905e-15 9.09301
    endloop
  endfacet
  facet normal -0.866026 0 0.5
    outer loop
      vertex 0.935816 2.21604e-15 9.98015
      vertex 0.423627 -2.8 9.09301
      vertex 0.935816 -2.8 9.98015
    endloop
  endfacet
  facet normal -0.587785 0 0.809017
    outer loop
      vertex 1.62126 2.38507e-15 10.7414
      vertex 2.45 -2.8 11.3435
      vertex 2.45 2.51877e-15 11.3435
    endloop
  endfacet
  facet normal -0.587785 0 0.809017
    outer loop
      vertex 2.45 -2.8 11.3435
      vertex 1.62126 2.38507e-15 10.7414
      vertex 1.62126 -2.8 10.7414
    endloop
  endfacet
  facet normal -0.207912 0 0.978148
    outer loop
      vertex 3.38582 2.61128e-15 11.7602
      vertex 4.38781 -2.8 11.9732
      vertex 4.38781 2.65857e-15 11.9732
    endloop
  endfacet
  facet normal -0.207912 0 0.978148
    outer loop
      vertex 4.38781 -2.8 11.9732
      vertex 3.38582 2.61128e-15 11.7602
      vertex 3.38582 -2.8 11.7602
    endloop
  endfacet
  facet normal -0.743145 0 0.669131
    outer loop
      vertex 0.935816 -2.8 9.98015
      vertex 1.62126 2.38507e-15 10.7414
      vertex 0.935816 2.21604e-15 9.98015
    endloop
  endfacet
  facet normal -0.743145 0 0.669131
    outer loop
      vertex 1.62126 2.38507e-15 10.7414
      vertex 0.935816 -2.8 9.98015
      vertex 1.62126 -2.8 10.7414
    endloop
  endfacet
  facet normal -0.978148 0 -0.207912
    outer loop
      vertex 8.25 -2.8 6
      vertex 8.05548 1.53547e-15 6.91516
      vertex 8.25 1.33227e-15 6
    endloop
  endfacet
  facet normal -0.978148 -0 -0.207912
    outer loop
      vertex 8.05548 1.53547e-15 6.91516
      vertex 8.25 -2.8 6
      vertex 8.05548 -2.8 6.91516
    endloop
  endfacet
  facet normal -0.809017 0 -0.587785
    outer loop
      vertex 8.05548 -2.8 6.91516
      vertex 7.50554 1.70354e-15 7.67208
      vertex 8.05548 1.53547e-15 6.91516
    endloop
  endfacet
  facet normal -0.809017 -0 -0.587785
    outer loop
      vertex 7.50554 1.70354e-15 7.67208
      vertex 8.05548 -2.8 6.91516
      vertex 7.50554 -2.8 7.67208
    endloop
  endfacet
  facet normal -0.5 0 0.866026
    outer loop
      vertex 6.69529 8.57119e-16 3.86012
      vertex 7.50554 -2.8 4.32792
      vertex 7.50554 9.60992e-16 4.32792
    endloop
  endfacet
  facet normal -0.5 0 0.866026
    outer loop
      vertex 7.50554 -2.8 4.32792
      vertex 6.69529 8.57119e-16 3.86012
      vertex 6.69529 -2.8 3.86012
    endloop
  endfacet
  facet normal -0.5 0 -0.866026
    outer loop
      vertex 6.69529 -2.8 8.13988
      vertex 7.50554 1.70354e-15 7.67208
      vertex 7.50554 -2.8 7.67208
    endloop
  endfacet
  facet normal -0.5 0 -0.866026
    outer loop
      vertex 7.50554 1.70354e-15 7.67208
      vertex 6.69529 -2.8 8.13988
      vertex 6.69529 1.80742e-15 8.13988
    endloop
  endfacet
  facet normal -0.104529 0 -0.994522
    outer loop
      vertex 5.76481 -2.8 8.23767
      vertex 6.69529 1.80742e-15 8.13988
      vertex 6.69529 -2.8 8.13988
    endloop
  endfacet
  facet normal -0.104529 0 -0.994522
    outer loop
      vertex 6.69529 1.80742e-15 8.13988
      vertex 5.76481 -2.8 8.23767
      vertex 5.76481 1.82913e-15 8.23767
    endloop
  endfacet
  facet normal 0.309017 0 -0.951057
    outer loop
      vertex 4.875 -2.8 7.94856
      vertex 5.76481 1.82913e-15 8.23767
      vertex 5.76481 -2.8 8.23767
    endloop
  endfacet
  facet normal 0.309017 0 -0.951057
    outer loop
      vertex 5.76481 1.82913e-15 8.23767
      vertex 4.875 -2.8 7.94856
      vertex 4.875 1.76493e-15 7.94856
    endloop
  endfacet
  facet normal 0.309017 0 0.951057
    outer loop
      vertex 4.875 8.99601e-16 4.05144
      vertex 5.76481 -2.8 3.76233
      vertex 5.76481 8.35404e-16 3.76233
    endloop
  endfacet
  facet normal 0.309017 0 0.951057
    outer loop
      vertex 5.76481 -2.8 3.76233
      vertex 4.875 8.99601e-16 4.05144
      vertex 4.875 -2.8 4.05144
    endloop
  endfacet
  facet normal 0.669131 0 0.743145
    outer loop
      vertex 4.17971 1.03861e-15 4.67748
      vertex 4.875 -2.8 4.05144
      vertex 4.875 8.99601e-16 4.05144
    endloop
  endfacet
  facet normal 0.669131 0 0.743145
    outer loop
      vertex 4.875 -2.8 4.05144
      vertex 4.17971 1.03861e-15 4.67748
      vertex 4.17971 -2.8 4.67748
    endloop
  endfacet
  facet normal 0.913545 -0 0.406737
    outer loop
      vertex 3.79917 -2.8 5.5322
      vertex 4.17971 1.03861e-15 4.67748
      vertex 3.79917 1.22839e-15 5.5322
    endloop
  endfacet
  facet normal 0.913545 0 0.406737
    outer loop
      vertex 4.17971 1.03861e-15 4.67748
      vertex 3.79917 -2.8 5.5322
      vertex 4.17971 -2.8 4.67748
    endloop
  endfacet
  facet normal -0.104529 0 0.994522
    outer loop
      vertex 5.76481 8.35404e-16 3.76233
      vertex 6.69529 -2.8 3.86012
      vertex 6.69529 8.57119e-16 3.86012
    endloop
  endfacet
  facet normal -0.104529 0 0.994522
    outer loop
      vertex 6.69529 -2.8 3.86012
      vertex 5.76481 8.35404e-16 3.76233
      vertex 5.76481 -2.8 3.76233
    endloop
  endfacet
  facet normal -0.809017 0 0.587785
    outer loop
      vertex 7.50554 -2.8 4.32792
      vertex 8.05548 1.12906e-15 5.08484
      vertex 7.50554 9.60992e-16 4.32792
    endloop
  endfacet
  facet normal -0.809017 0 0.587785
    outer loop
      vertex 8.05548 1.12906e-15 5.08484
      vertex 7.50554 -2.8 4.32792
      vertex 8.05548 -2.8 5.08484
    endloop
  endfacet
  facet normal -0.978148 0 0.207912
    outer loop
      vertex 8.05548 -2.8 5.08484
      vertex 8.25 1.33227e-15 6
      vertex 8.05548 1.12906e-15 5.08484
    endloop
  endfacet
  facet normal -0.978148 0 0.207912
    outer loop
      vertex 8.25 1.33227e-15 6
      vertex 8.05548 -2.8 5.08484
      vertex 8.25 -2.8 6
    endloop
  endfacet
  facet normal 0.66913 0 -0.743145
    outer loop
      vertex 4.17971 -2.8 7.32252
      vertex 4.875 1.76493e-15 7.94856
      vertex 4.875 -2.8 7.94856
    endloop
  endfacet
  facet normal 0.66913 0 -0.743145
    outer loop
      vertex 4.875 1.76493e-15 7.94856
      vertex 4.17971 -2.8 7.32252
      vertex 4.17971 1.62593e-15 7.32252
    endloop
  endfacet
  facet normal 0.913545 0 -0.406737
    outer loop
      vertex 4.17971 -2.8 7.32252
      vertex 3.79917 1.43614e-15 6.4678
      vertex 4.17971 1.62593e-15 7.32252
    endloop
  endfacet
  facet normal 0.913545 0 -0.406737
    outer loop
      vertex 3.79917 1.43614e-15 6.4678
      vertex 4.17971 -2.8 7.32252
      vertex 3.79917 -2.8 6.4678
    endloop
  endfacet
  facet normal 1 -0 0
    outer loop
      vertex 3.79917 -2.8 6.4678
      vertex 3.79917 1.22839e-15 5.5322
      vertex 3.79917 1.43614e-15 6.4678
    endloop
  endfacet
  facet normal 1 0 0
    outer loop
      vertex 3.79917 1.22839e-15 5.5322
      vertex 3.79917 -2.8 6.4678
      vertex 3.79917 -2.8 5.5322
    endloop
  endfacet
endsolid OpenSCAD_Model
