  0
SECTION
  2
BLOCKS
  0
ENDSEC
  0
SECTION
  2
ENTITIES
  0
LINE
  8
0
 10
-120
 20
-150
 11
-119.964
 21
-151.472
  0
LINE
  8
0
 10
-119.964
 20
-151.472
 11
-119.856
 21
-152.941
  0
LINE
  8
0
 10
-119.856
 20
-152.941
 11
-119.675
 21
-154.402
  0
LINE
  8
0
 10
-119.675
 20
-154.402
 11
-119.424
 21
-155.853
  0
LINE
  8
0
 10
-119.424
 20
-155.853
 11
-119.101
 21
-157.289
  0
LINE
  8
0
 10
-119.101
 20
-157.289
 11
-118.708
 21
-158.709
  0
LINE
  8
0
 10
-118.708
 20
-158.709
 11
-118.246
 21
-160.107
  0
LINE
  8
0
 10
-118.246
 20
-160.107
 11
-117.716
 21
-161.481
  0
LINE
  8
0
 10
-117.716
 20
-161.481
 11
-117.12
 21
-162.827
  0
LINE
  8
0
 10
-117.12
 20
-162.827
 11
-116.458
 21
-164.142
  0
LINE
  8
0
 10
-116.458
 20
-164.142
 11
-115.732
 21
-165.423
  0
LINE
  8
0
 10
-115.732
 20
-165.423
 11
-114.944
 21
-166.667
  0
LINE
  8
0
 10
-114.944
 20
-166.667
 11
-114.096
 21
-167.871
  0
LINE
  8
0
 10
-114.096
 20
-167.871
 11
-113.19
 21
-169.032
  0
LINE
  8
0
 10
-113.19
 20
-169.032
 11
-112.229
 21
-170.147
  0
LINE
  8
0
 10
-112.229
 20
-170.147
 11
-111.213
 21
-171.213
  0
LINE
  8
0
 10
-111.213
 20
-171.213
 11
-110.147
 21
-172.229
  0
LINE
  8
0
 10
-110.147
 20
-172.229
 11
-109.032
 21
-173.19
  0
LINE
  8
0
 10
-109.032
 20
-173.19
 11
-107.871
 21
-174.096
  0
LINE
  8
0
 10
-107.871
 20
-174.096
 11
-106.667
 21
-174.944
  0
LINE
  8
0
 10
-106.667
 20
-174.944
 11
-105.423
 21
-175.732
  0
LINE
  8
0
 10
-105.423
 20
-175.732
 11
-104.142
 21
-176.458
  0
LINE
  8
0
 10
-104.142
 20
-176.458
 11
-102.827
 21
-177.12
  0
LINE
  8
0
 10
-102.827
 20
-177.12
 11
-101.481
 21
-177.716
  0
LINE
  8
0
 10
-101.481
 20
-177.716
 11
-100.107
 21
-178.246
  0
LINE
  8
0
 10
-100.107
 20
-178.246
 11
-98.7085
 21
-178.708
  0
LINE
  8
0
 10
-98.7085
 20
-178.708
 11
-97.2894
 21
-179.101
  0
LINE
  8
0
 10
-97.2894
 20
-179.101
 11
-95.8527
 21
-179.424
  0
LINE
  8
0
 10
-95.8527
 20
-179.424
 11
-94.4019
 21
-179.675
  0
LINE
  8
0
 10
-94.4019
 20
-179.675
 11
-92.9405
 21
-179.856
  0
LINE
  8
0
 10
-92.9405
 20
-179.856
 11
-91.472
 21
-179.964
  0
LINE
  8
0
 10
-91.472
 20
-179.964
 11
-90
 21
-180
  0
LINE
  8
0
 10
-90
 20
-180
 11
-90
 21
-180
  0
LINE
  8
0
 10
-90
 20
-180
 11
-90
 21
-180
  0
LINE
  8
0
 10
-90
 20
-180
 11
-14.2
 21
-180
  0
LINE
  8
0
 10
-14.2
 20
-180
 11
-14.2
 21
-167.5
  0
LINE
  8
0
 10
-14.2
 20
-167.5
 11
-22.4
 21
-167.5
  0
LINE
  8
0
 10
-22.4
 20
-167.5
 11
-22.4
 21
-162.5
  0
LINE
  8
0
 10
-22.4
 20
-162.5
 11
-14.2
 21
-162.5
  0
LINE
  8
0
 10
-14.2
 20
-162.5
 11
-14.2
 21
-88.7667
  0
LINE
  8
0
 10
-14.2
 20
-88.7667
 11
14.2
 21
-88.7667
  0
LINE
  8
0
 10
14.2
 20
-88.7667
 11
14.2
 21
-162.5
  0
LINE
  8
0
 10
14.2
 20
-162.5
 11
22.4
 21
-162.5
  0
LINE
  8
0
 10
22.4
 20
-162.5
 11
22.4
 21
-167.5
  0
LINE
  8
0
 10
22.4
 20
-167.5
 11
14.2
 21
-167.5
  0
LINE
  8
0
 10
14.2
 20
-167.5
 11
14.2
 21
-180
  0
LINE
  8
0
 10
14.2
 20
-180
 11
90
 21
-180
  0
LINE
  8
0
 10
90
 20
-180
 11
91.472
 21
-179.964
  0
LINE
  8
0
 10
91.472
 20
-179.964
 11
92.9405
 21
-179.856
  0
LINE
  8
0
 10
92.9405
 20
-179.856
 11
94.4019
 21
-179.675
  0
LINE
  8
0
 10
94.4019
 20
-179.675
 11
95.8527
 21
-179.424
  0
LINE
  8
0
 10
95.8527
 20
-179.424
 11
97.2894
 21
-179.101
  0
LINE
  8
0
 10
97.2894
 20
-179.101
 11
98.7085
 21
-178.708
  0
LINE
  8
0
 10
98.7085
 20
-178.708
 11
100.107
 21
-178.246
  0
LINE
  8
0
 10
100.107
 20
-178.246
 11
101.481
 21
-177.716
  0
LINE
  8
0
 10
101.481
 20
-177.716
 11
102.827
 21
-177.12
  0
LINE
  8
0
 10
102.827
 20
-177.12
 11
104.142
 21
-176.458
  0
LINE
  8
0
 10
104.142
 20
-176.458
 11
105.423
 21
-175.732
  0
LINE
  8
0
 10
105.423
 20
-175.732
 11
106.667
 21
-174.944
  0
LINE
  8
0
 10
106.667
 20
-174.944
 11
107.871
 21
-174.096
  0
LINE
  8
0
 10
107.871
 20
-174.096
 11
109.032
 21
-173.19
  0
LINE
  8
0
 10
109.032
 20
-173.19
 11
110.147
 21
-172.229
  0
LINE
  8
0
 10
110.147
 20
-172.229
 11
111.213
 21
-171.213
  0
LINE
  8
0
 10
111.213
 20
-171.213
 11
112.229
 21
-170.147
  0
LINE
  8
0
 10
112.229
 20
-170.147
 11
113.19
 21
-169.032
  0
LINE
  8
0
 10
113.19
 20
-169.032
 11
114.096
 21
-167.871
  0
LINE
  8
0
 10
114.096
 20
-167.871
 11
114.944
 21
-166.667
  0
LINE
  8
0
 10
114.944
 20
-166.667
 11
115.732
 21
-165.423
  0
LINE
  8
0
 10
115.732
 20
-165.423
 11
116.458
 21
-164.142
  0
LINE
  8
0
 10
116.458
 20
-164.142
 11
117.12
 21
-162.827
  0
LINE
  8
0
 10
117.12
 20
-162.827
 11
117.716
 21
-161.481
  0
LINE
  8
0
 10
117.716
 20
-161.481
 11
118.246
 21
-160.107
  0
LINE
  8
0
 10
118.246
 20
-160.107
 11
118.708
 21
-158.709
  0
LINE
  8
0
 10
118.708
 20
-158.709
 11
119.101
 21
-157.289
  0
LINE
  8
0
 10
119.101
 20
-157.289
 11
119.424
 21
-155.853
  0
LINE
  8
0
 10
119.424
 20
-155.853
 11
119.675
 21
-154.402
  0
LINE
  8
0
 10
119.675
 20
-154.402
 11
119.856
 21
-152.941
  0
LINE
  8
0
 10
119.856
 20
-152.941
 11
119.964
 21
-151.472
  0
LINE
  8
0
 10
119.964
 20
-151.472
 11
120
 21
-150
  0
LINE
  8
0
 10
120
 20
-150
 11
120
 21
150
  0
LINE
  8
0
 10
120
 20
150
 11
119.978
 21
150.911
  0
LINE
  8
0
 10
119.978
 20
150.911
 11
99.2651
 21
138.952
  0
LINE
  8
0
 10
99.2651
 20
138.952
 11
103.365
 21
131.851
  0
LINE
  8
0
 10
103.365
 20
131.851
 11
99.0349
 21
129.351
  0
LINE
  8
0
 10
99.0349
 20
129.351
 11
94.9349
 21
136.452
  0
LINE
  8
0
 10
94.9349
 20
136.452
 11
31.08
 21
99.5858
  0
LINE
  8
0
 10
31.08
 20
99.5858
 11
16.88
 21
124.181
  0
LINE
  8
0
 10
16.88
 20
124.181
 11
80.7349
 21
161.048
  0
LINE
  8
0
 10
80.7349
 20
161.048
 11
76.6349
 21
168.149
  0
LINE
  8
0
 10
76.6349
 20
168.149
 11
80.9651
 21
170.649
  0
LINE
  8
0
 10
80.9651
 20
170.649
 11
85.0651
 21
163.548
  0
LINE
  8
0
 10
85.0651
 20
163.548
 11
105.779
 21
175.507
  0
LINE
  8
0
 10
105.779
 20
175.507
 11
105.423
 21
175.732
  0
LINE
  8
0
 10
105.423
 20
175.732
 11
104.142
 21
176.458
  0
LINE
  8
0
 10
104.142
 20
176.458
 11
102.827
 21
177.12
  0
LINE
  8
0
 10
102.827
 20
177.12
 11
101.481
 21
177.716
  0
LINE
  8
0
 10
101.481
 20
177.716
 11
100.107
 21
178.246
  0
LINE
  8
0
 10
100.107
 20
178.246
 11
98.7085
 21
178.708
  0
LINE
  8
0
 10
98.7085
 20
178.708
 11
97.2894
 21
179.101
  0
LINE
  8
0
 10
97.2894
 20
179.101
 11
95.8527
 21
179.424
  0
LINE
  8
0
 10
95.8527
 20
179.424
 11
94.4019
 21
179.675
  0
LINE
  8
0
 10
94.4019
 20
179.675
 11
92.9405
 21
179.856
  0
LINE
  8
0
 10
92.9405
 20
179.856
 11
91.472
 21
179.964
  0
LINE
  8
0
 10
91.472
 20
179.964
 11
90
 21
180
  0
LINE
  8
0
 10
90
 20
180
 11
-90
 21
180
  0
LINE
  8
0
 10
-90
 20
180
 11
-91.472
 21
179.964
  0
LINE
  8
0
 10
-91.472
 20
179.964
 11
-92.9405
 21
179.856
  0
LINE
  8
0
 10
-92.9405
 20
179.856
 11
-94.4019
 21
179.675
  0
LINE
  8
0
 10
-94.4019
 20
179.675
 11
-95.8527
 21
179.424
  0
LINE
  8
0
 10
-95.8527
 20
179.424
 11
-97.2894
 21
179.101
  0
LINE
  8
0
 10
-97.2894
 20
179.101
 11
-98.7085
 21
178.708
  0
LINE
  8
0
 10
-98.7085
 20
178.708
 11
-100.107
 21
178.246
  0
LINE
  8
0
 10
-100.107
 20
178.246
 11
-101.481
 21
177.716
  0
LINE
  8
0
 10
-101.481
 20
177.716
 11
-102.827
 21
177.12
  0
LINE
  8
0
 10
-102.827
 20
177.12
 11
-104.142
 21
176.458
  0
LINE
  8
0
 10
-104.142
 20
176.458
 11
-105.423
 21
175.732
  0
LINE
  8
0
 10
-105.423
 20
175.732
 11
-105.779
 21
175.507
  0
LINE
  8
0
 10
-105.779
 20
175.507
 11
-85.0651
 21
163.548
  0
LINE
  8
0
 10
-85.0651
 20
163.548
 11
-80.9651
 21
170.649
  0
LINE
  8
0
 10
-80.9651
 20
170.649
 11
-76.6349
 21
168.149
  0
LINE
  8
0
 10
-76.6349
 20
168.149
 11
-80.7349
 21
161.048
  0
LINE
  8
0
 10
-80.7349
 20
161.048
 11
-16.88
 21
124.181
  0
LINE
  8
0
 10
-16.88
 20
124.181
 11
-31.08
 21
99.5858
  0
LINE
  8
0
 10
-31.08
 20
99.5858
 11
-94.9349
 21
136.452
  0
LINE
  8
0
 10
-94.9349
 20
136.452
 11
-99.0349
 21
129.351
  0
LINE
  8
0
 10
-99.0349
 20
129.351
 11
-103.365
 21
131.851
  0
LINE
  8
0
 10
-103.365
 20
131.851
 11
-99.2651
 21
138.952
  0
LINE
  8
0
 10
-99.2651
 20
138.952
 11
-119.978
 21
150.911
  0
LINE
  8
0
 10
-119.978
 20
150.911
 11
-120
 21
150
  0
LINE
  8
0
 10
-120
 20
150
 11
-120
 21
-150
  0
LINE
  8
0
 10
-77.7028
 20
-40.1237
 11
-76.6237
 21
-9.66647
  0
LINE
  8
0
 10
-76.6237
 20
-9.66647
 11
-76.6525
 21
-9.45418
  0
LINE
  8
0
 10
-76.6525
 20
-9.45418
 11
-76.8614
 21
-7.57019
  0
LINE
  8
0
 10
-76.8614
 20
-7.57019
 11
-77.0241
 21
-5.68164
  0
LINE
  8
0
 10
-77.0241
 20
-5.68164
 11
-77.1403
 21
-3.78966
  0
LINE
  8
0
 10
-77.1403
 20
-3.78966
 11
-77.2101
 21
-1.8954
  0
LINE
  8
0
 10
-77.2101
 20
-1.8954
 11
-77.2333
 21
0
  0
LINE
  8
0
 10
-77.2333
 20
0
 11
-77.2101
 21
1.8954
  0
LINE
  8
0
 10
-77.2101
 20
1.8954
 11
-77.1403
 21
3.78966
  0
LINE
  8
0
 10
-77.1403
 20
3.78966
 11
-77.0241
 21
5.68164
  0
LINE
  8
0
 10
-77.0241
 20
5.68164
 11
-76.8614
 21
7.57019
  0
LINE
  8
0
 10
-76.8614
 20
7.57019
 11
-76.6525
 21
9.45418
  0
LINE
  8
0
 10
-76.6525
 20
9.45418
 11
-76.3974
 21
11.3325
  0
LINE
  8
0
 10
-76.3974
 20
11.3325
 11
-76.0963
 21
13.204
  0
LINE
  8
0
 10
-76.0963
 20
13.204
 11
-75.7493
 21
15.0675
  0
LINE
  8
0
 10
-75.7493
 20
15.0675
 11
-75.3567
 21
16.9219
  0
LINE
  8
0
 10
-75.3567
 20
16.9219
 11
-74.9187
 21
18.7662
  0
LINE
  8
0
 10
-74.9187
 20
18.7662
 11
-74.4356
 21
20.5991
  0
LINE
  8
0
 10
-74.4356
 20
20.5991
 11
-73.9077
 21
22.4197
  0
LINE
  8
0
 10
-73.9077
 20
22.4197
 11
-73.3352
 21
24.2267
  0
LINE
  8
0
 10
-73.3352
 20
24.2267
 11
-72.7186
 21
26.0191
  0
LINE
  8
0
 10
-72.7186
 20
26.0191
 11
-72.0581
 21
27.7959
  0
LINE
  8
0
 10
-72.0581
 20
27.7959
 11
-71.3543
 21
29.5559
  0
LINE
  8
0
 10
-71.3543
 20
29.5559
 11
-70.6075
 21
31.2981
  0
LINE
  8
0
 10
-70.6075
 20
31.2981
 11
-69.8181
 21
33.0215
  0
LINE
  8
0
 10
-69.8181
 20
33.0215
 11
-68.9867
 21
34.725
  0
LINE
  8
0
 10
-68.9867
 20
34.725
 11
-68.1137
 21
36.4075
  0
LINE
  8
0
 10
-68.1137
 20
36.4075
 11
-67.1997
 21
38.0682
  0
LINE
  8
0
 10
-67.1997
 20
38.0682
 11
-66.2452
 21
39.7059
  0
LINE
  8
0
 10
-66.2452
 20
39.7059
 11
-65.2509
 21
41.3196
  0
LINE
  8
0
 10
-65.2509
 20
41.3196
 11
-64.2172
 21
42.9085
  0
LINE
  8
0
 10
-64.2172
 20
42.9085
 11
-63.1448
 21
44.4716
  0
LINE
  8
0
 10
-63.1448
 20
44.4716
 11
-62.0344
 21
46.0078
  0
LINE
  8
0
 10
-62.0344
 20
46.0078
 11
-60.8866
 21
47.5164
  0
LINE
  8
0
 10
-60.8866
 20
47.5164
 11
-59.7022
 21
48.9963
  0
LINE
  8
0
 10
-59.7022
 20
48.9963
 11
-58.4818
 21
50.4467
  0
LINE
  8
0
 10
-58.4818
 20
50.4467
 11
-57.2261
 21
51.8667
  0
LINE
  8
0
 10
-57.2261
 20
51.8667
 11
-55.936
 21
53.2555
  0
LINE
  8
0
 10
-55.936
 20
53.2555
 11
-54.6122
 21
54.6122
  0
LINE
  8
0
 10
-54.6122
 20
54.6122
 11
-53.2555
 21
55.936
  0
LINE
  8
0
 10
-53.2555
 20
55.936
 11
-51.8667
 21
57.2261
  0
LINE
  8
0
 10
-51.8667
 20
57.2261
 11
-50.4467
 21
58.4818
  0
LINE
  8
0
 10
-50.4467
 20
58.4818
 11
-48.9963
 21
59.7022
  0
LINE
  8
0
 10
-48.9963
 20
59.7022
 11
-47.5164
 21
60.8866
  0
LINE
  8
0
 10
-47.5164
 20
60.8866
 11
-46.0078
 21
62.0344
  0
LINE
  8
0
 10
-46.0078
 20
62.0344
 11
-44.4716
 21
63.1448
  0
LINE
  8
0
 10
-44.4716
 20
63.1448
 11
-42.9085
 21
64.2172
  0
LINE
  8
0
 10
-42.9085
 20
64.2172
 11
-41.3196
 21
65.2509
  0
LINE
  8
0
 10
-41.3196
 20
65.2509
 11
-39.7059
 21
66.2452
  0
LINE
  8
0
 10
-39.7059
 20
66.2452
 11
-38.0682
 21
67.1997
  0
LINE
  8
0
 10
-38.0682
 20
67.1997
 11
-36.4075
 21
68.1137
  0
LINE
  8
0
 10
-36.4075
 20
68.1137
 11
-34.725
 21
68.9867
  0
LINE
  8
0
 10
-34.725
 20
68.9867
 11
-33.0215
 21
69.8181
  0
LINE
  8
0
 10
-33.0215
 20
69.8181
 11
-31.2981
 21
70.6075
  0
LINE
  8
0
 10
-31.2981
 20
70.6075
 11
-29.5559
 21
71.3543
  0
LINE
  8
0
 10
-29.5559
 20
71.3543
 11
-27.7959
 21
72.0581
  0
LINE
  8
0
 10
-27.7959
 20
72.0581
 11
-26.0191
 21
72.7186
  0
LINE
  8
0
 10
-26.0191
 20
72.7186
 11
-24.2267
 21
73.3352
  0
LINE
  8
0
 10
-24.2267
 20
73.3352
 11
-22.4197
 21
73.9077
  0
LINE
  8
0
 10
-22.4197
 20
73.9077
 11
-20.5991
 21
74.4356
  0
LINE
  8
0
 10
-20.5991
 20
74.4356
 11
-18.7662
 21
74.9187
  0
LINE
  8
0
 10
-18.7662
 20
74.9187
 11
-16.9219
 21
75.3567
  0
LINE
  8
0
 10
-16.9219
 20
75.3567
 11
-15.0675
 21
75.7493
  0
LINE
  8
0
 10
-15.0675
 20
75.7493
 11
-13.204
 21
76.0963
  0
LINE
  8
0
 10
-13.204
 20
76.0963
 11
-11.3325
 21
76.3974
  0
LINE
  8
0
 10
-11.3325
 20
76.3974
 11
-9.45418
 21
76.6525
  0
LINE
  8
0
 10
-9.45418
 20
76.6525
 11
-7.57019
 21
76.8614
  0
LINE
  8
0
 10
-7.57019
 20
76.8614
 11
-5.68164
 21
77.0241
  0
LINE
  8
0
 10
-5.68164
 20
77.0241
 11
-3.78966
 21
77.1403
  0
LINE
  8
0
 10
-3.78966
 20
77.1403
 11
-1.8954
 21
77.2101
  0
LINE
  8
0
 10
-1.8954
 20
77.2101
 11
0
 21
77.2333
  0
LINE
  8
0
 10
0
 20
77.2333
 11
1.8954
 21
77.2101
  0
LINE
  8
0
 10
1.8954
 20
77.2101
 11
3.78966
 21
77.1403
  0
LINE
  8
0
 10
3.78966
 20
77.1403
 11
5.68164
 21
77.0241
  0
LINE
  8
0
 10
5.68164
 20
77.0241
 11
7.57019
 21
76.8614
  0
LINE
  8
0
 10
7.57019
 20
76.8614
 11
9.45418
 21
76.6525
  0
LINE
  8
0
 10
9.45418
 20
76.6525
 11
11.3325
 21
76.3974
  0
LINE
  8
0
 10
11.3325
 20
76.3974
 11
13.204
 21
76.0963
  0
LINE
  8
0
 10
13.204
 20
76.0963
 11
14.3257
 21
75.8874
  0
LINE
  8
0
 10
14.3257
 20
75.8874
 11
1.82272
 21
83.709
  0
LINE
  8
0
 10
1.82272
 20
83.709
 11
1.21199
 21
84.2842
  0
LINE
  8
0
 10
1.21199
 20
84.2842
 11
0.867836
 21
85.0492
  0
LINE
  8
0
 10
0.867836
 20
85.0492
 11
0.842646
 21
85.8877
  0
LINE
  8
0
 10
0.842646
 20
85.8877
 11
1.14026
 21
86.672
  0
LINE
  8
0
 10
1.14026
 20
86.672
 11
1.71536
 21
87.2828
  0
LINE
  8
0
 10
1.71536
 20
87.2828
 11
2.4804
 21
87.6269
  0
LINE
  8
0
 10
2.4804
 20
87.6269
 11
3.31891
 21
87.6521
  0
LINE
  8
0
 10
3.31891
 20
87.6521
 11
4.10324
 21
87.3545
  0
LINE
  8
0
 10
4.10324
 20
87.3545
 11
29.9496
 21
71.1855
  0
LINE
  8
0
 10
29.9496
 20
71.1855
 11
31.2981
 21
70.6075
  0
LINE
  8
0
 10
31.2981
 20
70.6075
 11
33.0215
 21
69.8181
  0
LINE
  8
0
 10
33.0215
 20
69.8181
 11
34.725
 21
68.9867
  0
LINE
  8
0
 10
34.725
 20
68.9867
 11
36.4075
 21
68.1137
  0
LINE
  8
0
 10
36.4075
 20
68.1137
 11
38.0682
 21
67.1997
  0
LINE
  8
0
 10
38.0682
 20
67.1997
 11
39.7059
 21
66.2452
  0
LINE
  8
0
 10
39.7059
 20
66.2452
 11
41.3196
 21
65.2509
  0
LINE
  8
0
 10
41.3196
 20
65.2509
 11
42.9085
 21
64.2172
  0
LINE
  8
0
 10
42.9085
 20
64.2172
 11
44.4716
 21
63.1448
  0
LINE
  8
0
 10
44.4716
 20
63.1448
 11
46.0078
 21
62.0344
  0
LINE
  8
0
 10
46.0078
 20
62.0344
 11
47.5164
 21
60.8866
  0
LINE
  8
0
 10
47.5164
 20
60.8866
 11
48.9963
 21
59.7022
  0
LINE
  8
0
 10
48.9963
 20
59.7022
 11
50.4467
 21
58.4818
  0
LINE
  8
0
 10
50.4467
 20
58.4818
 11
51.8667
 21
57.2261
  0
LINE
  8
0
 10
51.8667
 20
57.2261
 11
53.2555
 21
55.936
  0
LINE
  8
0
 10
53.2555
 20
55.936
 11
54.6122
 21
54.6122
  0
LINE
  8
0
 10
54.6122
 20
54.6122
 11
55.936
 21
53.2555
  0
LINE
  8
0
 10
55.936
 20
53.2555
 11
57.2261
 21
51.8667
  0
LINE
  8
0
 10
57.2261
 20
51.8667
 11
58.4818
 21
50.4467
  0
LINE
  8
0
 10
58.4818
 20
50.4467
 11
59.7022
 21
48.9963
  0
LINE
  8
0
 10
59.7022
 20
48.9963
 11
60.8866
 21
47.5164
  0
LINE
  8
0
 10
60.8866
 20
47.5164
 11
62.0344
 21
46.0078
  0
LINE
  8
0
 10
62.0344
 20
46.0078
 11
63.1448
 21
44.4716
  0
LINE
  8
0
 10
63.1448
 20
44.4716
 11
64.2172
 21
42.9085
  0
LINE
  8
0
 10
64.2172
 20
42.9085
 11
65.2509
 21
41.3196
  0
LINE
  8
0
 10
65.2509
 20
41.3196
 11
66.2452
 21
39.7059
  0
LINE
  8
0
 10
66.2452
 20
39.7059
 11
67.1997
 21
38.0682
  0
LINE
  8
0
 10
67.1997
 20
38.0682
 11
68.1137
 21
36.4075
  0
LINE
  8
0
 10
68.1137
 20
36.4075
 11
68.9867
 21
34.725
  0
LINE
  8
0
 10
68.9867
 20
34.725
 11
69.8181
 21
33.0215
  0
LINE
  8
0
 10
69.8181
 20
33.0215
 11
70.6075
 21
31.2981
  0
LINE
  8
0
 10
70.6075
 20
31.2981
 11
71.3543
 21
29.5559
  0
LINE
  8
0
 10
71.3543
 20
29.5559
 11
72.0581
 21
27.7959
  0
LINE
  8
0
 10
72.0581
 20
27.7959
 11
72.7186
 21
26.0191
  0
LINE
  8
0
 10
72.7186
 20
26.0191
 11
73.3352
 21
24.2267
  0
LINE
  8
0
 10
73.3352
 20
24.2267
 11
73.9077
 21
22.4197
  0
LINE
  8
0
 10
73.9077
 20
22.4197
 11
74.4356
 21
20.5991
  0
LINE
  8
0
 10
74.4356
 20
20.5991
 11
74.9187
 21
18.7662
  0
LINE
  8
0
 10
74.9187
 20
18.7662
 11
75.3567
 21
16.9219
  0
LINE
  8
0
 10
75.3567
 20
16.9219
 11
75.7493
 21
15.0675
  0
LINE
  8
0
 10
75.7493
 20
15.0675
 11
76.0963
 21
13.204
  0
LINE
  8
0
 10
76.0963
 20
13.204
 11
76.3974
 21
11.3325
  0
LINE
  8
0
 10
76.3974
 20
11.3325
 11
76.6525
 21
9.45418
  0
LINE
  8
0
 10
76.6525
 20
9.45418
 11
76.8614
 21
7.57019
  0
LINE
  8
0
 10
76.8614
 20
7.57019
 11
77.0241
 21
5.68164
  0
LINE
  8
0
 10
77.0241
 20
5.68164
 11
77.1403
 21
3.78966
  0
LINE
  8
0
 10
77.1403
 20
3.78966
 11
77.2101
 21
1.8954
  0
LINE
  8
0
 10
77.2101
 20
1.8954
 11
77.2333
 21
0
  0
LINE
  8
0
 10
77.2333
 20
0
 11
77.2101
 21
-1.8954
  0
LINE
  8
0
 10
77.2101
 20
-1.8954
 11
77.1403
 21
-3.78966
  0
LINE
  8
0
 10
77.1403
 20
-3.78966
 11
77.0241
 21
-5.68164
  0
LINE
  8
0
 10
77.0241
 20
-5.68164
 11
76.8614
 21
-7.57019
  0
LINE
  8
0
 10
76.8614
 20
-7.57019
 11
76.6525
 21
-9.45418
  0
LINE
  8
0
 10
76.6525
 20
-9.45418
 11
76.3974
 21
-11.3325
  0
LINE
  8
0
 10
76.3974
 20
-11.3325
 11
76.0963
 21
-13.204
  0
LINE
  8
0
 10
76.0963
 20
-13.204
 11
75.7493
 21
-15.0675
  0
LINE
  8
0
 10
75.7493
 20
-15.0675
 11
75.3567
 21
-16.9219
  0
LINE
  8
0
 10
75.3567
 20
-16.9219
 11
74.9187
 21
-18.7662
  0
LINE
  8
0
 10
74.9187
 20
-18.7662
 11
74.4356
 21
-20.5991
  0
LINE
  8
0
 10
74.4356
 20
-20.5991
 11
73.9077
 21
-22.4197
  0
LINE
  8
0
 10
73.9077
 20
-22.4197
 11
73.3352
 21
-24.2267
  0
LINE
  8
0
 10
73.3352
 20
-24.2267
 11
72.7186
 21
-26.0191
  0
LINE
  8
0
 10
72.7186
 20
-26.0191
 11
72.0581
 21
-27.7959
  0
LINE
  8
0
 10
72.0581
 20
-27.7959
 11
71.3543
 21
-29.5559
  0
LINE
  8
0
 10
71.3543
 20
-29.5559
 11
70.6075
 21
-31.2981
  0
LINE
  8
0
 10
70.6075
 20
-31.2981
 11
69.8181
 21
-33.0215
  0
LINE
  8
0
 10
69.8181
 20
-33.0215
 11
68.9867
 21
-34.725
  0
LINE
  8
0
 10
68.9867
 20
-34.725
 11
68.1137
 21
-36.4075
  0
LINE
  8
0
 10
68.1137
 20
-36.4075
 11
67.1997
 21
-38.0682
  0
LINE
  8
0
 10
67.1997
 20
-38.0682
 11
66.2452
 21
-39.7059
  0
LINE
  8
0
 10
66.2452
 20
-39.7059
 11
65.2509
 21
-41.3196
  0
LINE
  8
0
 10
65.2509
 20
-41.3196
 11
64.2172
 21
-42.9085
  0
LINE
  8
0
 10
64.2172
 20
-42.9085
 11
63.1448
 21
-44.4716
  0
LINE
  8
0
 10
63.1448
 20
-44.4716
 11
62.0344
 21
-46.0078
  0
LINE
  8
0
 10
62.0344
 20
-46.0078
 11
60.8866
 21
-47.5164
  0
LINE
  8
0
 10
60.8866
 20
-47.5164
 11
59.7022
 21
-48.9963
  0
LINE
  8
0
 10
59.7022
 20
-48.9963
 11
58.5674
 21
-50.3449
  0
LINE
  8
0
 10
58.5674
 20
-50.3449
 11
71.5828
 21
-43.433
  0
LINE
  8
0
 10
71.5828
 20
-43.433
 11
72.3862
 21
-43.1917
  0
LINE
  8
0
 10
72.3862
 20
-43.1917
 11
73.2208
 21
-43.2762
  0
LINE
  8
0
 10
73.2208
 20
-43.2762
 11
73.9596
 21
-43.6736
  0
LINE
  8
0
 10
73.9596
 20
-43.6736
 11
74.49
 21
-44.3235
  0
LINE
  8
0
 10
74.49
 20
-44.3235
 11
74.7314
 21
-45.1269
  0
LINE
  8
0
 10
74.7314
 20
-45.1269
 11
74.6469
 21
-45.9615
  0
LINE
  8
0
 10
74.6469
 20
-45.9615
 11
74.2495
 21
-46.7003
  0
LINE
  8
0
 10
74.2495
 20
-46.7003
 11
73.5996
 21
-47.2308
  0
LINE
  8
0
 10
73.5996
 20
-47.2308
 11
46.6646
 21
-61.5347
  0
LINE
  8
0
 10
46.6646
 20
-61.5347
 11
46.0078
 21
-62.0344
  0
LINE
  8
0
 10
46.0078
 20
-62.0344
 11
44.4716
 21
-63.1448
  0
LINE
  8
0
 10
44.4716
 20
-63.1448
 11
42.9085
 21
-64.2172
  0
LINE
  8
0
 10
42.9085
 20
-64.2172
 11
41.3196
 21
-65.2509
  0
LINE
  8
0
 10
41.3196
 20
-65.2509
 11
39.7059
 21
-66.2452
  0
LINE
  8
0
 10
39.7059
 20
-66.2452
 11
38.0682
 21
-67.1997
  0
LINE
  8
0
 10
38.0682
 20
-67.1997
 11
36.4075
 21
-68.1137
  0
LINE
  8
0
 10
36.4075
 20
-68.1137
 11
34.725
 21
-68.9867
  0
LINE
  8
0
 10
34.725
 20
-68.9867
 11
33.0215
 21
-69.8181
  0
LINE
  8
0
 10
33.0215
 20
-69.8181
 11
31.2981
 21
-70.6075
  0
LINE
  8
0
 10
31.2981
 20
-70.6075
 11
29.5559
 21
-71.3543
  0
LINE
  8
0
 10
29.5559
 20
-71.3543
 11
27.7959
 21
-72.0581
  0
LINE
  8
0
 10
27.7959
 20
-72.0581
 11
26.0191
 21
-72.7186
  0
LINE
  8
0
 10
26.0191
 20
-72.7186
 11
24.2267
 21
-73.3352
  0
LINE
  8
0
 10
24.2267
 20
-73.3352
 11
22.4197
 21
-73.9077
  0
LINE
  8
0
 10
22.4197
 20
-73.9077
 11
20.5991
 21
-74.4356
  0
LINE
  8
0
 10
20.5991
 20
-74.4356
 11
18.7662
 21
-74.9187
  0
LINE
  8
0
 10
18.7662
 20
-74.9187
 11
16.9219
 21
-75.3567
  0
LINE
  8
0
 10
16.9219
 20
-75.3567
 11
15.0675
 21
-75.7493
  0
LINE
  8
0
 10
15.0675
 20
-75.7493
 11
13.204
 21
-76.0963
  0
LINE
  8
0
 10
13.204
 20
-76.0963
 11
11.3325
 21
-76.3974
  0
LINE
  8
0
 10
11.3325
 20
-76.3974
 11
9.45418
 21
-76.6525
  0
LINE
  8
0
 10
9.45418
 20
-76.6525
 11
7.57019
 21
-76.8614
  0
LINE
  8
0
 10
7.57019
 20
-76.8614
 11
5.68164
 21
-77.0241
  0
LINE
  8
0
 10
5.68164
 20
-77.0241
 11
3.78966
 21
-77.1403
  0
LINE
  8
0
 10
3.78966
 20
-77.1403
 11
1.8954
 21
-77.2101
  0
LINE
  8
0
 10
1.8954
 20
-77.2101
 11
0
 21
-77.2333
  0
LINE
  8
0
 10
0
 20
-77.2333
 11
-1.8954
 21
-77.2101
  0
LINE
  8
0
 10
-1.8954
 20
-77.2101
 11
-3.78966
 21
-77.1403
  0
LINE
  8
0
 10
-3.78966
 20
-77.1403
 11
-5.68164
 21
-77.0241
  0
LINE
  8
0
 10
-5.68164
 20
-77.0241
 11
-7.57019
 21
-76.8614
  0
LINE
  8
0
 10
-7.57019
 20
-76.8614
 11
-9.45418
 21
-76.6525
  0
LINE
  8
0
 10
-9.45418
 20
-76.6525
 11
-11.3325
 21
-76.3974
  0
LINE
  8
0
 10
-11.3325
 20
-76.3974
 11
-13.204
 21
-76.0963
  0
LINE
  8
0
 10
-13.204
 20
-76.0963
 11
-15.0675
 21
-75.7493
  0
LINE
  8
0
 10
-15.0675
 20
-75.7493
 11
-16.9219
 21
-75.3567
  0
LINE
  8
0
 10
-16.9219
 20
-75.3567
 11
-18.7662
 21
-74.9187
  0
LINE
  8
0
 10
-18.7662
 20
-74.9187
 11
-20.5991
 21
-74.4356
  0
LINE
  8
0
 10
-20.5991
 20
-74.4356
 11
-22.4197
 21
-73.9077
  0
LINE
  8
0
 10
-22.4197
 20
-73.9077
 11
-24.2267
 21
-73.3352
  0
LINE
  8
0
 10
-24.2267
 20
-73.3352
 11
-26.0191
 21
-72.7186
  0
LINE
  8
0
 10
-26.0191
 20
-72.7186
 11
-27.7959
 21
-72.0581
  0
LINE
  8
0
 10
-27.7959
 20
-72.0581
 11
-29.5559
 21
-71.3543
  0
LINE
  8
0
 10
-29.5559
 20
-71.3543
 11
-31.2981
 21
-70.6075
  0
LINE
  8
0
 10
-31.2981
 20
-70.6075
 11
-33.0215
 21
-69.8181
  0
LINE
  8
0
 10
-33.0215
 20
-69.8181
 11
-34.725
 21
-68.9867
  0
LINE
  8
0
 10
-34.725
 20
-68.9867
 11
-36.4075
 21
-68.1137
  0
LINE
  8
0
 10
-36.4075
 20
-68.1137
 11
-38.0682
 21
-67.1997
  0
LINE
  8
0
 10
-38.0682
 20
-67.1997
 11
-39.7059
 21
-66.2452
  0
LINE
  8
0
 10
-39.7059
 20
-66.2452
 11
-41.3196
 21
-65.2509
  0
LINE
  8
0
 10
-41.3196
 20
-65.2509
 11
-42.9085
 21
-64.2172
  0
LINE
  8
0
 10
-42.9085
 20
-64.2172
 11
-44.4716
 21
-63.1448
  0
LINE
  8
0
 10
-44.4716
 20
-63.1448
 11
-46.0078
 21
-62.0344
  0
LINE
  8
0
 10
-46.0078
 20
-62.0344
 11
-47.5164
 21
-60.8866
  0
LINE
  8
0
 10
-47.5164
 20
-60.8866
 11
-48.9963
 21
-59.7022
  0
LINE
  8
0
 10
-48.9963
 20
-59.7022
 11
-50.4467
 21
-58.4818
  0
LINE
  8
0
 10
-50.4467
 20
-58.4818
 11
-51.8667
 21
-57.2261
  0
LINE
  8
0
 10
-51.8667
 20
-57.2261
 11
-53.2555
 21
-55.936
  0
LINE
  8
0
 10
-53.2555
 20
-55.936
 11
-54.6122
 21
-54.6122
  0
LINE
  8
0
 10
-54.6122
 20
-54.6122
 11
-55.936
 21
-53.2555
  0
LINE
  8
0
 10
-55.936
 20
-53.2555
 11
-57.2261
 21
-51.8667
  0
LINE
  8
0
 10
-57.2261
 20
-51.8667
 11
-58.4818
 21
-50.4467
  0
LINE
  8
0
 10
-58.4818
 20
-50.4467
 11
-59.7022
 21
-48.9963
  0
LINE
  8
0
 10
-59.7022
 20
-48.9963
 11
-60.8866
 21
-47.5164
  0
LINE
  8
0
 10
-60.8866
 20
-47.5164
 11
-62.0344
 21
-46.0078
  0
LINE
  8
0
 10
-62.0344
 20
-46.0078
 11
-63.1448
 21
-44.4716
  0
LINE
  8
0
 10
-63.1448
 20
-44.4716
 11
-64.2172
 21
-42.9085
  0
LINE
  8
0
 10
-64.2172
 20
-42.9085
 11
-65.2509
 21
-41.3196
  0
LINE
  8
0
 10
-65.2509
 20
-41.3196
 11
-66.2452
 21
-39.7059
  0
LINE
  8
0
 10
-66.2452
 20
-39.7059
 11
-67.1997
 21
-38.0682
  0
LINE
  8
0
 10
-67.1997
 20
-38.0682
 11
-68.1137
 21
-36.4075
  0
LINE
  8
0
 10
-68.1137
 20
-36.4075
 11
-68.9867
 21
-34.725
  0
LINE
  8
0
 10
-68.9867
 20
-34.725
 11
-69.8181
 21
-33.0215
  0
LINE
  8
0
 10
-69.8181
 20
-33.0215
 11
-70.6075
 21
-31.2981
  0
LINE
  8
0
 10
-70.6075
 20
-31.2981
 11
-71.3543
 21
-29.5559
  0
LINE
  8
0
 10
-71.3543
 20
-29.5559
 11
-72.0581
 21
-27.7959
  0
LINE
  8
0
 10
-72.0581
 20
-27.7959
 11
-72.7186
 21
-26.0191
  0
LINE
  8
0
 10
-72.7186
 20
-26.0191
 11
-72.8834
 21
-25.54
  0
LINE
  8
0
 10
-72.8834
 20
-25.54
 11
-73.4055
 21
-40.276
  0
LINE
  8
0
 10
-73.4055
 20
-40.276
 11
-73.5982
 21
-41.0925
  0
LINE
  8
0
 10
-73.5982
 20
-41.0925
 11
-74.0887
 21
-41.773
  0
LINE
  8
0
 10
-74.0887
 20
-41.773
 11
-74.8023
 21
-42.2141
  0
LINE
  8
0
 10
-74.8023
 20
-42.2141
 11
-75.6303
 21
-42.3485
  0
LINE
  8
0
 10
-75.6303
 20
-42.3485
 11
-76.4468
 21
-42.1558
  0
LINE
  8
0
 10
-76.4468
 20
-42.1558
 11
-77.1273
 21
-41.6654
  0
LINE
  8
0
 10
-77.1273
 20
-41.6654
 11
-77.5684
 21
-40.9518
  0
LINE
  8
0
 10
-77.5684
 20
-40.9518
 11
-77.7028
 21
-40.1237
  0
LINE
  8
0
 10
81.2461
 20
-17.9644
 11
81.2461
 21
-12.9644
  0
LINE
  8
0
 10
81.2461
 20
-12.9644
 11
91.2461
 21
-12.9644
  0
LINE
  8
0
 10
91.2461
 20
-12.9644
 11
91.2461
 21
-13.768
  0
LINE
  8
0
 10
91.2461
 20
-13.768
 11
91.4951
 21
-13.7322
  0
LINE
  8
0
 10
91.4951
 20
-13.7322
 11
92.3921
 21
-14.1419
  0
LINE
  8
0
 10
92.3921
 20
-14.1419
 11
92.9252
 21
-14.9714
  0
LINE
  8
0
 10
92.9252
 20
-14.9714
 11
92.9252
 21
-15.9575
  0
LINE
  8
0
 10
92.9252
 20
-15.9575
 11
92.3921
 21
-16.787
  0
LINE
  8
0
 10
92.3921
 20
-16.787
 11
91.4951
 21
-17.1966
  0
LINE
  8
0
 10
91.4951
 20
-17.1966
 11
91.2461
 21
-17.1608
  0
LINE
  8
0
 10
91.2461
 20
-17.1608
 11
91.2461
 21
-17.9644
  0
LINE
  8
0
 10
91.2461
 20
-17.9644
 11
81.2461
 21
-17.9644
  0
LINE
  8
0
 10
81.2461
 20
12.9644
 11
81.2461
 21
17.9644
  0
LINE
  8
0
 10
81.2461
 20
17.9644
 11
91.2461
 21
17.9644
  0
LINE
  8
0
 10
91.2461
 20
17.9644
 11
91.2461
 21
17.1608
  0
LINE
  8
0
 10
91.2461
 20
17.1608
 11
91.4951
 21
17.1966
  0
LINE
  8
0
 10
91.4951
 20
17.1966
 11
92.3921
 21
16.787
  0
LINE
  8
0
 10
92.3921
 20
16.787
 11
92.9252
 21
15.9575
  0
LINE
  8
0
 10
92.9252
 20
15.9575
 11
92.9252
 21
14.9714
  0
LINE
  8
0
 10
92.9252
 20
14.9714
 11
92.3921
 21
14.1419
  0
LINE
  8
0
 10
92.3921
 20
14.1419
 11
91.4951
 21
13.7322
  0
LINE
  8
0
 10
91.4951
 20
13.7322
 11
91.2461
 21
13.768
  0
LINE
  8
0
 10
91.2461
 20
13.768
 11
91.2461
 21
12.9644
  0
LINE
  8
0
 10
91.2461
 20
12.9644
 11
81.2461
 21
12.9644
  0
ENDSEC
  0
SECTION
  2
OBJECTS
  0
DICTIONARY
  0
ENDSEC
  0
EOF
