  0
SECTION
  2
BLOCKS
  0
ENDSEC
  0
SECTION
  2
ENTITIES
  0
LINE
  8
0
 10
-120
 20
-150
 11
-119.964
 21
-151.472
  0
LINE
  8
0
 10
-119.964
 20
-151.472
 11
-119.856
 21
-152.941
  0
LINE
  8
0
 10
-119.856
 20
-152.941
 11
-119.675
 21
-154.402
  0
LINE
  8
0
 10
-119.675
 20
-154.402
 11
-119.424
 21
-155.853
  0
LINE
  8
0
 10
-119.424
 20
-155.853
 11
-119.101
 21
-157.289
  0
LINE
  8
0
 10
-119.101
 20
-157.289
 11
-118.708
 21
-158.709
  0
LINE
  8
0
 10
-118.708
 20
-158.709
 11
-118.246
 21
-160.107
  0
LINE
  8
0
 10
-118.246
 20
-160.107
 11
-117.716
 21
-161.481
  0
LINE
  8
0
 10
-117.716
 20
-161.481
 11
-117.12
 21
-162.827
  0
LINE
  8
0
 10
-117.12
 20
-162.827
 11
-116.458
 21
-164.142
  0
LINE
  8
0
 10
-116.458
 20
-164.142
 11
-115.732
 21
-165.423
  0
LINE
  8
0
 10
-115.732
 20
-165.423
 11
-114.944
 21
-166.667
  0
LINE
  8
0
 10
-114.944
 20
-166.667
 11
-114.096
 21
-167.871
  0
LINE
  8
0
 10
-114.096
 20
-167.871
 11
-113.19
 21
-169.032
  0
LINE
  8
0
 10
-113.19
 20
-169.032
 11
-112.229
 21
-170.147
  0
LINE
  8
0
 10
-112.229
 20
-170.147
 11
-111.213
 21
-171.213
  0
LINE
  8
0
 10
-111.213
 20
-171.213
 11
-110.147
 21
-172.229
  0
LINE
  8
0
 10
-110.147
 20
-172.229
 11
-109.032
 21
-173.19
  0
LINE
  8
0
 10
-109.032
 20
-173.19
 11
-107.871
 21
-174.096
  0
LINE
  8
0
 10
-107.871
 20
-174.096
 11
-106.667
 21
-174.944
  0
LINE
  8
0
 10
-106.667
 20
-174.944
 11
-105.423
 21
-175.732
  0
LINE
  8
0
 10
-105.423
 20
-175.732
 11
-104.142
 21
-176.458
  0
LINE
  8
0
 10
-104.142
 20
-176.458
 11
-102.827
 21
-177.12
  0
LINE
  8
0
 10
-102.827
 20
-177.12
 11
-101.481
 21
-177.716
  0
LINE
  8
0
 10
-101.481
 20
-177.716
 11
-100.107
 21
-178.246
  0
LINE
  8
0
 10
-100.107
 20
-178.246
 11
-98.7085
 21
-178.708
  0
LINE
  8
0
 10
-98.7085
 20
-178.708
 11
-97.2894
 21
-179.101
  0
LINE
  8
0
 10
-97.2894
 20
-179.101
 11
-95.8527
 21
-179.424
  0
LINE
  8
0
 10
-95.8527
 20
-179.424
 11
-94.4019
 21
-179.675
  0
LINE
  8
0
 10
-94.4019
 20
-179.675
 11
-92.9405
 21
-179.856
  0
LINE
  8
0
 10
-92.9405
 20
-179.856
 11
-91.472
 21
-179.964
  0
LINE
  8
0
 10
-91.472
 20
-179.964
 11
-90
 21
-180
  0
LINE
  8
0
 10
-90
 20
-180
 11
-90
 21
-180
  0
LINE
  8
0
 10
-90
 20
-180
 11
-90
 21
-180
  0
LINE
  8
0
 10
-90
 20
-180
 11
-14.2
 21
-180
  0
LINE
  8
0
 10
-14.2
 20
-180
 11
-14.2
 21
-88.7667
  0
LINE
  8
0
 10
-14.2
 20
-88.7667
 11
14.2
 21
-88.7667
  0
LINE
  8
0
 10
14.2
 20
-88.7667
 11
14.2
 21
-119.15
  0
LINE
  8
0
 10
14.2
 20
-119.15
 11
20.2
 21
-119.15
  0
LINE
  8
0
 10
20.2
 20
-119.15
 11
20.2
 21
-106.668
  0
LINE
  8
0
 10
20.2
 20
-106.668
 11
90.2
 21
-106.668
  0
LINE
  8
0
 10
90.2
 20
-106.668
 11
90.2
 21
-149.098
  0
LINE
  8
0
 10
90.2
 20
-149.098
 11
20.2
 21
-149.098
  0
LINE
  8
0
 10
20.2
 20
-149.098
 11
20.2
 21
-136.617
  0
LINE
  8
0
 10
20.2
 20
-136.617
 11
14.2
 21
-136.617
  0
LINE
  8
0
 10
14.2
 20
-136.617
 11
14.2
 21
-180
  0
LINE
  8
0
 10
14.2
 20
-180
 11
90
 21
-180
  0
LINE
  8
0
 10
90
 20
-180
 11
91.472
 21
-179.964
  0
LINE
  8
0
 10
91.472
 20
-179.964
 11
92.9405
 21
-179.856
  0
LINE
  8
0
 10
92.9405
 20
-179.856
 11
94.4019
 21
-179.675
  0
LINE
  8
0
 10
94.4019
 20
-179.675
 11
95.8527
 21
-179.424
  0
LINE
  8
0
 10
95.8527
 20
-179.424
 11
97.2894
 21
-179.101
  0
LINE
  8
0
 10
97.2894
 20
-179.101
 11
98.7085
 21
-178.708
  0
LINE
  8
0
 10
98.7085
 20
-178.708
 11
100.107
 21
-178.246
  0
LINE
  8
0
 10
100.107
 20
-178.246
 11
101.481
 21
-177.716
  0
LINE
  8
0
 10
101.481
 20
-177.716
 11
102.827
 21
-177.12
  0
LINE
  8
0
 10
102.827
 20
-177.12
 11
104.142
 21
-176.458
  0
LINE
  8
0
 10
104.142
 20
-176.458
 11
105.423
 21
-175.732
  0
LINE
  8
0
 10
105.423
 20
-175.732
 11
106.667
 21
-174.944
  0
LINE
  8
0
 10
106.667
 20
-174.944
 11
107.871
 21
-174.096
  0
LINE
  8
0
 10
107.871
 20
-174.096
 11
109.032
 21
-173.19
  0
LINE
  8
0
 10
109.032
 20
-173.19
 11
110.147
 21
-172.229
  0
LINE
  8
0
 10
110.147
 20
-172.229
 11
111.213
 21
-171.213
  0
LINE
  8
0
 10
111.213
 20
-171.213
 11
112.229
 21
-170.147
  0
LINE
  8
0
 10
112.229
 20
-170.147
 11
113.19
 21
-169.032
  0
LINE
  8
0
 10
113.19
 20
-169.032
 11
114.096
 21
-167.871
  0
LINE
  8
0
 10
114.096
 20
-167.871
 11
114.944
 21
-166.667
  0
LINE
  8
0
 10
114.944
 20
-166.667
 11
115.732
 21
-165.423
  0
LINE
  8
0
 10
115.732
 20
-165.423
 11
116.458
 21
-164.142
  0
LINE
  8
0
 10
116.458
 20
-164.142
 11
117.12
 21
-162.827
  0
LINE
  8
0
 10
117.12
 20
-162.827
 11
117.716
 21
-161.481
  0
LINE
  8
0
 10
117.716
 20
-161.481
 11
118.246
 21
-160.107
  0
LINE
  8
0
 10
118.246
 20
-160.107
 11
118.708
 21
-158.709
  0
LINE
  8
0
 10
118.708
 20
-158.709
 11
119.101
 21
-157.289
  0
LINE
  8
0
 10
119.101
 20
-157.289
 11
119.424
 21
-155.853
  0
LINE
  8
0
 10
119.424
 20
-155.853
 11
119.675
 21
-154.402
  0
LINE
  8
0
 10
119.675
 20
-154.402
 11
119.856
 21
-152.941
  0
LINE
  8
0
 10
119.856
 20
-152.941
 11
119.964
 21
-151.472
  0
LINE
  8
0
 10
119.964
 20
-151.472
 11
120
 21
-150
  0
LINE
  8
0
 10
120
 20
-150
 11
120
 21
150
  0
LINE
  8
0
 10
120
 20
150
 11
119.978
 21
150.911
  0
LINE
  8
0
 10
119.978
 20
150.911
 11
31.08
 21
99.5858
  0
LINE
  8
0
 10
31.08
 20
99.5858
 11
16.88
 21
124.181
  0
LINE
  8
0
 10
16.88
 20
124.181
 11
43.1927
 21
139.373
  0
LINE
  8
0
 10
43.1927
 20
139.373
 11
40.1927
 21
144.569
  0
LINE
  8
0
 10
40.1927
 20
144.569
 11
29.3833
 21
138.328
  0
LINE
  8
0
 10
29.3833
 20
138.328
 11
5.32389
 21
180
  0
LINE
  8
0
 10
5.32389
 20
180
 11
-5.32389
 21
180
  0
LINE
  8
0
 10
-5.32389
 20
180
 11
-29.3833
 21
138.328
  0
LINE
  8
0
 10
-29.3833
 20
138.328
 11
-40.1927
 21
144.569
  0
LINE
  8
0
 10
-40.1927
 20
144.569
 11
-43.1927
 21
139.373
  0
LINE
  8
0
 10
-43.1927
 20
139.373
 11
-16.88
 21
124.181
  0
LINE
  8
0
 10
-16.88
 20
124.181
 11
-31.08
 21
99.5858
  0
LINE
  8
0
 10
-31.08
 20
99.5858
 11
-119.978
 21
150.911
  0
LINE
  8
0
 10
-119.978
 20
150.911
 11
-120
 21
150
  0
LINE
  8
0
 10
-120
 20
150
 11
-120
 21
-150
  0
LINE
  8
0
 10
-2.5
 20
0
 11
-2.3097
 21
0.956708
  0
LINE
  8
0
 10
-2.3097
 20
0.956708
 11
-1.76777
 21
1.76777
  0
LINE
  8
0
 10
-1.76777
 20
1.76777
 11
-0.956708
 21
2.3097
  0
LINE
  8
0
 10
-0.956708
 20
2.3097
 11
0
 21
2.5
  0
LINE
  8
0
 10
0
 20
2.5
 11
0.956708
 21
2.3097
  0
LINE
  8
0
 10
0.956708
 20
2.3097
 11
1.76777
 21
1.76777
  0
LINE
  8
0
 10
1.76777
 20
1.76777
 11
2.3097
 21
0.956708
  0
LINE
  8
0
 10
2.3097
 20
0.956708
 11
2.5
 21
0
  0
LINE
  8
0
 10
2.5
 20
0
 11
2.3097
 21
-0.956708
  0
LINE
  8
0
 10
2.3097
 20
-0.956708
 11
1.76777
 21
-1.76777
  0
LINE
  8
0
 10
1.76777
 20
-1.76777
 11
0.956708
 21
-2.3097
  0
LINE
  8
0
 10
0.956708
 20
-2.3097
 11
0
 21
-2.5
  0
LINE
  8
0
 10
0
 20
-2.5
 11
-0.956708
 21
-2.3097
  0
LINE
  8
0
 10
-0.956708
 20
-2.3097
 11
-1.76777
 21
-1.76777
  0
LINE
  8
0
 10
-1.76777
 20
-1.76777
 11
-2.3097
 21
-0.956708
  0
LINE
  8
0
 10
-2.3097
 20
-0.956708
 11
-2.5
 21
0
  0
LINE
  8
0
 10
54.5667
 20
-18.215
 11
54.5667
 21
18.215
  0
LINE
  8
0
 10
54.5667
 20
18.215
 11
54.7292
 21
19.1891
  0
LINE
  8
0
 10
54.7292
 20
19.1891
 11
55.1992
 21
20.0576
  0
LINE
  8
0
 10
55.1992
 20
20.0576
 11
55.9258
 21
20.7265
  0
LINE
  8
0
 10
55.9258
 20
20.7265
 11
56.8302
 21
21.1232
  0
LINE
  8
0
 10
56.8302
 20
21.1232
 11
57.5667
 21
21.1842
  0
LINE
  8
0
 10
57.5667
 20
21.1842
 11
57.5667
 21
21.215
  0
LINE
  8
0
 10
57.5667
 20
21.215
 11
93.9967
 21
21.215
  0
LINE
  8
0
 10
93.9967
 20
21.215
 11
93.9967
 21
21.1842
  0
LINE
  8
0
 10
93.9967
 20
21.1842
 11
94.2444
 21
21.2048
  0
LINE
  8
0
 10
94.2444
 20
21.2048
 11
95.2018
 21
20.9623
  0
LINE
  8
0
 10
95.2018
 20
20.9623
 11
96.0285
 21
20.4222
  0
LINE
  8
0
 10
96.0285
 20
20.4222
 11
96.6351
 21
19.6428
  0
LINE
  8
0
 10
96.6351
 20
19.6428
 11
96.9558
 21
18.7088
  0
LINE
  8
0
 10
96.9558
 20
18.7088
 11
96.9558
 21
18.215
  0
LINE
  8
0
 10
96.9558
 20
18.215
 11
96.9967
 21
18.215
  0
LINE
  8
0
 10
96.9967
 20
18.215
 11
96.9967
 21
-18.215
  0
LINE
  8
0
 10
96.9967
 20
-18.215
 11
96.9558
 21
-18.215
  0
LINE
  8
0
 10
96.9558
 20
-18.215
 11
96.9558
 21
-18.7088
  0
LINE
  8
0
 10
96.9558
 20
-18.7088
 11
96.6351
 21
-19.6428
  0
LINE
  8
0
 10
96.6351
 20
-19.6428
 11
96.0285
 21
-20.4222
  0
LINE
  8
0
 10
96.0285
 20
-20.4222
 11
95.2018
 21
-20.9623
  0
LINE
  8
0
 10
95.2018
 20
-20.9623
 11
94.2444
 21
-21.2048
  0
LINE
  8
0
 10
94.2444
 20
-21.2048
 11
93.9967
 21
-21.1842
  0
LINE
  8
0
 10
93.9967
 20
-21.1842
 11
93.9967
 21
-21.215
  0
LINE
  8
0
 10
93.9967
 20
-21.215
 11
57.5667
 21
-21.215
  0
LINE
  8
0
 10
57.5667
 20
-21.215
 11
57.5667
 21
-21.1842
  0
LINE
  8
0
 10
57.5667
 20
-21.1842
 11
56.8302
 21
-21.1232
  0
LINE
  8
0
 10
56.8302
 20
-21.1232
 11
55.9258
 21
-20.7265
  0
LINE
  8
0
 10
55.9258
 20
-20.7265
 11
55.1992
 21
-20.0576
  0
LINE
  8
0
 10
55.1992
 20
-20.0576
 11
54.7292
 21
-19.1891
  0
LINE
  8
0
 10
54.7292
 20
-19.1891
 11
54.5667
 21
-18.215
  0
LINE
  8
0
 10
-105.779
 20
175.507
 11
-58.3193
 21
148.106
  0
LINE
  8
0
 10
-58.3193
 20
148.106
 11
-55.3193
 21
153.302
  0
LINE
  8
0
 10
-55.3193
 20
153.302
 11
-66.1288
 21
159.543
  0
LINE
  8
0
 10
-66.1288
 20
159.543
 11
-54.3178
 21
180
  0
LINE
  8
0
 10
-54.3178
 20
180
 11
-90
 21
180
  0
LINE
  8
0
 10
-90
 20
180
 11
-91.472
 21
179.964
  0
LINE
  8
0
 10
-91.472
 20
179.964
 11
-92.9405
 21
179.856
  0
LINE
  8
0
 10
-92.9405
 20
179.856
 11
-94.4019
 21
179.675
  0
LINE
  8
0
 10
-94.4019
 20
179.675
 11
-95.8527
 21
179.424
  0
LINE
  8
0
 10
-95.8527
 20
179.424
 11
-97.2894
 21
179.101
  0
LINE
  8
0
 10
-97.2894
 20
179.101
 11
-98.7085
 21
178.708
  0
LINE
  8
0
 10
-98.7085
 20
178.708
 11
-100.107
 21
178.246
  0
LINE
  8
0
 10
-100.107
 20
178.246
 11
-101.481
 21
177.716
  0
LINE
  8
0
 10
-101.481
 20
177.716
 11
-102.827
 21
177.12
  0
LINE
  8
0
 10
-102.827
 20
177.12
 11
-104.142
 21
176.458
  0
LINE
  8
0
 10
-104.142
 20
176.458
 11
-105.423
 21
175.732
  0
LINE
  8
0
 10
-105.423
 20
175.732
 11
-105.779
 21
175.507
  0
LINE
  8
0
 10
54.3178
 20
180
 11
66.1288
 21
159.543
  0
LINE
  8
0
 10
66.1288
 20
159.543
 11
55.3193
 21
153.302
  0
LINE
  8
0
 10
55.3193
 20
153.302
 11
58.3193
 21
148.106
  0
LINE
  8
0
 10
58.3193
 20
148.106
 11
105.779
 21
175.507
  0
LINE
  8
0
 10
105.779
 20
175.507
 11
105.423
 21
175.732
  0
LINE
  8
0
 10
105.423
 20
175.732
 11
104.142
 21
176.458
  0
LINE
  8
0
 10
104.142
 20
176.458
 11
102.827
 21
177.12
  0
LINE
  8
0
 10
102.827
 20
177.12
 11
101.481
 21
177.716
  0
LINE
  8
0
 10
101.481
 20
177.716
 11
100.107
 21
178.246
  0
LINE
  8
0
 10
100.107
 20
178.246
 11
98.7085
 21
178.708
  0
LINE
  8
0
 10
98.7085
 20
178.708
 11
97.2894
 21
179.101
  0
LINE
  8
0
 10
97.2894
 20
179.101
 11
95.8527
 21
179.424
  0
LINE
  8
0
 10
95.8527
 20
179.424
 11
94.4019
 21
179.675
  0
LINE
  8
0
 10
94.4019
 20
179.675
 11
92.9405
 21
179.856
  0
LINE
  8
0
 10
92.9405
 20
179.856
 11
91.472
 21
179.964
  0
LINE
  8
0
 10
91.472
 20
179.964
 11
90
 21
180
  0
LINE
  8
0
 10
90
 20
180
 11
54.3178
 21
180
  0
ENDSEC
  0
SECTION
  2
OBJECTS
  0
DICTIONARY
  0
ENDSEC
  0
EOF
