  0
SECTION
  2
BLOCKS
  0
ENDSEC
  0
SECTION
  2
ENTITIES
  0
LINE
  8
0
 10
-120
 20
-150
 11
-119.964
 21
-151.472
  0
LINE
  8
0
 10
-119.964
 20
-151.472
 11
-119.856
 21
-152.941
  0
LINE
  8
0
 10
-119.856
 20
-152.941
 11
-119.675
 21
-154.402
  0
LINE
  8
0
 10
-119.675
 20
-154.402
 11
-119.424
 21
-155.853
  0
LINE
  8
0
 10
-119.424
 20
-155.853
 11
-119.101
 21
-157.289
  0
LINE
  8
0
 10
-119.101
 20
-157.289
 11
-118.708
 21
-158.709
  0
LINE
  8
0
 10
-118.708
 20
-158.709
 11
-118.246
 21
-160.107
  0
LINE
  8
0
 10
-118.246
 20
-160.107
 11
-117.716
 21
-161.481
  0
LINE
  8
0
 10
-117.716
 20
-161.481
 11
-117.12
 21
-162.827
  0
LINE
  8
0
 10
-117.12
 20
-162.827
 11
-116.458
 21
-164.142
  0
LINE
  8
0
 10
-116.458
 20
-164.142
 11
-115.732
 21
-165.423
  0
LINE
  8
0
 10
-115.732
 20
-165.423
 11
-114.944
 21
-166.667
  0
LINE
  8
0
 10
-114.944
 20
-166.667
 11
-114.096
 21
-167.871
  0
LINE
  8
0
 10
-114.096
 20
-167.871
 11
-113.19
 21
-169.032
  0
LINE
  8
0
 10
-113.19
 20
-169.032
 11
-112.229
 21
-170.147
  0
LINE
  8
0
 10
-112.229
 20
-170.147
 11
-111.213
 21
-171.213
  0
LINE
  8
0
 10
-111.213
 20
-171.213
 11
-110.147
 21
-172.229
  0
LINE
  8
0
 10
-110.147
 20
-172.229
 11
-109.032
 21
-173.19
  0
LINE
  8
0
 10
-109.032
 20
-173.19
 11
-107.871
 21
-174.096
  0
LINE
  8
0
 10
-107.871
 20
-174.096
 11
-106.667
 21
-174.944
  0
LINE
  8
0
 10
-106.667
 20
-174.944
 11
-105.423
 21
-175.732
  0
LINE
  8
0
 10
-105.423
 20
-175.732
 11
-104.142
 21
-176.458
  0
LINE
  8
0
 10
-104.142
 20
-176.458
 11
-102.827
 21
-177.12
  0
LINE
  8
0
 10
-102.827
 20
-177.12
 11
-101.481
 21
-177.716
  0
LINE
  8
0
 10
-101.481
 20
-177.716
 11
-100.107
 21
-178.246
  0
LINE
  8
0
 10
-100.107
 20
-178.246
 11
-98.7085
 21
-178.708
  0
LINE
  8
0
 10
-98.7085
 20
-178.708
 11
-97.2894
 21
-179.101
  0
LINE
  8
0
 10
-97.2894
 20
-179.101
 11
-95.8527
 21
-179.424
  0
LINE
  8
0
 10
-95.8527
 20
-179.424
 11
-94.4019
 21
-179.675
  0
LINE
  8
0
 10
-94.4019
 20
-179.675
 11
-92.9405
 21
-179.856
  0
LINE
  8
0
 10
-92.9405
 20
-179.856
 11
-91.472
 21
-179.964
  0
LINE
  8
0
 10
-91.472
 20
-179.964
 11
-90
 21
-180
  0
LINE
  8
0
 10
-90
 20
-180
 11
-90
 21
-180
  0
LINE
  8
0
 10
-90
 20
-180
 11
-90
 21
-180
  0
LINE
  8
0
 10
-90
 20
-180
 11
90
 21
-180
  0
LINE
  8
0
 10
90
 20
-180
 11
91.472
 21
-179.964
  0
LINE
  8
0
 10
91.472
 20
-179.964
 11
92.9405
 21
-179.856
  0
LINE
  8
0
 10
92.9405
 20
-179.856
 11
94.4019
 21
-179.675
  0
LINE
  8
0
 10
94.4019
 20
-179.675
 11
95.8527
 21
-179.424
  0
LINE
  8
0
 10
95.8527
 20
-179.424
 11
97.2894
 21
-179.101
  0
LINE
  8
0
 10
97.2894
 20
-179.101
 11
98.7085
 21
-178.708
  0
LINE
  8
0
 10
98.7085
 20
-178.708
 11
100.107
 21
-178.246
  0
LINE
  8
0
 10
100.107
 20
-178.246
 11
101.481
 21
-177.716
  0
LINE
  8
0
 10
101.481
 20
-177.716
 11
102.827
 21
-177.12
  0
LINE
  8
0
 10
102.827
 20
-177.12
 11
104.142
 21
-176.458
  0
LINE
  8
0
 10
104.142
 20
-176.458
 11
105.423
 21
-175.732
  0
LINE
  8
0
 10
105.423
 20
-175.732
 11
106.667
 21
-174.944
  0
LINE
  8
0
 10
106.667
 20
-174.944
 11
107.871
 21
-174.096
  0
LINE
  8
0
 10
107.871
 20
-174.096
 11
109.032
 21
-173.19
  0
LINE
  8
0
 10
109.032
 20
-173.19
 11
110.147
 21
-172.229
  0
LINE
  8
0
 10
110.147
 20
-172.229
 11
111.213
 21
-171.213
  0
LINE
  8
0
 10
111.213
 20
-171.213
 11
112.229
 21
-170.147
  0
LINE
  8
0
 10
112.229
 20
-170.147
 11
113.19
 21
-169.032
  0
LINE
  8
0
 10
113.19
 20
-169.032
 11
114.096
 21
-167.871
  0
LINE
  8
0
 10
114.096
 20
-167.871
 11
114.944
 21
-166.667
  0
LINE
  8
0
 10
114.944
 20
-166.667
 11
115.732
 21
-165.423
  0
LINE
  8
0
 10
115.732
 20
-165.423
 11
116.458
 21
-164.142
  0
LINE
  8
0
 10
116.458
 20
-164.142
 11
117.12
 21
-162.827
  0
LINE
  8
0
 10
117.12
 20
-162.827
 11
117.716
 21
-161.481
  0
LINE
  8
0
 10
117.716
 20
-161.481
 11
118.246
 21
-160.107
  0
LINE
  8
0
 10
118.246
 20
-160.107
 11
118.708
 21
-158.709
  0
LINE
  8
0
 10
118.708
 20
-158.709
 11
119.101
 21
-157.289
  0
LINE
  8
0
 10
119.101
 20
-157.289
 11
119.424
 21
-155.853
  0
LINE
  8
0
 10
119.424
 20
-155.853
 11
119.675
 21
-154.402
  0
LINE
  8
0
 10
119.675
 20
-154.402
 11
119.856
 21
-152.941
  0
LINE
  8
0
 10
119.856
 20
-152.941
 11
119.964
 21
-151.472
  0
LINE
  8
0
 10
119.964
 20
-151.472
 11
120
 21
-150
  0
LINE
  8
0
 10
120
 20
-150
 11
120
 21
150
  0
LINE
  8
0
 10
120
 20
150
 11
119.964
 21
151.472
  0
LINE
  8
0
 10
119.964
 20
151.472
 11
119.856
 21
152.941
  0
LINE
  8
0
 10
119.856
 20
152.941
 11
119.675
 21
154.402
  0
LINE
  8
0
 10
119.675
 20
154.402
 11
119.424
 21
155.853
  0
LINE
  8
0
 10
119.424
 20
155.853
 11
119.101
 21
157.289
  0
LINE
  8
0
 10
119.101
 20
157.289
 11
118.708
 21
158.709
  0
LINE
  8
0
 10
118.708
 20
158.709
 11
118.246
 21
160.107
  0
LINE
  8
0
 10
118.246
 20
160.107
 11
117.716
 21
161.481
  0
LINE
  8
0
 10
117.716
 20
161.481
 11
117.12
 21
162.827
  0
LINE
  8
0
 10
117.12
 20
162.827
 11
116.458
 21
164.142
  0
LINE
  8
0
 10
116.458
 20
164.142
 11
115.732
 21
165.423
  0
LINE
  8
0
 10
115.732
 20
165.423
 11
114.944
 21
166.667
  0
LINE
  8
0
 10
114.944
 20
166.667
 11
114.096
 21
167.871
  0
LINE
  8
0
 10
114.096
 20
167.871
 11
113.19
 21
169.032
  0
LINE
  8
0
 10
113.19
 20
169.032
 11
112.229
 21
170.147
  0
LINE
  8
0
 10
112.229
 20
170.147
 11
111.213
 21
171.213
  0
LINE
  8
0
 10
111.213
 20
171.213
 11
110.147
 21
172.229
  0
LINE
  8
0
 10
110.147
 20
172.229
 11
109.032
 21
173.19
  0
LINE
  8
0
 10
109.032
 20
173.19
 11
107.871
 21
174.096
  0
LINE
  8
0
 10
107.871
 20
174.096
 11
106.667
 21
174.944
  0
LINE
  8
0
 10
106.667
 20
174.944
 11
105.423
 21
175.732
  0
LINE
  8
0
 10
105.423
 20
175.732
 11
104.142
 21
176.458
  0
LINE
  8
0
 10
104.142
 20
176.458
 11
102.827
 21
177.12
  0
LINE
  8
0
 10
102.827
 20
177.12
 11
101.481
 21
177.716
  0
LINE
  8
0
 10
101.481
 20
177.716
 11
100.107
 21
178.246
  0
LINE
  8
0
 10
100.107
 20
178.246
 11
98.7085
 21
178.708
  0
LINE
  8
0
 10
98.7085
 20
178.708
 11
97.2894
 21
179.101
  0
LINE
  8
0
 10
97.2894
 20
179.101
 11
95.8527
 21
179.424
  0
LINE
  8
0
 10
95.8527
 20
179.424
 11
94.4019
 21
179.675
  0
LINE
  8
0
 10
94.4019
 20
179.675
 11
92.9405
 21
179.856
  0
LINE
  8
0
 10
92.9405
 20
179.856
 11
91.472
 21
179.964
  0
LINE
  8
0
 10
91.472
 20
179.964
 11
90
 21
180
  0
LINE
  8
0
 10
90
 20
180
 11
53.8757
 21
180
  0
LINE
  8
0
 10
53.8757
 20
180
 11
65.7972
 21
159.351
  0
LINE
  8
0
 10
65.7972
 20
159.351
 11
55.3193
 21
153.302
  0
LINE
  8
0
 10
55.3193
 20
153.302
 11
69.5443
 21
128.664
  0
LINE
  8
0
 10
69.5443
 20
128.664
 11
54.4177
 21
119.93
  0
LINE
  8
0
 10
54.4177
 20
119.93
 11
40.1927
 21
144.569
  0
LINE
  8
0
 10
40.1927
 20
144.569
 11
29.7149
 21
138.519
  0
LINE
  8
0
 10
29.7149
 20
138.519
 11
5.76597
 21
180
  0
LINE
  8
0
 10
5.76597
 20
180
 11
-5.76597
 21
180
  0
LINE
  8
0
 10
-5.76597
 20
180
 11
-29.7149
 21
138.519
  0
LINE
  8
0
 10
-29.7149
 20
138.519
 11
-40.1927
 21
144.569
  0
LINE
  8
0
 10
-40.1927
 20
144.569
 11
-54.4177
 21
119.93
  0
LINE
  8
0
 10
-54.4177
 20
119.93
 11
-69.5443
 21
128.664
  0
LINE
  8
0
 10
-69.5443
 20
128.664
 11
-55.3193
 21
153.302
  0
LINE
  8
0
 10
-55.3193
 20
153.302
 11
-65.7972
 21
159.351
  0
LINE
  8
0
 10
-65.7972
 20
159.351
 11
-53.8757
 21
180
  0
LINE
  8
0
 10
-53.8757
 20
180
 11
-90
 21
180
  0
LINE
  8
0
 10
-90
 20
180
 11
-91.472
 21
179.964
  0
LINE
  8
0
 10
-91.472
 20
179.964
 11
-92.9405
 21
179.856
  0
LINE
  8
0
 10
-92.9405
 20
179.856
 11
-94.4019
 21
179.675
  0
LINE
  8
0
 10
-94.4019
 20
179.675
 11
-95.8527
 21
179.424
  0
LINE
  8
0
 10
-95.8527
 20
179.424
 11
-97.2894
 21
179.101
  0
LINE
  8
0
 10
-97.2894
 20
179.101
 11
-98.7085
 21
178.708
  0
LINE
  8
0
 10
-98.7085
 20
178.708
 11
-100.107
 21
178.246
  0
LINE
  8
0
 10
-100.107
 20
178.246
 11
-101.481
 21
177.716
  0
LINE
  8
0
 10
-101.481
 20
177.716
 11
-102.827
 21
177.12
  0
LINE
  8
0
 10
-102.827
 20
177.12
 11
-104.142
 21
176.458
  0
LINE
  8
0
 10
-104.142
 20
176.458
 11
-105.423
 21
175.732
  0
LINE
  8
0
 10
-105.423
 20
175.732
 11
-106.667
 21
174.944
  0
LINE
  8
0
 10
-106.667
 20
174.944
 11
-107.871
 21
174.096
  0
LINE
  8
0
 10
-107.871
 20
174.096
 11
-109.032
 21
173.19
  0
LINE
  8
0
 10
-109.032
 20
173.19
 11
-110.147
 21
172.229
  0
LINE
  8
0
 10
-110.147
 20
172.229
 11
-111.213
 21
171.213
  0
LINE
  8
0
 10
-111.213
 20
171.213
 11
-112.229
 21
170.147
  0
LINE
  8
0
 10
-112.229
 20
170.147
 11
-113.19
 21
169.032
  0
LINE
  8
0
 10
-113.19
 20
169.032
 11
-114.096
 21
167.871
  0
LINE
  8
0
 10
-114.096
 20
167.871
 11
-114.944
 21
166.667
  0
LINE
  8
0
 10
-114.944
 20
166.667
 11
-115.732
 21
165.423
  0
LINE
  8
0
 10
-115.732
 20
165.423
 11
-116.458
 21
164.142
  0
LINE
  8
0
 10
-116.458
 20
164.142
 11
-117.12
 21
162.827
  0
LINE
  8
0
 10
-117.12
 20
162.827
 11
-117.716
 21
161.481
  0
LINE
  8
0
 10
-117.716
 20
161.481
 11
-118.246
 21
160.107
  0
LINE
  8
0
 10
-118.246
 20
160.107
 11
-118.708
 21
158.709
  0
LINE
  8
0
 10
-118.708
 20
158.709
 11
-119.101
 21
157.289
  0
LINE
  8
0
 10
-119.101
 20
157.289
 11
-119.424
 21
155.853
  0
LINE
  8
0
 10
-119.424
 20
155.853
 11
-119.675
 21
154.402
  0
LINE
  8
0
 10
-119.675
 20
154.402
 11
-119.856
 21
152.941
  0
LINE
  8
0
 10
-119.856
 20
152.941
 11
-119.964
 21
151.472
  0
LINE
  8
0
 10
-119.964
 20
151.472
 11
-120
 21
150
  0
LINE
  8
0
 10
-120
 20
150
 11
-120
 21
-150
  0
LINE
  8
0
 10
-69.8137
 20
146.659
 11
-66.3137
 21
152.721
  0
LINE
  8
0
 10
-66.3137
 20
152.721
 11
-61.9835
 21
150.221
  0
LINE
  8
0
 10
-61.9835
 20
150.221
 11
-65.4835
 21
144.159
  0
LINE
  8
0
 10
-65.4835
 20
144.159
 11
-69.8137
 21
146.659
  0
LINE
  8
0
 10
-43.0285
 20
131.195
 11
-39.5285
 21
137.257
  0
LINE
  8
0
 10
-39.5285
 20
137.257
 11
-35.1984
 21
134.757
  0
LINE
  8
0
 10
-35.1984
 20
134.757
 11
-38.6984
 21
128.695
  0
LINE
  8
0
 10
-38.6984
 20
128.695
 11
-43.0285
 21
131.195
  0
LINE
  8
0
 10
-8.25
 20
-136.617
 11
-8.25
 21
-119.15
  0
LINE
  8
0
 10
-8.25
 20
-119.15
 11
20.2
 21
-119.15
  0
LINE
  8
0
 10
20.2
 20
-119.15
 11
20.2
 21
-107.051
  0
LINE
  8
0
 10
20.2
 20
-107.051
 11
90.2
 21
-107.051
  0
LINE
  8
0
 10
90.2
 20
-107.051
 11
90.2
 21
-148.715
  0
LINE
  8
0
 10
90.2
 20
-148.715
 11
20.2
 21
-148.715
  0
LINE
  8
0
 10
20.2
 20
-148.715
 11
20.2
 21
-136.617
  0
LINE
  8
0
 10
20.2
 20
-136.617
 11
-8.25
 21
-136.617
  0
LINE
  8
0
 10
-2.5
 20
0
 11
-2.3097
 21
0.956708
  0
LINE
  8
0
 10
-2.3097
 20
0.956708
 11
-1.76777
 21
1.76777
  0
LINE
  8
0
 10
-1.76777
 20
1.76777
 11
-0.956708
 21
2.3097
  0
LINE
  8
0
 10
-0.956708
 20
2.3097
 11
0
 21
2.5
  0
LINE
  8
0
 10
0
 20
2.5
 11
0.956708
 21
2.3097
  0
LINE
  8
0
 10
0.956708
 20
2.3097
 11
1.76777
 21
1.76777
  0
LINE
  8
0
 10
1.76777
 20
1.76777
 11
2.3097
 21
0.956708
  0
LINE
  8
0
 10
2.3097
 20
0.956708
 11
2.5
 21
0
  0
LINE
  8
0
 10
2.5
 20
0
 11
2.3097
 21
-0.956708
  0
LINE
  8
0
 10
2.3097
 20
-0.956708
 11
1.76777
 21
-1.76777
  0
LINE
  8
0
 10
1.76777
 20
-1.76777
 11
0.956708
 21
-2.3097
  0
LINE
  8
0
 10
0.956708
 20
-2.3097
 11
0
 21
-2.5
  0
LINE
  8
0
 10
0
 20
-2.5
 11
-0.956708
 21
-2.3097
  0
LINE
  8
0
 10
-0.956708
 20
-2.3097
 11
-1.76777
 21
-1.76777
  0
LINE
  8
0
 10
-1.76777
 20
-1.76777
 11
-2.3097
 21
-0.956708
  0
LINE
  8
0
 10
-2.3097
 20
-0.956708
 11
-2.5
 21
0
  0
LINE
  8
0
 10
7.2
 20
-145.848
 11
7.2
 21
-140.848
  0
LINE
  8
0
 10
7.2
 20
-140.848
 11
14.2
 21
-140.848
  0
LINE
  8
0
 10
14.2
 20
-140.848
 11
14.2
 21
-145.848
  0
LINE
  8
0
 10
14.2
 20
-145.848
 11
7.2
 21
-145.848
  0
LINE
  8
0
 10
7.2
 20
-114.919
 11
7.2
 21
-109.919
  0
LINE
  8
0
 10
7.2
 20
-109.919
 11
14.2
 21
-109.919
  0
LINE
  8
0
 10
14.2
 20
-109.919
 11
14.2
 21
-114.919
  0
LINE
  8
0
 10
14.2
 20
-114.919
 11
7.2
 21
-114.919
  0
LINE
  8
0
 10
35.1984
 20
134.757
 11
39.5285
 21
137.257
  0
LINE
  8
0
 10
39.5285
 20
137.257
 11
43.0285
 21
131.195
  0
LINE
  8
0
 10
43.0285
 20
131.195
 11
38.6984
 21
128.695
  0
LINE
  8
0
 10
38.6984
 20
128.695
 11
35.1984
 21
134.757
  0
LINE
  8
0
 10
54.5667
 20
-18.215
 11
54.5667
 21
18.215
  0
LINE
  8
0
 10
54.5667
 20
18.215
 11
54.7292
 21
19.1891
  0
LINE
  8
0
 10
54.7292
 20
19.1891
 11
55.1992
 21
20.0576
  0
LINE
  8
0
 10
55.1992
 20
20.0576
 11
55.9258
 21
20.7265
  0
LINE
  8
0
 10
55.9258
 20
20.7265
 11
56.8302
 21
21.1232
  0
LINE
  8
0
 10
56.8302
 20
21.1232
 11
57.5667
 21
21.1842
  0
LINE
  8
0
 10
57.5667
 20
21.1842
 11
57.5667
 21
21.215
  0
LINE
  8
0
 10
57.5667
 20
21.215
 11
93.9967
 21
21.215
  0
LINE
  8
0
 10
93.9967
 20
21.215
 11
93.9967
 21
21.1842
  0
LINE
  8
0
 10
93.9967
 20
21.1842
 11
94.2444
 21
21.2048
  0
LINE
  8
0
 10
94.2444
 20
21.2048
 11
95.2018
 21
20.9623
  0
LINE
  8
0
 10
95.2018
 20
20.9623
 11
96.0285
 21
20.4222
  0
LINE
  8
0
 10
96.0285
 20
20.4222
 11
96.6351
 21
19.6428
  0
LINE
  8
0
 10
96.6351
 20
19.6428
 11
96.9558
 21
18.7088
  0
LINE
  8
0
 10
96.9558
 20
18.7088
 11
96.9558
 21
18.215
  0
LINE
  8
0
 10
96.9558
 20
18.215
 11
96.9967
 21
18.215
  0
LINE
  8
0
 10
96.9967
 20
18.215
 11
96.9967
 21
-18.215
  0
LINE
  8
0
 10
96.9967
 20
-18.215
 11
96.9558
 21
-18.215
  0
LINE
  8
0
 10
96.9558
 20
-18.215
 11
96.9558
 21
-18.7088
  0
LINE
  8
0
 10
96.9558
 20
-18.7088
 11
96.6351
 21
-19.6428
  0
LINE
  8
0
 10
96.6351
 20
-19.6428
 11
96.0285
 21
-20.4222
  0
LINE
  8
0
 10
96.0285
 20
-20.4222
 11
95.2018
 21
-20.9623
  0
LINE
  8
0
 10
95.2018
 20
-20.9623
 11
94.2444
 21
-21.2048
  0
LINE
  8
0
 10
94.2444
 20
-21.2048
 11
93.9967
 21
-21.1842
  0
LINE
  8
0
 10
93.9967
 20
-21.1842
 11
93.9967
 21
-21.215
  0
LINE
  8
0
 10
93.9967
 20
-21.215
 11
57.5667
 21
-21.215
  0
LINE
  8
0
 10
57.5667
 20
-21.215
 11
57.5667
 21
-21.1842
  0
LINE
  8
0
 10
57.5667
 20
-21.1842
 11
56.8302
 21
-21.1232
  0
LINE
  8
0
 10
56.8302
 20
-21.1232
 11
55.9258
 21
-20.7265
  0
LINE
  8
0
 10
55.9258
 20
-20.7265
 11
55.1992
 21
-20.0576
  0
LINE
  8
0
 10
55.1992
 20
-20.0576
 11
54.7292
 21
-19.1891
  0
LINE
  8
0
 10
54.7292
 20
-19.1891
 11
54.5667
 21
-18.215
  0
LINE
  8
0
 10
61.9835
 20
150.221
 11
66.3137
 21
152.721
  0
LINE
  8
0
 10
66.3137
 20
152.721
 11
69.8137
 21
146.659
  0
LINE
  8
0
 10
69.8137
 20
146.659
 11
65.4835
 21
144.159
  0
LINE
  8
0
 10
65.4835
 20
144.159
 11
61.9835
 21
150.221
  0
ENDSEC
  0
SECTION
  2
OBJECTS
  0
DICTIONARY
  0
ENDSEC
  0
EOF
