<?xml version="1.0" standalone="no"?>
<!DOCTYPE svg PUBLIC "-//W3C//DTD SVG 1.1//EN" "http://www.w3.org/Graphics/SVG/1.1/DTD/svg11.dtd">
<svg width="240" height="360" viewBox="-120 -180 240 360" xmlns="http://www.w3.org/2000/svg" version="1.1">
<title>OpenSCAD Model</title>
<path d="
M -120,150 L -119.964,151.472 L -119.856,152.941 L -119.675,154.402 L -119.424,155.853 L -119.101,157.289
 L -118.708,158.709 L -118.246,160.107 L -117.716,161.481 L -117.12,162.827 L -116.458,164.142 L -115.732,165.423
 L -114.944,166.667 L -114.096,167.871 L -113.19,169.032 L -112.229,170.147 L -111.213,171.213 L -110.147,172.229
 L -109.032,173.19 L -107.871,174.096 L -106.667,174.944 L -105.423,175.732 L -104.142,176.458 L -102.827,177.12
 L -101.481,177.716 L -100.107,178.246 L -98.7085,178.708 L -97.2894,179.101 L -95.8527,179.424 L -94.4019,179.675
 L -92.9405,179.856 L -91.472,179.964 L -90,180 L -90,180 L -90,180 L -14.2,180
 L -14.2,167.5 L -22.4,167.5 L -22.4,162.5 L -14.2,162.5 L -14.2,88.7667 L 14.2,88.7667
 L 14.2,162.5 L 22.4,162.5 L 22.4,167.5 L 14.2,167.5 L 14.2,180 L 90,180
 L 91.472,179.964 L 92.9405,179.856 L 94.4019,179.675 L 95.8527,179.424 L 97.2894,179.101 L 98.7085,178.708
 L 100.107,178.246 L 101.481,177.716 L 102.827,177.12 L 104.142,176.458 L 105.423,175.732 L 106.667,174.944
 L 107.871,174.096 L 109.032,173.19 L 110.147,172.229 L 111.213,171.213 L 112.229,170.147 L 113.19,169.032
 L 114.096,167.871 L 114.944,166.667 L 115.732,165.423 L 116.458,164.142 L 117.12,162.827 L 117.716,161.481
 L 118.246,160.107 L 118.708,158.709 L 119.101,157.289 L 119.424,155.853 L 119.675,154.402 L 119.856,152.941
 L 119.964,151.472 L 120,150 L 120,-150 L 119.978,-150.911 L 99.2651,-138.952 L 103.365,-131.851
 L 99.0349,-129.351 L 94.9349,-136.452 L 31.08,-99.5858 L 16.88,-124.181 L 80.7349,-161.048 L 76.6349,-168.149
 L 80.9651,-170.649 L 85.0651,-163.548 L 105.779,-175.507 L 105.423,-175.732 L 104.142,-176.458 L 102.827,-177.12
 L 101.481,-177.716 L 100.107,-178.246 L 98.7085,-178.708 L 97.2894,-179.101 L 95.8527,-179.424 L 94.4019,-179.675
 L 92.9405,-179.856 L 91.472,-179.964 L 90,-180 L -90,-180 L -91.472,-179.964 L -92.9405,-179.856
 L -94.4019,-179.675 L -95.8527,-179.424 L -97.2894,-179.101 L -98.7085,-178.708 L -100.107,-178.246 L -101.481,-177.716
 L -102.827,-177.12 L -104.142,-176.458 L -105.423,-175.732 L -105.779,-175.507 L -85.0651,-163.548 L -80.9651,-170.649
 L -76.6349,-168.149 L -80.7349,-161.048 L -16.88,-124.181 L -31.08,-99.5858 L -94.9349,-136.452 L -99.0349,-129.351
 L -103.365,-131.851 L -99.2651,-138.952 L -119.978,-150.911 L -120,-150 z
M -77.7028,40.1237 L -76.6237,9.66647 L -76.6525,9.45418 L -76.8614,7.57019 L -77.0241,5.68164 L -77.1403,3.78966
 L -77.2101,1.8954 L -77.2333,-0 L -77.2101,-1.8954 L -77.1403,-3.78966 L -77.0241,-5.68164 L -76.8614,-7.57019
 L -76.6525,-9.45418 L -76.3974,-11.3325 L -76.0963,-13.204 L -75.7493,-15.0675 L -75.3567,-16.9219 L -74.9187,-18.7662
 L -74.4356,-20.5991 L -73.9077,-22.4197 L -73.3352,-24.2267 L -72.7186,-26.0191 L -72.0581,-27.7959 L -71.3543,-29.5559
 L -70.6075,-31.2981 L -69.8181,-33.0215 L -68.9867,-34.725 L -68.1137,-36.4075 L -67.1997,-38.0682 L -66.2452,-39.7059
 L -65.2509,-41.3196 L -64.2172,-42.9085 L -63.1448,-44.4716 L -62.0344,-46.0078 L -60.8866,-47.5164 L -59.7022,-48.9963
 L -58.4818,-50.4467 L -57.2261,-51.8667 L -55.936,-53.2555 L -54.6122,-54.6122 L -53.2555,-55.936 L -51.8667,-57.2261
 L -50.4467,-58.4818 L -48.9963,-59.7022 L -47.5164,-60.8866 L -46.0078,-62.0344 L -44.4716,-63.1448 L -42.9085,-64.2172
 L -41.3196,-65.2509 L -39.7059,-66.2452 L -38.0682,-67.1997 L -36.4075,-68.1137 L -34.725,-68.9867 L -33.0215,-69.8181
 L -31.2981,-70.6075 L -29.5559,-71.3543 L -27.7959,-72.0581 L -26.0191,-72.7186 L -24.2267,-73.3352 L -22.4197,-73.9077
 L -20.5991,-74.4356 L -18.7662,-74.9187 L -16.9219,-75.3567 L -15.0675,-75.7493 L -13.204,-76.0963 L -11.3325,-76.3974
 L -9.45418,-76.6525 L -7.57019,-76.8614 L -5.68164,-77.0241 L -3.78966,-77.1403 L -1.8954,-77.2101 L 0,-77.2333
 L 1.8954,-77.2101 L 3.78966,-77.1403 L 5.68164,-77.0241 L 7.57019,-76.8614 L 9.45418,-76.6525 L 11.3325,-76.3974
 L 13.204,-76.0963 L 14.3257,-75.8874 L 1.82272,-83.709 L 1.21199,-84.2842 L 0.867836,-85.0492 L 0.842646,-85.8877
 L 1.14026,-86.672 L 1.71536,-87.2828 L 2.4804,-87.6269 L 3.31891,-87.6521 L 4.10324,-87.3545 L 29.9496,-71.1855
 L 31.2981,-70.6075 L 33.0215,-69.8181 L 34.725,-68.9867 L 36.4075,-68.1137 L 38.0682,-67.1997 L 39.7059,-66.2452
 L 41.3196,-65.2509 L 42.9085,-64.2172 L 44.4716,-63.1448 L 46.0078,-62.0344 L 47.5164,-60.8866 L 48.9963,-59.7022
 L 50.4467,-58.4818 L 51.8667,-57.2261 L 53.2555,-55.936 L 54.6122,-54.6122 L 55.936,-53.2555 L 57.2261,-51.8667
 L 58.4818,-50.4467 L 59.7022,-48.9963 L 60.8866,-47.5164 L 62.0344,-46.0078 L 63.1448,-44.4716 L 64.2172,-42.9085
 L 65.2509,-41.3196 L 66.2452,-39.7059 L 67.1997,-38.0682 L 68.1137,-36.4075 L 68.9867,-34.725 L 69.8181,-33.0215
 L 70.6075,-31.2981 L 71.3543,-29.5559 L 72.0581,-27.7959 L 72.7186,-26.0191 L 73.3352,-24.2267 L 73.9077,-22.4197
 L 74.4356,-20.5991 L 74.9187,-18.7662 L 75.3567,-16.9219 L 75.7493,-15.0675 L 76.0963,-13.204 L 76.3974,-11.3325
 L 76.6525,-9.45418 L 76.8614,-7.57019 L 77.0241,-5.68164 L 77.1403,-3.78966 L 77.2101,-1.8954 L 77.2333,-0
 L 77.2101,1.8954 L 77.1403,3.78966 L 77.0241,5.68164 L 76.8614,7.57019 L 76.6525,9.45418 L 76.3974,11.3325
 L 76.0963,13.204 L 75.7493,15.0675 L 75.3567,16.9219 L 74.9187,18.7662 L 74.4356,20.5991 L 73.9077,22.4197
 L 73.3352,24.2267 L 72.7186,26.0191 L 72.0581,27.7959 L 71.3543,29.5559 L 70.6075,31.2981 L 69.8181,33.0215
 L 68.9867,34.725 L 68.1137,36.4075 L 67.1997,38.0682 L 66.2452,39.7059 L 65.2509,41.3196 L 64.2172,42.9085
 L 63.1448,44.4716 L 62.0344,46.0078 L 60.8866,47.5164 L 59.7022,48.9963 L 58.5674,50.3449 L 71.5828,43.433
 L 72.3862,43.1917 L 73.2208,43.2762 L 73.9596,43.6736 L 74.49,44.3235 L 74.7314,45.1269 L 74.6469,45.9615
 L 74.2495,46.7003 L 73.5996,47.2308 L 46.6646,61.5347 L 46.0078,62.0344 L 44.4716,63.1448 L 42.9085,64.2172
 L 41.3196,65.2509 L 39.7059,66.2452 L 38.0682,67.1997 L 36.4075,68.1137 L 34.725,68.9867 L 33.0215,69.8181
 L 31.2981,70.6075 L 29.5559,71.3543 L 27.7959,72.0581 L 26.0191,72.7186 L 24.2267,73.3352 L 22.4197,73.9077
 L 20.5991,74.4356 L 18.7662,74.9187 L 16.9219,75.3567 L 15.0675,75.7493 L 13.204,76.0963 L 11.3325,76.3974
 L 9.45418,76.6525 L 7.57019,76.8614 L 5.68164,77.0241 L 3.78966,77.1403 L 1.8954,77.2101 L 0,77.2333
 L -1.8954,77.2101 L -3.78966,77.1403 L -5.68164,77.0241 L -7.57019,76.8614 L -9.45418,76.6525 L -11.3325,76.3974
 L -13.204,76.0963 L -15.0675,75.7493 L -16.9219,75.3567 L -18.7662,74.9187 L -20.5991,74.4356 L -22.4197,73.9077
 L -24.2267,73.3352 L -26.0191,72.7186 L -27.7959,72.0581 L -29.5559,71.3543 L -31.2981,70.6075 L -33.0215,69.8181
 L -34.725,68.9867 L -36.4075,68.1137 L -38.0682,67.1997 L -39.7059,66.2452 L -41.3196,65.2509 L -42.9085,64.2172
 L -44.4716,63.1448 L -46.0078,62.0344 L -47.5164,60.8866 L -48.9963,59.7022 L -50.4467,58.4818 L -51.8667,57.2261
 L -53.2555,55.936 L -54.6122,54.6122 L -55.936,53.2555 L -57.2261,51.8667 L -58.4818,50.4467 L -59.7022,48.9963
 L -60.8866,47.5164 L -62.0344,46.0078 L -63.1448,44.4716 L -64.2172,42.9085 L -65.2509,41.3196 L -66.2452,39.7059
 L -67.1997,38.0682 L -68.1137,36.4075 L -68.9867,34.725 L -69.8181,33.0215 L -70.6075,31.2981 L -71.3543,29.5559
 L -72.0581,27.7959 L -72.7186,26.0191 L -72.8834,25.54 L -73.4055,40.276 L -73.5982,41.0925 L -74.0887,41.773
 L -74.8023,42.2141 L -75.6303,42.3485 L -76.4468,42.1558 L -77.1273,41.6654 L -77.5684,40.9518 z
M 81.2461,17.9644 L 81.2461,12.9644 L 91.2461,12.9644 L 91.2461,13.768 L 91.4951,13.7322 L 92.3921,14.1419
 L 92.9252,14.9714 L 92.9252,15.9575 L 92.3921,16.787 L 91.4951,17.1966 L 91.2461,17.1608 L 91.2461,17.9644
 z
M 81.2461,-12.9644 L 81.2461,-17.9644 L 91.2461,-17.9644 L 91.2461,-17.1608 L 91.4951,-17.1966 L 92.3921,-16.787
 L 92.9252,-15.9575 L 92.9252,-14.9714 L 92.3921,-14.1419 L 91.4951,-13.7322 L 91.2461,-13.768 L 91.2461,-12.9644
 z
" stroke="black" fill="lightgray" stroke-width="0.5"/></svg>
