  0
SECTION
  2
BLOCKS
  0
ENDSEC
  0
SECTION
  2
ENTITIES
  0
LINE
  8
0
 10
-125
 20
-150
 11
-124.964
 21
-151.472
  0
LINE
  8
0
 10
-124.964
 20
-151.472
 11
-124.856
 21
-152.941
  0
LINE
  8
0
 10
-124.856
 20
-152.941
 11
-124.675
 21
-154.402
  0
LINE
  8
0
 10
-124.675
 20
-154.402
 11
-124.424
 21
-155.853
  0
LINE
  8
0
 10
-124.424
 20
-155.853
 11
-124.101
 21
-157.289
  0
LINE
  8
0
 10
-124.101
 20
-157.289
 11
-123.708
 21
-158.709
  0
LINE
  8
0
 10
-123.708
 20
-158.709
 11
-123.246
 21
-160.107
  0
LINE
  8
0
 10
-123.246
 20
-160.107
 11
-122.716
 21
-161.481
  0
LINE
  8
0
 10
-122.716
 20
-161.481
 11
-122.12
 21
-162.827
  0
LINE
  8
0
 10
-122.12
 20
-162.827
 11
-121.458
 21
-164.142
  0
LINE
  8
0
 10
-121.458
 20
-164.142
 11
-120.732
 21
-165.423
  0
LINE
  8
0
 10
-120.732
 20
-165.423
 11
-119.944
 21
-166.667
  0
LINE
  8
0
 10
-119.944
 20
-166.667
 11
-119.096
 21
-167.871
  0
LINE
  8
0
 10
-119.096
 20
-167.871
 11
-118.19
 21
-169.032
  0
LINE
  8
0
 10
-118.19
 20
-169.032
 11
-117.229
 21
-170.147
  0
LINE
  8
0
 10
-117.229
 20
-170.147
 11
-116.213
 21
-171.213
  0
LINE
  8
0
 10
-116.213
 20
-171.213
 11
-115.147
 21
-172.229
  0
LINE
  8
0
 10
-115.147
 20
-172.229
 11
-114.032
 21
-173.19
  0
LINE
  8
0
 10
-114.032
 20
-173.19
 11
-112.871
 21
-174.096
  0
LINE
  8
0
 10
-112.871
 20
-174.096
 11
-111.667
 21
-174.944
  0
LINE
  8
0
 10
-111.667
 20
-174.944
 11
-110.423
 21
-175.732
  0
LINE
  8
0
 10
-110.423
 20
-175.732
 11
-109.142
 21
-176.458
  0
LINE
  8
0
 10
-109.142
 20
-176.458
 11
-107.827
 21
-177.12
  0
LINE
  8
0
 10
-107.827
 20
-177.12
 11
-106.481
 21
-177.716
  0
LINE
  8
0
 10
-106.481
 20
-177.716
 11
-105.107
 21
-178.246
  0
LINE
  8
0
 10
-105.107
 20
-178.246
 11
-103.709
 21
-178.708
  0
LINE
  8
0
 10
-103.709
 20
-178.708
 11
-102.289
 21
-179.101
  0
LINE
  8
0
 10
-102.289
 20
-179.101
 11
-100.853
 21
-179.424
  0
LINE
  8
0
 10
-100.853
 20
-179.424
 11
-99.4019
 21
-179.675
  0
LINE
  8
0
 10
-99.4019
 20
-179.675
 11
-97.9405
 21
-179.856
  0
LINE
  8
0
 10
-97.9405
 20
-179.856
 11
-96.472
 21
-179.964
  0
LINE
  8
0
 10
-96.472
 20
-179.964
 11
-95
 21
-180
  0
LINE
  8
0
 10
-95
 20
-180
 11
-95
 21
-180
  0
LINE
  8
0
 10
-95
 20
-180
 11
-95
 21
-180
  0
LINE
  8
0
 10
-95
 20
-180
 11
-14.65
 21
-180
  0
LINE
  8
0
 10
-14.65
 20
-180
 11
-14.65
 21
-88.7667
  0
LINE
  8
0
 10
-14.65
 20
-88.7667
 11
14.65
 21
-88.7667
  0
LINE
  8
0
 10
14.65
 20
-88.7667
 11
14.65
 21
-180
  0
LINE
  8
0
 10
14.65
 20
-180
 11
95
 21
-180
  0
LINE
  8
0
 10
95
 20
-180
 11
96.472
 21
-179.964
  0
LINE
  8
0
 10
96.472
 20
-179.964
 11
97.9405
 21
-179.856
  0
LINE
  8
0
 10
97.9405
 20
-179.856
 11
99.4019
 21
-179.675
  0
LINE
  8
0
 10
99.4019
 20
-179.675
 11
100.853
 21
-179.424
  0
LINE
  8
0
 10
100.853
 20
-179.424
 11
102.289
 21
-179.101
  0
LINE
  8
0
 10
102.289
 20
-179.101
 11
103.709
 21
-178.708
  0
LINE
  8
0
 10
103.709
 20
-178.708
 11
105.107
 21
-178.246
  0
LINE
  8
0
 10
105.107
 20
-178.246
 11
106.481
 21
-177.716
  0
LINE
  8
0
 10
106.481
 20
-177.716
 11
107.827
 21
-177.12
  0
LINE
  8
0
 10
107.827
 20
-177.12
 11
109.142
 21
-176.458
  0
LINE
  8
0
 10
109.142
 20
-176.458
 11
110.423
 21
-175.732
  0
LINE
  8
0
 10
110.423
 20
-175.732
 11
111.667
 21
-174.944
  0
LINE
  8
0
 10
111.667
 20
-174.944
 11
112.871
 21
-174.096
  0
LINE
  8
0
 10
112.871
 20
-174.096
 11
114.032
 21
-173.19
  0
LINE
  8
0
 10
114.032
 20
-173.19
 11
115.147
 21
-172.229
  0
LINE
  8
0
 10
115.147
 20
-172.229
 11
116.213
 21
-171.213
  0
LINE
  8
0
 10
116.213
 20
-171.213
 11
117.229
 21
-170.147
  0
LINE
  8
0
 10
117.229
 20
-170.147
 11
118.19
 21
-169.032
  0
LINE
  8
0
 10
118.19
 20
-169.032
 11
119.096
 21
-167.871
  0
LINE
  8
0
 10
119.096
 20
-167.871
 11
119.944
 21
-166.667
  0
LINE
  8
0
 10
119.944
 20
-166.667
 11
120.732
 21
-165.423
  0
LINE
  8
0
 10
120.732
 20
-165.423
 11
121.458
 21
-164.142
  0
LINE
  8
0
 10
121.458
 20
-164.142
 11
122.12
 21
-162.827
  0
LINE
  8
0
 10
122.12
 20
-162.827
 11
122.716
 21
-161.481
  0
LINE
  8
0
 10
122.716
 20
-161.481
 11
123.246
 21
-160.107
  0
LINE
  8
0
 10
123.246
 20
-160.107
 11
123.708
 21
-158.709
  0
LINE
  8
0
 10
123.708
 20
-158.709
 11
124.101
 21
-157.289
  0
LINE
  8
0
 10
124.101
 20
-157.289
 11
124.424
 21
-155.853
  0
LINE
  8
0
 10
124.424
 20
-155.853
 11
124.675
 21
-154.402
  0
LINE
  8
0
 10
124.675
 20
-154.402
 11
124.856
 21
-152.941
  0
LINE
  8
0
 10
124.856
 20
-152.941
 11
124.964
 21
-151.472
  0
LINE
  8
0
 10
124.964
 20
-151.472
 11
125
 21
-150
  0
LINE
  8
0
 10
125
 20
-150
 11
125
 21
150
  0
LINE
  8
0
 10
125
 20
150
 11
124.99
 21
150.398
  0
LINE
  8
0
 10
124.99
 20
150.398
 11
36.305
 21
99.1961
  0
LINE
  8
0
 10
36.305
 20
99.1961
 11
21.655
 21
124.571
  0
LINE
  8
0
 10
21.655
 20
124.571
 11
110.345
 21
175.776
  0
LINE
  8
0
 10
110.345
 20
175.776
 11
109.142
 21
176.458
  0
LINE
  8
0
 10
109.142
 20
176.458
 11
107.827
 21
177.12
  0
LINE
  8
0
 10
107.827
 20
177.12
 11
106.481
 21
177.716
  0
LINE
  8
0
 10
106.481
 20
177.716
 11
105.107
 21
178.246
  0
LINE
  8
0
 10
105.107
 20
178.246
 11
103.709
 21
178.708
  0
LINE
  8
0
 10
103.709
 20
178.708
 11
102.289
 21
179.101
  0
LINE
  8
0
 10
102.289
 20
179.101
 11
100.853
 21
179.424
  0
LINE
  8
0
 10
100.853
 20
179.424
 11
99.4019
 21
179.675
  0
LINE
  8
0
 10
99.4019
 20
179.675
 11
97.9405
 21
179.856
  0
LINE
  8
0
 10
97.9405
 20
179.856
 11
96.472
 21
179.964
  0
LINE
  8
0
 10
96.472
 20
179.964
 11
95
 21
180
  0
LINE
  8
0
 10
95
 20
180
 11
-95
 21
180
  0
LINE
  8
0
 10
-95
 20
180
 11
-96.472
 21
179.964
  0
LINE
  8
0
 10
-96.472
 20
179.964
 11
-97.9405
 21
179.856
  0
LINE
  8
0
 10
-97.9405
 20
179.856
 11
-99.4019
 21
179.675
  0
LINE
  8
0
 10
-99.4019
 20
179.675
 11
-100.853
 21
179.424
  0
LINE
  8
0
 10
-100.853
 20
179.424
 11
-102.289
 21
179.101
  0
LINE
  8
0
 10
-102.289
 20
179.101
 11
-103.709
 21
178.708
  0
LINE
  8
0
 10
-103.709
 20
178.708
 11
-105.107
 21
178.246
  0
LINE
  8
0
 10
-105.107
 20
178.246
 11
-106.481
 21
177.716
  0
LINE
  8
0
 10
-106.481
 20
177.716
 11
-107.827
 21
177.12
  0
LINE
  8
0
 10
-107.827
 20
177.12
 11
-109.142
 21
176.458
  0
LINE
  8
0
 10
-109.142
 20
176.458
 11
-110.345
 21
175.776
  0
LINE
  8
0
 10
-110.345
 20
175.776
 11
-21.655
 21
124.571
  0
LINE
  8
0
 10
-21.655
 20
124.571
 11
-36.305
 21
99.1961
  0
LINE
  8
0
 10
-36.305
 20
99.1961
 11
-124.99
 21
150.398
  0
LINE
  8
0
 10
-124.99
 20
150.398
 11
-125
 21
150
  0
LINE
  8
0
 10
-125
 20
150
 11
-125
 21
-150
  0
LINE
  8
0
 10
-96.5875
 20
-150
 11
-96.5799
 21
-149.844
  0
LINE
  8
0
 10
-96.5799
 20
-149.844
 11
-96.557
 21
-149.69
  0
LINE
  8
0
 10
-96.557
 20
-149.69
 11
-96.5191
 21
-149.539
  0
LINE
  8
0
 10
-96.5191
 20
-149.539
 11
-96.4667
 21
-149.392
  0
LINE
  8
0
 10
-96.4667
 20
-149.392
 11
-96.4001
 21
-149.252
  0
LINE
  8
0
 10
-96.4001
 20
-149.252
 11
-96.32
 21
-149.118
  0
LINE
  8
0
 10
-96.32
 20
-149.118
 11
-96.2272
 21
-148.993
  0
LINE
  8
0
 10
-96.2272
 20
-148.993
 11
-96.1225
 21
-148.877
  0
LINE
  8
0
 10
-96.1225
 20
-148.877
 11
-96.0071
 21
-148.773
  0
LINE
  8
0
 10
-96.0071
 20
-148.773
 11
-95.882
 21
-148.68
  0
LINE
  8
0
 10
-95.882
 20
-148.68
 11
-95.7483
 21
-148.6
  0
LINE
  8
0
 10
-95.7483
 20
-148.6
 11
-95.6075
 21
-148.533
  0
LINE
  8
0
 10
-95.6075
 20
-148.533
 11
-95.4608
 21
-148.481
  0
LINE
  8
0
 10
-95.4608
 20
-148.481
 11
-95.3097
 21
-148.443
  0
LINE
  8
0
 10
-95.3097
 20
-148.443
 11
-95.1556
 21
-148.42
  0
LINE
  8
0
 10
-95.1556
 20
-148.42
 11
-95
 21
-148.413
  0
LINE
  8
0
 10
-95
 20
-148.413
 11
-94.8444
 21
-148.42
  0
LINE
  8
0
 10
-94.8444
 20
-148.42
 11
-94.6903
 21
-148.443
  0
LINE
  8
0
 10
-94.6903
 20
-148.443
 11
-94.5392
 21
-148.481
  0
LINE
  8
0
 10
-94.5392
 20
-148.481
 11
-94.3925
 21
-148.533
  0
LINE
  8
0
 10
-94.3925
 20
-148.533
 11
-94.2517
 21
-148.6
  0
LINE
  8
0
 10
-94.2517
 20
-148.6
 11
-94.118
 21
-148.68
  0
LINE
  8
0
 10
-94.118
 20
-148.68
 11
-93.9929
 21
-148.773
  0
LINE
  8
0
 10
-93.9929
 20
-148.773
 11
-93.8775
 21
-148.877
  0
LINE
  8
0
 10
-93.8775
 20
-148.877
 11
-93.7728
 21
-148.993
  0
LINE
  8
0
 10
-93.7728
 20
-148.993
 11
-93.68
 21
-149.118
  0
LINE
  8
0
 10
-93.68
 20
-149.118
 11
-93.6
 21
-149.252
  0
LINE
  8
0
 10
-93.6
 20
-149.252
 11
-93.5333
 21
-149.392
  0
LINE
  8
0
 10
-93.5333
 20
-149.392
 11
-93.4809
 21
-149.539
  0
LINE
  8
0
 10
-93.4809
 20
-149.539
 11
-93.443
 21
-149.69
  0
LINE
  8
0
 10
-93.443
 20
-149.69
 11
-93.4201
 21
-149.844
  0
LINE
  8
0
 10
-93.4201
 20
-149.844
 11
-93.4125
 21
-150
  0
LINE
  8
0
 10
-93.4125
 20
-150
 11
-93.4201
 21
-150.156
  0
LINE
  8
0
 10
-93.4201
 20
-150.156
 11
-93.443
 21
-150.31
  0
LINE
  8
0
 10
-93.443
 20
-150.31
 11
-93.4809
 21
-150.461
  0
LINE
  8
0
 10
-93.4809
 20
-150.461
 11
-93.5333
 21
-150.608
  0
LINE
  8
0
 10
-93.5333
 20
-150.608
 11
-93.6
 21
-150.748
  0
LINE
  8
0
 10
-93.6
 20
-150.748
 11
-93.68
 21
-150.882
  0
LINE
  8
0
 10
-93.68
 20
-150.882
 11
-93.7728
 21
-151.007
  0
LINE
  8
0
 10
-93.7728
 20
-151.007
 11
-93.8775
 21
-151.123
  0
LINE
  8
0
 10
-93.8775
 20
-151.123
 11
-93.9929
 21
-151.227
  0
LINE
  8
0
 10
-93.9929
 20
-151.227
 11
-94.118
 21
-151.32
  0
LINE
  8
0
 10
-94.118
 20
-151.32
 11
-94.2517
 21
-151.4
  0
LINE
  8
0
 10
-94.2517
 20
-151.4
 11
-94.3925
 21
-151.467
  0
LINE
  8
0
 10
-94.3925
 20
-151.467
 11
-94.5392
 21
-151.519
  0
LINE
  8
0
 10
-94.5392
 20
-151.519
 11
-94.6903
 21
-151.557
  0
LINE
  8
0
 10
-94.6903
 20
-151.557
 11
-94.8444
 21
-151.58
  0
LINE
  8
0
 10
-94.8444
 20
-151.58
 11
-95
 21
-151.588
  0
LINE
  8
0
 10
-95
 20
-151.588
 11
-95.1556
 21
-151.58
  0
LINE
  8
0
 10
-95.1556
 20
-151.58
 11
-95.3097
 21
-151.557
  0
LINE
  8
0
 10
-95.3097
 20
-151.557
 11
-95.4608
 21
-151.519
  0
LINE
  8
0
 10
-95.4608
 20
-151.519
 11
-95.6075
 21
-151.467
  0
LINE
  8
0
 10
-95.6075
 20
-151.467
 11
-95.7483
 21
-151.4
  0
LINE
  8
0
 10
-95.7483
 20
-151.4
 11
-95.882
 21
-151.32
  0
LINE
  8
0
 10
-95.882
 20
-151.32
 11
-96.0071
 21
-151.227
  0
LINE
  8
0
 10
-96.0071
 20
-151.227
 11
-96.1225
 21
-151.123
  0
LINE
  8
0
 10
-96.1225
 20
-151.123
 11
-96.2272
 21
-151.007
  0
LINE
  8
0
 10
-96.2272
 20
-151.007
 11
-96.32
 21
-150.882
  0
LINE
  8
0
 10
-96.32
 20
-150.882
 11
-96.4001
 21
-150.748
  0
LINE
  8
0
 10
-96.4001
 20
-150.748
 11
-96.4667
 21
-150.608
  0
LINE
  8
0
 10
-96.4667
 20
-150.608
 11
-96.5191
 21
-150.461
  0
LINE
  8
0
 10
-96.5191
 20
-150.461
 11
-96.557
 21
-150.31
  0
LINE
  8
0
 10
-96.557
 20
-150.31
 11
-96.5799
 21
-150.156
  0
LINE
  8
0
 10
-96.5799
 20
-150.156
 11
-96.5875
 21
-150
  0
LINE
  8
0
 10
-85.1456
 20
-53.06
 11
-85.0953
 21
-52.6317
  0
LINE
  8
0
 10
-85.0953
 20
-52.6317
 11
-84.9625
 21
-52.2214
  0
LINE
  8
0
 10
-84.9625
 20
-52.2214
 11
-72.4836
 21
-23.6104
  0
LINE
  8
0
 10
-72.4836
 20
-23.6104
 11
-72.6737
 21
-23.0229
  0
LINE
  8
0
 10
-72.6737
 20
-23.0229
 11
-72.9508
 21
-22.1294
  0
LINE
  8
0
 10
-72.9508
 20
-22.1294
 11
-73.2168
 21
-21.2325
  0
LINE
  8
0
 10
-73.2168
 20
-21.2325
 11
-73.4719
 21
-20.3324
  0
LINE
  8
0
 10
-73.4719
 20
-20.3324
 11
-73.7158
 21
-19.4293
  0
LINE
  8
0
 10
-73.7158
 20
-19.4293
 11
-73.9487
 21
-18.5232
  0
LINE
  8
0
 10
-73.9487
 20
-18.5232
 11
-74.1705
 21
-17.6143
  0
LINE
  8
0
 10
-74.1705
 20
-17.6143
 11
-74.381
 21
-16.7028
  0
LINE
  8
0
 10
-74.381
 20
-16.7028
 11
-74.5804
 21
-15.7888
  0
LINE
  8
0
 10
-74.5804
 20
-15.7888
 11
-74.7685
 21
-14.8724
  0
LINE
  8
0
 10
-74.7685
 20
-14.8724
 11
-74.9454
 21
-13.9537
  0
LINE
  8
0
 10
-74.9454
 20
-13.9537
 11
-75.111
 21
-13.033
  0
LINE
  8
0
 10
-75.111
 20
-13.033
 11
-75.2653
 21
-12.1103
  0
LINE
  8
0
 10
-75.2653
 20
-12.1103
 11
-75.4082
 21
-11.1858
  0
LINE
  8
0
 10
-75.4082
 20
-11.1858
 11
-75.5398
 21
-10.2595
  0
LINE
  8
0
 10
-75.5398
 20
-10.2595
 11
-75.66
 21
-9.33177
  0
LINE
  8
0
 10
-75.66
 20
-9.33177
 11
-75.7688
 21
-8.40261
  0
LINE
  8
0
 10
-75.7688
 20
-8.40261
 11
-75.8662
 21
-7.47217
  0
LINE
  8
0
 10
-75.8662
 20
-7.47217
 11
-75.9522
 21
-6.54062
  0
LINE
  8
0
 10
-75.9522
 20
-6.54062
 11
-76.0268
 21
-5.60807
  0
LINE
  8
0
 10
-76.0268
 20
-5.60807
 11
-76.0899
 21
-4.67468
  0
LINE
  8
0
 10
-76.0899
 20
-4.67468
 11
-76.1415
 21
-3.74059
  0
LINE
  8
0
 10
-76.1415
 20
-3.74059
 11
-76.1817
 21
-2.80594
  0
LINE
  8
0
 10
-76.1817
 20
-2.80594
 11
-76.2104
 21
-1.87086
  0
LINE
  8
0
 10
-76.2104
 20
-1.87086
 11
-76.2276
 21
-0.9355
  0
LINE
  8
0
 10
-76.2276
 20
-0.9355
 11
-76.2333
 21
0
  0
LINE
  8
0
 10
-76.2333
 20
0
 11
-76.2276
 21
0.9355
  0
LINE
  8
0
 10
-76.2276
 20
0.9355
 11
-76.2104
 21
1.87086
  0
LINE
  8
0
 10
-76.2104
 20
1.87086
 11
-76.1817
 21
2.80594
  0
LINE
  8
0
 10
-76.1817
 20
2.80594
 11
-76.1415
 21
3.74059
  0
LINE
  8
0
 10
-76.1415
 20
3.74059
 11
-76.0899
 21
4.67468
  0
LINE
  8
0
 10
-76.0899
 20
4.67468
 11
-76.0268
 21
5.60807
  0
LINE
  8
0
 10
-76.0268
 20
5.60807
 11
-75.9522
 21
6.54062
  0
LINE
  8
0
 10
-75.9522
 20
6.54062
 11
-75.8662
 21
7.47217
  0
LINE
  8
0
 10
-75.8662
 20
7.47217
 11
-75.7688
 21
8.40261
  0
LINE
  8
0
 10
-75.7688
 20
8.40261
 11
-75.66
 21
9.33177
  0
LINE
  8
0
 10
-75.66
 20
9.33177
 11
-75.5398
 21
10.2595
  0
LINE
  8
0
 10
-75.5398
 20
10.2595
 11
-75.4082
 21
11.1858
  0
LINE
  8
0
 10
-75.4082
 20
11.1858
 11
-75.2653
 21
12.1103
  0
LINE
  8
0
 10
-75.2653
 20
12.1103
 11
-75.111
 21
13.033
  0
LINE
  8
0
 10
-75.111
 20
13.033
 11
-74.9454
 21
13.9537
  0
LINE
  8
0
 10
-74.9454
 20
13.9537
 11
-74.7685
 21
14.8724
  0
LINE
  8
0
 10
-74.7685
 20
14.8724
 11
-74.5804
 21
15.7888
  0
LINE
  8
0
 10
-74.5804
 20
15.7888
 11
-74.381
 21
16.7028
  0
LINE
  8
0
 10
-74.381
 20
16.7028
 11
-74.1705
 21
17.6143
  0
LINE
  8
0
 10
-74.1705
 20
17.6143
 11
-73.9487
 21
18.5232
  0
LINE
  8
0
 10
-73.9487
 20
18.5232
 11
-73.7158
 21
19.4293
  0
LINE
  8
0
 10
-73.7158
 20
19.4293
 11
-73.4719
 21
20.3324
  0
LINE
  8
0
 10
-73.4719
 20
20.3324
 11
-73.2168
 21
21.2325
  0
LINE
  8
0
 10
-73.2168
 20
21.2325
 11
-72.9508
 21
22.1294
  0
LINE
  8
0
 10
-72.9508
 20
22.1294
 11
-72.6737
 21
23.0229
  0
LINE
  8
0
 10
-72.6737
 20
23.0229
 11
-72.3857
 21
23.913
  0
LINE
  8
0
 10
-72.3857
 20
23.913
 11
-72.0868
 21
24.7995
  0
LINE
  8
0
 10
-72.0868
 20
24.7995
 11
-71.777
 21
25.6822
  0
LINE
  8
0
 10
-71.777
 20
25.6822
 11
-71.4565
 21
26.5611
  0
LINE
  8
0
 10
-71.4565
 20
26.5611
 11
-71.1252
 21
27.436
  0
LINE
  8
0
 10
-71.1252
 20
27.436
 11
-70.7831
 21
28.3067
  0
LINE
  8
0
 10
-70.7831
 20
28.3067
 11
-70.4304
 21
29.1732
  0
LINE
  8
0
 10
-70.4304
 20
29.1732
 11
-70.0671
 21
30.0353
  0
LINE
  8
0
 10
-70.0671
 20
30.0353
 11
-69.6933
 21
30.8929
  0
LINE
  8
0
 10
-69.6933
 20
30.8929
 11
-69.3089
 21
31.7458
  0
LINE
  8
0
 10
-69.3089
 20
31.7458
 11
-68.9141
 21
32.5939
  0
LINE
  8
0
 10
-68.9141
 20
32.5939
 11
-68.5089
 21
33.4372
  0
LINE
  8
0
 10
-68.5089
 20
33.4372
 11
-68.0935
 21
34.2754
  0
LINE
  8
0
 10
-68.0935
 20
34.2754
 11
-67.6677
 21
35.1084
  0
LINE
  8
0
 10
-67.6677
 20
35.1084
 11
-67.2318
 21
35.9361
  0
LINE
  8
0
 10
-67.2318
 20
35.9361
 11
-66.7857
 21
36.7585
  0
LINE
  8
0
 10
-66.7857
 20
36.7585
 11
-66.3296
 21
37.5753
  0
LINE
  8
0
 10
-66.3296
 20
37.5753
 11
-65.8635
 21
38.3864
  0
LINE
  8
0
 10
-65.8635
 20
38.3864
 11
-65.3875
 21
39.1918
  0
LINE
  8
0
 10
-65.3875
 20
39.1918
 11
-64.9016
 21
39.9912
  0
LINE
  8
0
 10
-64.9016
 20
39.9912
 11
-64.406
 21
40.7847
  0
LINE
  8
0
 10
-64.406
 20
40.7847
 11
-63.9007
 21
41.5719
  0
LINE
  8
0
 10
-63.9007
 20
41.5719
 11
-63.3857
 21
42.353
  0
LINE
  8
0
 10
-63.3857
 20
42.353
 11
-62.8612
 21
43.1276
  0
LINE
  8
0
 10
-62.8612
 20
43.1276
 11
-62.3272
 21
43.8958
  0
LINE
  8
0
 10
-62.3272
 20
43.8958
 11
-61.7839
 21
44.6573
  0
LINE
  8
0
 10
-61.7839
 20
44.6573
 11
-61.2312
 21
45.4121
  0
LINE
  8
0
 10
-61.2312
 20
45.4121
 11
-60.6693
 21
46.1601
  0
LINE
  8
0
 10
-60.6693
 20
46.1601
 11
-60.0983
 21
46.9012
  0
LINE
  8
0
 10
-60.0983
 20
46.9012
 11
-59.5182
 21
47.6351
  0
LINE
  8
0
 10
-59.5182
 20
47.6351
 11
-58.9292
 21
48.3619
  0
LINE
  8
0
 10
-58.9292
 20
48.3619
 11
-58.3313
 21
49.0814
  0
LINE
  8
0
 10
-58.3313
 20
49.0814
 11
-57.7246
 21
49.7935
  0
LINE
  8
0
 10
-57.7246
 20
49.7935
 11
-57.1092
 21
50.4982
  0
LINE
  8
0
 10
-57.1092
 20
50.4982
 11
-56.4852
 21
51.1952
  0
LINE
  8
0
 10
-56.4852
 20
51.1952
 11
-55.8527
 21
51.8845
  0
LINE
  8
0
 10
-55.8527
 20
51.8845
 11
-55.2118
 21
52.566
  0
LINE
  8
0
 10
-55.2118
 20
52.566
 11
-54.5625
 21
53.2395
  0
LINE
  8
0
 10
-54.5625
 20
53.2395
 11
-53.9051
 21
53.9051
  0
LINE
  8
0
 10
-53.9051
 20
53.9051
 11
-53.2395
 21
54.5625
  0
LINE
  8
0
 10
-53.2395
 20
54.5625
 11
-52.566
 21
55.2118
  0
LINE
  8
0
 10
-52.566
 20
55.2118
 11
-51.8845
 21
55.8527
  0
LINE
  8
0
 10
-51.8845
 20
55.8527
 11
-51.1952
 21
56.4852
  0
LINE
  8
0
 10
-51.1952
 20
56.4852
 11
-50.4982
 21
57.1092
  0
LINE
  8
0
 10
-50.4982
 20
57.1092
 11
-49.7935
 21
57.7246
  0
LINE
  8
0
 10
-49.7935
 20
57.7246
 11
-49.0814
 21
58.3313
  0
LINE
  8
0
 10
-49.0814
 20
58.3313
 11
-48.3619
 21
58.9292
  0
LINE
  8
0
 10
-48.3619
 20
58.9292
 11
-47.6351
 21
59.5182
  0
LINE
  8
0
 10
-47.6351
 20
59.5182
 11
-46.9012
 21
60.0983
  0
LINE
  8
0
 10
-46.9012
 20
60.0983
 11
-46.1601
 21
60.6693
  0
LINE
  8
0
 10
-46.1601
 20
60.6693
 11
-45.4121
 21
61.2312
  0
LINE
  8
0
 10
-45.4121
 20
61.2312
 11
-44.6573
 21
61.7839
  0
LINE
  8
0
 10
-44.6573
 20
61.7839
 11
-43.8958
 21
62.3272
  0
LINE
  8
0
 10
-43.8958
 20
62.3272
 11
-43.1276
 21
62.8612
  0
LINE
  8
0
 10
-43.1276
 20
62.8612
 11
-42.353
 21
63.3857
  0
LINE
  8
0
 10
-42.353
 20
63.3857
 11
-41.5719
 21
63.9007
  0
LINE
  8
0
 10
-41.5719
 20
63.9007
 11
-40.7847
 21
64.406
  0
LINE
  8
0
 10
-40.7847
 20
64.406
 11
-39.9912
 21
64.9016
  0
LINE
  8
0
 10
-39.9912
 20
64.9016
 11
-39.1918
 21
65.3875
  0
LINE
  8
0
 10
-39.1918
 20
65.3875
 11
-38.3864
 21
65.8635
  0
LINE
  8
0
 10
-38.3864
 20
65.8635
 11
-37.5753
 21
66.3296
  0
LINE
  8
0
 10
-37.5753
 20
66.3296
 11
-36.7585
 21
66.7857
  0
LINE
  8
0
 10
-36.7585
 20
66.7857
 11
-35.9361
 21
67.2318
  0
LINE
  8
0
 10
-35.9361
 20
67.2318
 11
-35.1084
 21
67.6677
  0
LINE
  8
0
 10
-35.1084
 20
67.6677
 11
-34.2754
 21
68.0935
  0
LINE
  8
0
 10
-34.2754
 20
68.0935
 11
-33.4372
 21
68.5089
  0
LINE
  8
0
 10
-33.4372
 20
68.5089
 11
-32.5939
 21
68.9141
  0
LINE
  8
0
 10
-32.5939
 20
68.9141
 11
-31.7458
 21
69.3089
  0
LINE
  8
0
 10
-31.7458
 20
69.3089
 11
-30.8929
 21
69.6933
  0
LINE
  8
0
 10
-30.8929
 20
69.6933
 11
-30.0353
 21
70.0671
  0
LINE
  8
0
 10
-30.0353
 20
70.0671
 11
-29.1732
 21
70.4304
  0
LINE
  8
0
 10
-29.1732
 20
70.4304
 11
-28.3067
 21
70.7831
  0
LINE
  8
0
 10
-28.3067
 20
70.7831
 11
-27.436
 21
71.1252
  0
LINE
  8
0
 10
-27.436
 20
71.1252
 11
-26.5611
 21
71.4565
  0
LINE
  8
0
 10
-26.5611
 20
71.4565
 11
-25.6822
 21
71.777
  0
LINE
  8
0
 10
-25.6822
 20
71.777
 11
-24.7995
 21
72.0868
  0
LINE
  8
0
 10
-24.7995
 20
72.0868
 11
-23.913
 21
72.3857
  0
LINE
  8
0
 10
-23.913
 20
72.3857
 11
-23.0229
 21
72.6737
  0
LINE
  8
0
 10
-23.0229
 20
72.6737
 11
-22.1294
 21
72.9508
  0
LINE
  8
0
 10
-22.1294
 20
72.9508
 11
-21.2325
 21
73.2168
  0
LINE
  8
0
 10
-21.2325
 20
73.2168
 11
-20.3324
 21
73.4719
  0
LINE
  8
0
 10
-20.3324
 20
73.4719
 11
-19.4293
 21
73.7158
  0
LINE
  8
0
 10
-19.4293
 20
73.7158
 11
-18.5232
 21
73.9487
  0
LINE
  8
0
 10
-18.5232
 20
73.9487
 11
-17.6143
 21
74.1705
  0
LINE
  8
0
 10
-17.6143
 20
74.1705
 11
-16.7028
 21
74.381
  0
LINE
  8
0
 10
-16.7028
 20
74.381
 11
-15.7888
 21
74.5804
  0
LINE
  8
0
 10
-15.7888
 20
74.5804
 11
-14.8724
 21
74.7685
  0
LINE
  8
0
 10
-14.8724
 20
74.7685
 11
-13.9537
 21
74.9454
  0
LINE
  8
0
 10
-13.9537
 20
74.9454
 11
-13.033
 21
75.111
  0
LINE
  8
0
 10
-13.033
 20
75.111
 11
-12.1103
 21
75.2653
  0
LINE
  8
0
 10
-12.1103
 20
75.2653
 11
-11.1858
 21
75.4082
  0
LINE
  8
0
 10
-11.1858
 20
75.4082
 11
-10.2595
 21
75.5398
  0
LINE
  8
0
 10
-10.2595
 20
75.5398
 11
-9.33177
 21
75.66
  0
LINE
  8
0
 10
-9.33177
 20
75.66
 11
-8.40261
 21
75.7688
  0
LINE
  8
0
 10
-8.40261
 20
75.7688
 11
-7.47217
 21
75.8662
  0
LINE
  8
0
 10
-7.47217
 20
75.8662
 11
-6.54062
 21
75.9522
  0
LINE
  8
0
 10
-6.54062
 20
75.9522
 11
-5.60807
 21
76.0268
  0
LINE
  8
0
 10
-5.60807
 20
76.0268
 11
-4.67468
 21
76.0899
  0
LINE
  8
0
 10
-4.67468
 20
76.0899
 11
-3.74059
 21
76.1415
  0
LINE
  8
0
 10
-3.74059
 20
76.1415
 11
-2.80594
 21
76.1817
  0
LINE
  8
0
 10
-2.80594
 20
76.1817
 11
-1.87086
 21
76.2104
  0
LINE
  8
0
 10
-1.87086
 20
76.2104
 11
-0.9355
 21
76.2276
  0
LINE
  8
0
 10
-0.9355
 20
76.2276
 11
0
 21
76.2333
  0
LINE
  8
0
 10
0
 20
76.2333
 11
0.9355
 21
76.2276
  0
LINE
  8
0
 10
0.9355
 20
76.2276
 11
1.87086
 21
76.2104
  0
LINE
  8
0
 10
1.87086
 20
76.2104
 11
2.80594
 21
76.1817
  0
LINE
  8
0
 10
2.80594
 20
76.1817
 11
3.74059
 21
76.1415
  0
LINE
  8
0
 10
3.74059
 20
76.1415
 11
4.67468
 21
76.0899
  0
LINE
  8
0
 10
4.67468
 20
76.0899
 11
5.60807
 21
76.0268
  0
LINE
  8
0
 10
5.60807
 20
76.0268
 11
6.54062
 21
75.9522
  0
LINE
  8
0
 10
6.54062
 20
75.9522
 11
7.47217
 21
75.8662
  0
LINE
  8
0
 10
7.47217
 20
75.8662
 11
8.40261
 21
75.7688
  0
LINE
  8
0
 10
8.40261
 20
75.7688
 11
9.33177
 21
75.66
  0
LINE
  8
0
 10
9.33177
 20
75.66
 11
9.54729
 21
75.6321
  0
LINE
  8
0
 10
9.54729
 20
75.6321
 11
-6.28371
 21
97.0771
  0
LINE
  8
0
 10
-6.28371
 20
97.0771
 11
-6.5046
 21
97.4475
  0
LINE
  8
0
 10
-6.5046
 20
97.4475
 11
-6.64899
 21
97.8539
  0
LINE
  8
0
 10
-6.64899
 20
97.8539
 11
-6.71133
 21
98.2807
  0
LINE
  8
0
 10
-6.71133
 20
98.2807
 11
-6.68921
 21
98.7114
  0
LINE
  8
0
 10
-6.68921
 20
98.7114
 11
-6.58349
 21
99.1295
  0
LINE
  8
0
 10
-6.58349
 20
99.1295
 11
-6.39823
 21
99.519
  0
LINE
  8
0
 10
-6.39823
 20
99.519
 11
-6.14055
 21
99.8648
  0
LINE
  8
0
 10
-6.14055
 20
99.8648
 11
-5.82035
 21
100.154
  0
LINE
  8
0
 10
-5.82035
 20
100.154
 11
-5.44994
 21
100.375
  0
LINE
  8
0
 10
-5.44994
 20
100.375
 11
-5.04356
 21
100.519
  0
LINE
  8
0
 10
-5.04356
 20
100.519
 11
-4.61681
 21
100.581
  0
LINE
  8
0
 10
-4.61681
 20
100.581
 11
-4.1861
 21
100.559
  0
LINE
  8
0
 10
-4.1861
 20
100.559
 11
-3.76799
 21
100.453
  0
LINE
  8
0
 10
-3.76799
 20
100.453
 11
-3.37853
 21
100.268
  0
LINE
  8
0
 10
-3.37853
 20
100.268
 11
-3.0327
 21
100.011
  0
LINE
  8
0
 10
-3.0327
 20
100.011
 11
-2.74378
 21
99.6904
  0
LINE
  8
0
 10
-2.74378
 20
99.6904
 11
15.7935
 21
74.5794
  0
LINE
  8
0
 10
15.7935
 20
74.5794
 11
16.7028
 21
74.381
  0
LINE
  8
0
 10
16.7028
 20
74.381
 11
17.6143
 21
74.1705
  0
LINE
  8
0
 10
17.6143
 20
74.1705
 11
18.5232
 21
73.9487
  0
LINE
  8
0
 10
18.5232
 20
73.9487
 11
19.4293
 21
73.7158
  0
LINE
  8
0
 10
19.4293
 20
73.7158
 11
20.3324
 21
73.4719
  0
LINE
  8
0
 10
20.3324
 20
73.4719
 11
21.2325
 21
73.2168
  0
LINE
  8
0
 10
21.2325
 20
73.2168
 11
22.1294
 21
72.9508
  0
LINE
  8
0
 10
22.1294
 20
72.9508
 11
23.0229
 21
72.6737
  0
LINE
  8
0
 10
23.0229
 20
72.6737
 11
23.913
 21
72.3857
  0
LINE
  8
0
 10
23.913
 20
72.3857
 11
24.7995
 21
72.0868
  0
LINE
  8
0
 10
24.7995
 20
72.0868
 11
25.6822
 21
71.777
  0
LINE
  8
0
 10
25.6822
 20
71.777
 11
26.5611
 21
71.4565
  0
LINE
  8
0
 10
26.5611
 20
71.4565
 11
27.436
 21
71.1252
  0
LINE
  8
0
 10
27.436
 20
71.1252
 11
28.3067
 21
70.7831
  0
LINE
  8
0
 10
28.3067
 20
70.7831
 11
29.1732
 21
70.4304
  0
LINE
  8
0
 10
29.1732
 20
70.4304
 11
30.0353
 21
70.0671
  0
LINE
  8
0
 10
30.0353
 20
70.0671
 11
30.8929
 21
69.6933
  0
LINE
  8
0
 10
30.8929
 20
69.6933
 11
31.7458
 21
69.3089
  0
LINE
  8
0
 10
31.7458
 20
69.3089
 11
32.5939
 21
68.9141
  0
LINE
  8
0
 10
32.5939
 20
68.9141
 11
33.4372
 21
68.5089
  0
LINE
  8
0
 10
33.4372
 20
68.5089
 11
34.2754
 21
68.0935
  0
LINE
  8
0
 10
34.2754
 20
68.0935
 11
35.1084
 21
67.6677
  0
LINE
  8
0
 10
35.1084
 20
67.6677
 11
35.9361
 21
67.2318
  0
LINE
  8
0
 10
35.9361
 20
67.2318
 11
36.7585
 21
66.7857
  0
LINE
  8
0
 10
36.7585
 20
66.7857
 11
37.5753
 21
66.3296
  0
LINE
  8
0
 10
37.5753
 20
66.3296
 11
38.3864
 21
65.8635
  0
LINE
  8
0
 10
38.3864
 20
65.8635
 11
39.1918
 21
65.3875
  0
LINE
  8
0
 10
39.1918
 20
65.3875
 11
39.9912
 21
64.9016
  0
LINE
  8
0
 10
39.9912
 20
64.9016
 11
40.7847
 21
64.406
  0
LINE
  8
0
 10
40.7847
 20
64.406
 11
41.5719
 21
63.9007
  0
LINE
  8
0
 10
41.5719
 20
63.9007
 11
42.353
 21
63.3857
  0
LINE
  8
0
 10
42.353
 20
63.3857
 11
43.1276
 21
62.8612
  0
LINE
  8
0
 10
43.1276
 20
62.8612
 11
43.8958
 21
62.3272
  0
LINE
  8
0
 10
43.8958
 20
62.3272
 11
44.6573
 21
61.7839
  0
LINE
  8
0
 10
44.6573
 20
61.7839
 11
45.4121
 21
61.2312
  0
LINE
  8
0
 10
45.4121
 20
61.2312
 11
46.1601
 21
60.6693
  0
LINE
  8
0
 10
46.1601
 20
60.6693
 11
46.9012
 21
60.0983
  0
LINE
  8
0
 10
46.9012
 20
60.0983
 11
47.6351
 21
59.5182
  0
LINE
  8
0
 10
47.6351
 20
59.5182
 11
48.3619
 21
58.9292
  0
LINE
  8
0
 10
48.3619
 20
58.9292
 11
49.0814
 21
58.3313
  0
LINE
  8
0
 10
49.0814
 20
58.3313
 11
49.7935
 21
57.7246
  0
LINE
  8
0
 10
49.7935
 20
57.7246
 11
50.4982
 21
57.1092
  0
LINE
  8
0
 10
50.4982
 20
57.1092
 11
51.1952
 21
56.4852
  0
LINE
  8
0
 10
51.1952
 20
56.4852
 11
51.8845
 21
55.8527
  0
LINE
  8
0
 10
51.8845
 20
55.8527
 11
52.566
 21
55.2118
  0
LINE
  8
0
 10
52.566
 20
55.2118
 11
53.2395
 21
54.5625
  0
LINE
  8
0
 10
53.2395
 20
54.5625
 11
53.9051
 21
53.9051
  0
LINE
  8
0
 10
53.9051
 20
53.9051
 11
54.5625
 21
53.2395
  0
LINE
  8
0
 10
54.5625
 20
53.2395
 11
55.2118
 21
52.566
  0
LINE
  8
0
 10
55.2118
 20
52.566
 11
55.8527
 21
51.8845
  0
LINE
  8
0
 10
55.8527
 20
51.8845
 11
56.4852
 21
51.1952
  0
LINE
  8
0
 10
56.4852
 20
51.1952
 11
57.1092
 21
50.4982
  0
LINE
  8
0
 10
57.1092
 20
50.4982
 11
57.7246
 21
49.7935
  0
LINE
  8
0
 10
57.7246
 20
49.7935
 11
58.3313
 21
49.0814
  0
LINE
  8
0
 10
58.3313
 20
49.0814
 11
58.9292
 21
48.3619
  0
LINE
  8
0
 10
58.9292
 20
48.3619
 11
59.5182
 21
47.6351
  0
LINE
  8
0
 10
59.5182
 20
47.6351
 11
60.0983
 21
46.9012
  0
LINE
  8
0
 10
60.0983
 20
46.9012
 11
60.6693
 21
46.1601
  0
LINE
  8
0
 10
60.6693
 20
46.1601
 11
61.2312
 21
45.4121
  0
LINE
  8
0
 10
61.2312
 20
45.4121
 11
61.7839
 21
44.6573
  0
LINE
  8
0
 10
61.7839
 20
44.6573
 11
62.3272
 21
43.8958
  0
LINE
  8
0
 10
62.3272
 20
43.8958
 11
62.8612
 21
43.1276
  0
LINE
  8
0
 10
62.8612
 20
43.1276
 11
63.3857
 21
42.353
  0
LINE
  8
0
 10
63.3857
 20
42.353
 11
63.9007
 21
41.5719
  0
LINE
  8
0
 10
63.9007
 20
41.5719
 11
64.406
 21
40.7847
  0
LINE
  8
0
 10
64.406
 20
40.7847
 11
64.9016
 21
39.9912
  0
LINE
  8
0
 10
64.9016
 20
39.9912
 11
65.3875
 21
39.1918
  0
LINE
  8
0
 10
65.3875
 20
39.1918
 11
65.8635
 21
38.3864
  0
LINE
  8
0
 10
65.8635
 20
38.3864
 11
66.3296
 21
37.5753
  0
LINE
  8
0
 10
66.3296
 20
37.5753
 11
66.7857
 21
36.7585
  0
LINE
  8
0
 10
66.7857
 20
36.7585
 11
67.2318
 21
35.9361
  0
LINE
  8
0
 10
67.2318
 20
35.9361
 11
67.6677
 21
35.1084
  0
LINE
  8
0
 10
67.6677
 20
35.1084
 11
68.0935
 21
34.2754
  0
LINE
  8
0
 10
68.0935
 20
34.2754
 11
68.5089
 21
33.4372
  0
LINE
  8
0
 10
68.5089
 20
33.4372
 11
68.9141
 21
32.5939
  0
LINE
  8
0
 10
68.9141
 20
32.5939
 11
69.3089
 21
31.7458
  0
LINE
  8
0
 10
69.3089
 20
31.7458
 11
69.6933
 21
30.8929
  0
LINE
  8
0
 10
69.6933
 20
30.8929
 11
70.0671
 21
30.0353
  0
LINE
  8
0
 10
70.0671
 20
30.0353
 11
70.4304
 21
29.1732
  0
LINE
  8
0
 10
70.4304
 20
29.1732
 11
70.7831
 21
28.3067
  0
LINE
  8
0
 10
70.7831
 20
28.3067
 11
71.1252
 21
27.436
  0
LINE
  8
0
 10
71.1252
 20
27.436
 11
71.4565
 21
26.5611
  0
LINE
  8
0
 10
71.4565
 20
26.5611
 11
71.777
 21
25.6822
  0
LINE
  8
0
 10
71.777
 20
25.6822
 11
72.0868
 21
24.7995
  0
LINE
  8
0
 10
72.0868
 20
24.7995
 11
72.3857
 21
23.913
  0
LINE
  8
0
 10
72.3857
 20
23.913
 11
72.6737
 21
23.0229
  0
LINE
  8
0
 10
72.6737
 20
23.0229
 11
72.9508
 21
22.1294
  0
LINE
  8
0
 10
72.9508
 20
22.1294
 11
73.2168
 21
21.2325
  0
LINE
  8
0
 10
73.2168
 20
21.2325
 11
73.4719
 21
20.3324
  0
LINE
  8
0
 10
73.4719
 20
20.3324
 11
73.7158
 21
19.4293
  0
LINE
  8
0
 10
73.7158
 20
19.4293
 11
73.8262
 21
19
  0
LINE
  8
0
 10
73.8262
 20
19
 11
82.9667
 21
19
  0
LINE
  8
0
 10
82.9667
 20
19
 11
84.829
 21
18.9085
  0
LINE
  8
0
 10
84.829
 20
18.9085
 11
86.6734
 21
18.6349
  0
LINE
  8
0
 10
86.6734
 20
18.6349
 11
88.4821
 21
18.1819
  0
LINE
  8
0
 10
88.4821
 20
18.1819
 11
90.2377
 21
17.5537
  0
LINE
  8
0
 10
90.2377
 20
17.5537
 11
91.9232
 21
16.7565
  0
LINE
  8
0
 10
91.9232
 20
16.7565
 11
93.5225
 21
15.7979
  0
LINE
  8
0
 10
93.5225
 20
15.7979
 11
95.0201
 21
14.6872
  0
LINE
  8
0
 10
95.0201
 20
14.6872
 11
96.4017
 21
13.435
  0
LINE
  8
0
 10
96.4017
 20
13.435
 11
97.6539
 21
12.0535
  0
LINE
  8
0
 10
97.6539
 20
12.0535
 11
98.7646
 21
10.5558
  0
LINE
  8
0
 10
98.7646
 20
10.5558
 11
99.7232
 21
8.95654
  0
LINE
  8
0
 10
99.7232
 20
8.95654
 11
100.52
 21
7.27098
  0
LINE
  8
0
 10
100.52
 20
7.27098
 11
101.149
 21
5.51541
  0
LINE
  8
0
 10
101.149
 20
5.51541
 11
101.602
 21
3.70672
  0
LINE
  8
0
 10
101.602
 20
3.70672
 11
101.875
 21
1.86232
  0
LINE
  8
0
 10
101.875
 20
1.86232
 11
101.967
 21
0
  0
LINE
  8
0
 10
101.967
 20
0
 11
101.875
 21
-1.86233
  0
LINE
  8
0
 10
101.875
 20
-1.86233
 11
101.602
 21
-3.70672
  0
LINE
  8
0
 10
101.602
 20
-3.70672
 11
101.149
 21
-5.51541
  0
LINE
  8
0
 10
101.149
 20
-5.51541
 11
100.52
 21
-7.27099
  0
LINE
  8
0
 10
100.52
 20
-7.27099
 11
99.7232
 21
-8.95654
  0
LINE
  8
0
 10
99.7232
 20
-8.95654
 11
98.7646
 21
-10.5558
  0
LINE
  8
0
 10
98.7646
 20
-10.5558
 11
97.6539
 21
-12.0535
  0
LINE
  8
0
 10
97.6539
 20
-12.0535
 11
96.4017
 21
-13.435
  0
LINE
  8
0
 10
96.4017
 20
-13.435
 11
95.0201
 21
-14.6872
  0
LINE
  8
0
 10
95.0201
 20
-14.6872
 11
93.5225
 21
-15.7979
  0
LINE
  8
0
 10
93.5225
 20
-15.7979
 11
91.9232
 21
-16.7565
  0
LINE
  8
0
 10
91.9232
 20
-16.7565
 11
90.2377
 21
-17.5537
  0
LINE
  8
0
 10
90.2377
 20
-17.5537
 11
88.4821
 21
-18.1819
  0
LINE
  8
0
 10
88.4821
 20
-18.1819
 11
86.6734
 21
-18.6349
  0
LINE
  8
0
 10
86.6734
 20
-18.6349
 11
84.829
 21
-18.9085
  0
LINE
  8
0
 10
84.829
 20
-18.9085
 11
82.9667
 21
-19
  0
LINE
  8
0
 10
82.9667
 20
-19
 11
73.8262
 21
-19
  0
LINE
  8
0
 10
73.8262
 20
-19
 11
73.7158
 21
-19.4293
  0
LINE
  8
0
 10
73.7158
 20
-19.4293
 11
73.4719
 21
-20.3324
  0
LINE
  8
0
 10
73.4719
 20
-20.3324
 11
73.2168
 21
-21.2325
  0
LINE
  8
0
 10
73.2168
 20
-21.2325
 11
72.9508
 21
-22.1294
  0
LINE
  8
0
 10
72.9508
 20
-22.1294
 11
72.6737
 21
-23.0229
  0
LINE
  8
0
 10
72.6737
 20
-23.0229
 11
72.3857
 21
-23.913
  0
LINE
  8
0
 10
72.3857
 20
-23.913
 11
72.0868
 21
-24.7995
  0
LINE
  8
0
 10
72.0868
 20
-24.7995
 11
71.777
 21
-25.6822
  0
LINE
  8
0
 10
71.777
 20
-25.6822
 11
71.4565
 21
-26.5611
  0
LINE
  8
0
 10
71.4565
 20
-26.5611
 11
71.1252
 21
-27.436
  0
LINE
  8
0
 10
71.1252
 20
-27.436
 11
70.7831
 21
-28.3067
  0
LINE
  8
0
 10
70.7831
 20
-28.3067
 11
70.4304
 21
-29.1732
  0
LINE
  8
0
 10
70.4304
 20
-29.1732
 11
70.0671
 21
-30.0353
  0
LINE
  8
0
 10
70.0671
 20
-30.0353
 11
69.6933
 21
-30.8929
  0
LINE
  8
0
 10
69.6933
 20
-30.8929
 11
69.3089
 21
-31.7458
  0
LINE
  8
0
 10
69.3089
 20
-31.7458
 11
68.9141
 21
-32.5939
  0
LINE
  8
0
 10
68.9141
 20
-32.5939
 11
68.5089
 21
-33.4372
  0
LINE
  8
0
 10
68.5089
 20
-33.4372
 11
68.0935
 21
-34.2754
  0
LINE
  8
0
 10
68.0935
 20
-34.2754
 11
67.6677
 21
-35.1084
  0
LINE
  8
0
 10
67.6677
 20
-35.1084
 11
67.2318
 21
-35.9361
  0
LINE
  8
0
 10
67.2318
 20
-35.9361
 11
66.7857
 21
-36.7585
  0
LINE
  8
0
 10
66.7857
 20
-36.7585
 11
66.3296
 21
-37.5753
  0
LINE
  8
0
 10
66.3296
 20
-37.5753
 11
65.8635
 21
-38.3864
  0
LINE
  8
0
 10
65.8635
 20
-38.3864
 11
65.3875
 21
-39.1918
  0
LINE
  8
0
 10
65.3875
 20
-39.1918
 11
64.9016
 21
-39.9912
  0
LINE
  8
0
 10
64.9016
 20
-39.9912
 11
64.406
 21
-40.7847
  0
LINE
  8
0
 10
64.406
 20
-40.7847
 11
63.9007
 21
-41.5719
  0
LINE
  8
0
 10
63.9007
 20
-41.5719
 11
63.3857
 21
-42.353
  0
LINE
  8
0
 10
63.3857
 20
-42.353
 11
62.8612
 21
-43.1276
  0
LINE
  8
0
 10
62.8612
 20
-43.1276
 11
62.3272
 21
-43.8958
  0
LINE
  8
0
 10
62.3272
 20
-43.8958
 11
61.7839
 21
-44.6573
  0
LINE
  8
0
 10
61.7839
 20
-44.6573
 11
61.2312
 21
-45.4121
  0
LINE
  8
0
 10
61.2312
 20
-45.4121
 11
60.7264
 21
-46.0842
  0
LINE
  8
0
 10
60.7264
 20
-46.0842
 11
87.2131
 21
-43.0967
  0
LINE
  8
0
 10
87.2131
 20
-43.0967
 11
87.6443
 21
-43.0906
  0
LINE
  8
0
 10
87.6443
 20
-43.0906
 11
88.0685
 21
-43.1688
  0
LINE
  8
0
 10
88.0685
 20
-43.1688
 11
88.4692
 21
-43.3282
  0
LINE
  8
0
 10
88.4692
 20
-43.3282
 11
88.8312
 21
-43.5627
  0
LINE
  8
0
 10
88.8312
 20
-43.5627
 11
89.1404
 21
-43.8633
  0
LINE
  8
0
 10
89.1404
 20
-43.8633
 11
89.3851
 21
-44.2184
  0
LINE
  8
0
 10
89.3851
 20
-44.2184
 11
89.5557
 21
-44.6145
  0
LINE
  8
0
 10
89.5557
 20
-44.6145
 11
89.6458
 21
-45.0363
  0
LINE
  8
0
 10
89.6458
 20
-45.0363
 11
89.6519
 21
-45.4675
  0
LINE
  8
0
 10
89.6519
 20
-45.4675
 11
89.5738
 21
-45.8916
  0
LINE
  8
0
 10
89.5738
 20
-45.8916
 11
89.4144
 21
-46.2924
  0
LINE
  8
0
 10
89.4144
 20
-46.2924
 11
89.1799
 21
-46.6543
  0
LINE
  8
0
 10
89.1799
 20
-46.6543
 11
88.8793
 21
-46.9636
  0
LINE
  8
0
 10
88.8793
 20
-46.9636
 11
88.5241
 21
-47.2082
  0
LINE
  8
0
 10
88.5241
 20
-47.2082
 11
88.128
 21
-47.3789
  0
LINE
  8
0
 10
88.128
 20
-47.3789
 11
87.7063
 21
-47.469
  0
LINE
  8
0
 10
87.7063
 20
-47.469
 11
56.6891
 21
-50.9674
  0
LINE
  8
0
 10
56.6891
 20
-50.9674
 11
56.4852
 21
-51.1952
  0
LINE
  8
0
 10
56.4852
 20
-51.1952
 11
55.8527
 21
-51.8845
  0
LINE
  8
0
 10
55.8527
 20
-51.8845
 11
55.2118
 21
-52.566
  0
LINE
  8
0
 10
55.2118
 20
-52.566
 11
54.5625
 21
-53.2395
  0
LINE
  8
0
 10
54.5625
 20
-53.2395
 11
53.9051
 21
-53.9051
  0
LINE
  8
0
 10
53.9051
 20
-53.9051
 11
53.2395
 21
-54.5625
  0
LINE
  8
0
 10
53.2395
 20
-54.5625
 11
52.566
 21
-55.2118
  0
LINE
  8
0
 10
52.566
 20
-55.2118
 11
51.8845
 21
-55.8527
  0
LINE
  8
0
 10
51.8845
 20
-55.8527
 11
51.1952
 21
-56.4852
  0
LINE
  8
0
 10
51.1952
 20
-56.4852
 11
50.4982
 21
-57.1092
  0
LINE
  8
0
 10
50.4982
 20
-57.1092
 11
49.7935
 21
-57.7246
  0
LINE
  8
0
 10
49.7935
 20
-57.7246
 11
49.0814
 21
-58.3313
  0
LINE
  8
0
 10
49.0814
 20
-58.3313
 11
48.3619
 21
-58.9292
  0
LINE
  8
0
 10
48.3619
 20
-58.9292
 11
47.6351
 21
-59.5182
  0
LINE
  8
0
 10
47.6351
 20
-59.5182
 11
46.9012
 21
-60.0983
  0
LINE
  8
0
 10
46.9012
 20
-60.0983
 11
46.1601
 21
-60.6693
  0
LINE
  8
0
 10
46.1601
 20
-60.6693
 11
45.4121
 21
-61.2312
  0
LINE
  8
0
 10
45.4121
 20
-61.2312
 11
44.6573
 21
-61.7839
  0
LINE
  8
0
 10
44.6573
 20
-61.7839
 11
43.8958
 21
-62.3272
  0
LINE
  8
0
 10
43.8958
 20
-62.3272
 11
43.1276
 21
-62.8612
  0
LINE
  8
0
 10
43.1276
 20
-62.8612
 11
42.353
 21
-63.3857
  0
LINE
  8
0
 10
42.353
 20
-63.3857
 11
41.5719
 21
-63.9007
  0
LINE
  8
0
 10
41.5719
 20
-63.9007
 11
40.7847
 21
-64.406
  0
LINE
  8
0
 10
40.7847
 20
-64.406
 11
39.9912
 21
-64.9016
  0
LINE
  8
0
 10
39.9912
 20
-64.9016
 11
39.1918
 21
-65.3875
  0
LINE
  8
0
 10
39.1918
 20
-65.3875
 11
38.3864
 21
-65.8635
  0
LINE
  8
0
 10
38.3864
 20
-65.8635
 11
37.5753
 21
-66.3296
  0
LINE
  8
0
 10
37.5753
 20
-66.3296
 11
36.7585
 21
-66.7857
  0
LINE
  8
0
 10
36.7585
 20
-66.7857
 11
35.9361
 21
-67.2318
  0
LINE
  8
0
 10
35.9361
 20
-67.2318
 11
35.1084
 21
-67.6677
  0
LINE
  8
0
 10
35.1084
 20
-67.6677
 11
34.2754
 21
-68.0935
  0
LINE
  8
0
 10
34.2754
 20
-68.0935
 11
33.4372
 21
-68.5089
  0
LINE
  8
0
 10
33.4372
 20
-68.5089
 11
32.5939
 21
-68.9141
  0
LINE
  8
0
 10
32.5939
 20
-68.9141
 11
31.7458
 21
-69.3089
  0
LINE
  8
0
 10
31.7458
 20
-69.3089
 11
30.8929
 21
-69.6933
  0
LINE
  8
0
 10
30.8929
 20
-69.6933
 11
30.0353
 21
-70.0671
  0
LINE
  8
0
 10
30.0353
 20
-70.0671
 11
29.1732
 21
-70.4304
  0
LINE
  8
0
 10
29.1732
 20
-70.4304
 11
28.3067
 21
-70.7831
  0
LINE
  8
0
 10
28.3067
 20
-70.7831
 11
27.436
 21
-71.1252
  0
LINE
  8
0
 10
27.436
 20
-71.1252
 11
26.5611
 21
-71.4565
  0
LINE
  8
0
 10
26.5611
 20
-71.4565
 11
25.6822
 21
-71.777
  0
LINE
  8
0
 10
25.6822
 20
-71.777
 11
24.7995
 21
-72.0868
  0
LINE
  8
0
 10
24.7995
 20
-72.0868
 11
23.913
 21
-72.3857
  0
LINE
  8
0
 10
23.913
 20
-72.3857
 11
23.0229
 21
-72.6737
  0
LINE
  8
0
 10
23.0229
 20
-72.6737
 11
22.1294
 21
-72.9508
  0
LINE
  8
0
 10
22.1294
 20
-72.9508
 11
21.2325
 21
-73.2168
  0
LINE
  8
0
 10
21.2325
 20
-73.2168
 11
20.3324
 21
-73.4719
  0
LINE
  8
0
 10
20.3324
 20
-73.4719
 11
19.4293
 21
-73.7158
  0
LINE
  8
0
 10
19.4293
 20
-73.7158
 11
18.5232
 21
-73.9487
  0
LINE
  8
0
 10
18.5232
 20
-73.9487
 11
17.6143
 21
-74.1705
  0
LINE
  8
0
 10
17.6143
 20
-74.1705
 11
16.7028
 21
-74.381
  0
LINE
  8
0
 10
16.7028
 20
-74.381
 11
15.7888
 21
-74.5804
  0
LINE
  8
0
 10
15.7888
 20
-74.5804
 11
14.8724
 21
-74.7685
  0
LINE
  8
0
 10
14.8724
 20
-74.7685
 11
13.9537
 21
-74.9454
  0
LINE
  8
0
 10
13.9537
 20
-74.9454
 11
13.033
 21
-75.111
  0
LINE
  8
0
 10
13.033
 20
-75.111
 11
12.1103
 21
-75.2653
  0
LINE
  8
0
 10
12.1103
 20
-75.2653
 11
11.1858
 21
-75.4082
  0
LINE
  8
0
 10
11.1858
 20
-75.4082
 11
10.2595
 21
-75.5398
  0
LINE
  8
0
 10
10.2595
 20
-75.5398
 11
9.33177
 21
-75.66
  0
LINE
  8
0
 10
9.33177
 20
-75.66
 11
8.40261
 21
-75.7688
  0
LINE
  8
0
 10
8.40261
 20
-75.7688
 11
7.47217
 21
-75.8662
  0
LINE
  8
0
 10
7.47217
 20
-75.8662
 11
6.54062
 21
-75.9522
  0
LINE
  8
0
 10
6.54062
 20
-75.9522
 11
5.60807
 21
-76.0268
  0
LINE
  8
0
 10
5.60807
 20
-76.0268
 11
4.67468
 21
-76.0899
  0
LINE
  8
0
 10
4.67468
 20
-76.0899
 11
3.74059
 21
-76.1415
  0
LINE
  8
0
 10
3.74059
 20
-76.1415
 11
2.80594
 21
-76.1817
  0
LINE
  8
0
 10
2.80594
 20
-76.1817
 11
1.87086
 21
-76.2104
  0
LINE
  8
0
 10
1.87086
 20
-76.2104
 11
0.9355
 21
-76.2276
  0
LINE
  8
0
 10
0.9355
 20
-76.2276
 11
0
 21
-76.2333
  0
LINE
  8
0
 10
0
 20
-76.2333
 11
-0.9355
 21
-76.2276
  0
LINE
  8
0
 10
-0.9355
 20
-76.2276
 11
-1.87086
 21
-76.2104
  0
LINE
  8
0
 10
-1.87086
 20
-76.2104
 11
-2.80594
 21
-76.1817
  0
LINE
  8
0
 10
-2.80594
 20
-76.1817
 11
-3.74059
 21
-76.1415
  0
LINE
  8
0
 10
-3.74059
 20
-76.1415
 11
-4.67468
 21
-76.0899
  0
LINE
  8
0
 10
-4.67468
 20
-76.0899
 11
-5.60807
 21
-76.0268
  0
LINE
  8
0
 10
-5.60807
 20
-76.0268
 11
-6.54062
 21
-75.9522
  0
LINE
  8
0
 10
-6.54062
 20
-75.9522
 11
-7.47217
 21
-75.8662
  0
LINE
  8
0
 10
-7.47217
 20
-75.8662
 11
-8.40261
 21
-75.7688
  0
LINE
  8
0
 10
-8.40261
 20
-75.7688
 11
-9.33177
 21
-75.66
  0
LINE
  8
0
 10
-9.33177
 20
-75.66
 11
-10.2595
 21
-75.5398
  0
LINE
  8
0
 10
-10.2595
 20
-75.5398
 11
-11.1858
 21
-75.4082
  0
LINE
  8
0
 10
-11.1858
 20
-75.4082
 11
-12.1103
 21
-75.2653
  0
LINE
  8
0
 10
-12.1103
 20
-75.2653
 11
-13.033
 21
-75.111
  0
LINE
  8
0
 10
-13.033
 20
-75.111
 11
-13.9537
 21
-74.9454
  0
LINE
  8
0
 10
-13.9537
 20
-74.9454
 11
-14.8724
 21
-74.7685
  0
LINE
  8
0
 10
-14.8724
 20
-74.7685
 11
-15.7888
 21
-74.5804
  0
LINE
  8
0
 10
-15.7888
 20
-74.5804
 11
-16.7028
 21
-74.381
  0
LINE
  8
0
 10
-16.7028
 20
-74.381
 11
-17.6143
 21
-74.1705
  0
LINE
  8
0
 10
-17.6143
 20
-74.1705
 11
-18.5232
 21
-73.9487
  0
LINE
  8
0
 10
-18.5232
 20
-73.9487
 11
-19.4293
 21
-73.7158
  0
LINE
  8
0
 10
-19.4293
 20
-73.7158
 11
-20.3324
 21
-73.4719
  0
LINE
  8
0
 10
-20.3324
 20
-73.4719
 11
-21.2325
 21
-73.2168
  0
LINE
  8
0
 10
-21.2325
 20
-73.2168
 11
-22.1294
 21
-72.9508
  0
LINE
  8
0
 10
-22.1294
 20
-72.9508
 11
-23.0229
 21
-72.6737
  0
LINE
  8
0
 10
-23.0229
 20
-72.6737
 11
-23.913
 21
-72.3857
  0
LINE
  8
0
 10
-23.913
 20
-72.3857
 11
-24.7995
 21
-72.0868
  0
LINE
  8
0
 10
-24.7995
 20
-72.0868
 11
-25.6822
 21
-71.777
  0
LINE
  8
0
 10
-25.6822
 20
-71.777
 11
-26.5611
 21
-71.4565
  0
LINE
  8
0
 10
-26.5611
 20
-71.4565
 11
-27.436
 21
-71.1252
  0
LINE
  8
0
 10
-27.436
 20
-71.1252
 11
-28.3067
 21
-70.7831
  0
LINE
  8
0
 10
-28.3067
 20
-70.7831
 11
-29.1732
 21
-70.4304
  0
LINE
  8
0
 10
-29.1732
 20
-70.4304
 11
-30.0353
 21
-70.0671
  0
LINE
  8
0
 10
-30.0353
 20
-70.0671
 11
-30.8929
 21
-69.6933
  0
LINE
  8
0
 10
-30.8929
 20
-69.6933
 11
-31.7458
 21
-69.3089
  0
LINE
  8
0
 10
-31.7458
 20
-69.3089
 11
-32.5939
 21
-68.9141
  0
LINE
  8
0
 10
-32.5939
 20
-68.9141
 11
-33.4372
 21
-68.5089
  0
LINE
  8
0
 10
-33.4372
 20
-68.5089
 11
-34.2754
 21
-68.0935
  0
LINE
  8
0
 10
-34.2754
 20
-68.0935
 11
-35.1084
 21
-67.6677
  0
LINE
  8
0
 10
-35.1084
 20
-67.6677
 11
-35.9361
 21
-67.2318
  0
LINE
  8
0
 10
-35.9361
 20
-67.2318
 11
-36.7585
 21
-66.7857
  0
LINE
  8
0
 10
-36.7585
 20
-66.7857
 11
-37.5753
 21
-66.3296
  0
LINE
  8
0
 10
-37.5753
 20
-66.3296
 11
-38.3864
 21
-65.8635
  0
LINE
  8
0
 10
-38.3864
 20
-65.8635
 11
-39.1918
 21
-65.3875
  0
LINE
  8
0
 10
-39.1918
 20
-65.3875
 11
-39.9912
 21
-64.9016
  0
LINE
  8
0
 10
-39.9912
 20
-64.9016
 11
-40.7847
 21
-64.406
  0
LINE
  8
0
 10
-40.7847
 20
-64.406
 11
-41.5719
 21
-63.9007
  0
LINE
  8
0
 10
-41.5719
 20
-63.9007
 11
-42.353
 21
-63.3857
  0
LINE
  8
0
 10
-42.353
 20
-63.3857
 11
-43.1276
 21
-62.8612
  0
LINE
  8
0
 10
-43.1276
 20
-62.8612
 11
-43.8958
 21
-62.3272
  0
LINE
  8
0
 10
-43.8958
 20
-62.3272
 11
-44.6573
 21
-61.7839
  0
LINE
  8
0
 10
-44.6573
 20
-61.7839
 11
-45.4121
 21
-61.2312
  0
LINE
  8
0
 10
-45.4121
 20
-61.2312
 11
-46.1601
 21
-60.6693
  0
LINE
  8
0
 10
-46.1601
 20
-60.6693
 11
-46.9012
 21
-60.0983
  0
LINE
  8
0
 10
-46.9012
 20
-60.0983
 11
-47.6351
 21
-59.5182
  0
LINE
  8
0
 10
-47.6351
 20
-59.5182
 11
-48.3619
 21
-58.9292
  0
LINE
  8
0
 10
-48.3619
 20
-58.9292
 11
-49.0814
 21
-58.3313
  0
LINE
  8
0
 10
-49.0814
 20
-58.3313
 11
-49.7935
 21
-57.7246
  0
LINE
  8
0
 10
-49.7935
 20
-57.7246
 11
-50.4982
 21
-57.1092
  0
LINE
  8
0
 10
-50.4982
 20
-57.1092
 11
-51.1952
 21
-56.4852
  0
LINE
  8
0
 10
-51.1952
 20
-56.4852
 11
-51.8845
 21
-55.8527
  0
LINE
  8
0
 10
-51.8845
 20
-55.8527
 11
-52.566
 21
-55.2118
  0
LINE
  8
0
 10
-52.566
 20
-55.2118
 11
-53.2395
 21
-54.5625
  0
LINE
  8
0
 10
-53.2395
 20
-54.5625
 11
-53.9051
 21
-53.9051
  0
LINE
  8
0
 10
-53.9051
 20
-53.9051
 11
-54.5625
 21
-53.2395
  0
LINE
  8
0
 10
-54.5625
 20
-53.2395
 11
-55.2118
 21
-52.566
  0
LINE
  8
0
 10
-55.2118
 20
-52.566
 11
-55.8527
 21
-51.8845
  0
LINE
  8
0
 10
-55.8527
 20
-51.8845
 11
-56.4852
 21
-51.1952
  0
LINE
  8
0
 10
-56.4852
 20
-51.1952
 11
-57.1092
 21
-50.4982
  0
LINE
  8
0
 10
-57.1092
 20
-50.4982
 11
-57.7246
 21
-49.7935
  0
LINE
  8
0
 10
-57.7246
 20
-49.7935
 11
-58.3313
 21
-49.0814
  0
LINE
  8
0
 10
-58.3313
 20
-49.0814
 11
-58.9292
 21
-48.3619
  0
LINE
  8
0
 10
-58.9292
 20
-48.3619
 11
-59.5182
 21
-47.6351
  0
LINE
  8
0
 10
-59.5182
 20
-47.6351
 11
-60.0983
 21
-46.9012
  0
LINE
  8
0
 10
-60.0983
 20
-46.9012
 11
-60.6693
 21
-46.1601
  0
LINE
  8
0
 10
-60.6693
 20
-46.1601
 11
-61.2312
 21
-45.4121
  0
LINE
  8
0
 10
-61.2312
 20
-45.4121
 11
-61.7839
 21
-44.6573
  0
LINE
  8
0
 10
-61.7839
 20
-44.6573
 11
-62.3272
 21
-43.8958
  0
LINE
  8
0
 10
-62.3272
 20
-43.8958
 11
-62.8612
 21
-43.1276
  0
LINE
  8
0
 10
-62.8612
 20
-43.1276
 11
-63.3857
 21
-42.353
  0
LINE
  8
0
 10
-63.3857
 20
-42.353
 11
-63.9007
 21
-41.5719
  0
LINE
  8
0
 10
-63.9007
 20
-41.5719
 11
-64.406
 21
-40.7847
  0
LINE
  8
0
 10
-64.406
 20
-40.7847
 11
-64.9016
 21
-39.9912
  0
LINE
  8
0
 10
-64.9016
 20
-39.9912
 11
-65.3875
 21
-39.1918
  0
LINE
  8
0
 10
-65.3875
 20
-39.1918
 11
-65.8635
 21
-38.3864
  0
LINE
  8
0
 10
-65.8635
 20
-38.3864
 11
-66.3296
 21
-37.5753
  0
LINE
  8
0
 10
-66.3296
 20
-37.5753
 11
-66.7857
 21
-36.7585
  0
LINE
  8
0
 10
-66.7857
 20
-36.7585
 11
-67.2318
 21
-35.9361
  0
LINE
  8
0
 10
-67.2318
 20
-35.9361
 11
-67.6677
 21
-35.1084
  0
LINE
  8
0
 10
-67.6677
 20
-35.1084
 11
-68.0935
 21
-34.2754
  0
LINE
  8
0
 10
-68.0935
 20
-34.2754
 11
-68.5089
 21
-33.4372
  0
LINE
  8
0
 10
-68.5089
 20
-33.4372
 11
-68.9141
 21
-32.5939
  0
LINE
  8
0
 10
-68.9141
 20
-32.5939
 11
-69.3089
 21
-31.7458
  0
LINE
  8
0
 10
-69.3089
 20
-31.7458
 11
-69.6933
 21
-30.8929
  0
LINE
  8
0
 10
-69.6933
 20
-30.8929
 11
-70.0671
 21
-30.0353
  0
LINE
  8
0
 10
-70.0671
 20
-30.0353
 11
-70.2728
 21
-29.5474
  0
LINE
  8
0
 10
-70.2728
 20
-29.5474
 11
-80.9294
 21
-53.9804
  0
LINE
  8
0
 10
-80.9294
 20
-53.9804
 11
-81.1397
 21
-54.3569
  0
LINE
  8
0
 10
-81.1397
 20
-54.3569
 11
-81.4195
 21
-54.6852
  0
LINE
  8
0
 10
-81.4195
 20
-54.6852
 11
-81.7579
 21
-54.9525
  0
LINE
  8
0
 10
-81.7579
 20
-54.9525
 11
-82.142
 21
-55.1487
  0
LINE
  8
0
 10
-82.142
 20
-55.1487
 11
-82.5569
 21
-55.2662
  0
LINE
  8
0
 10
-82.5569
 20
-55.2662
 11
-82.9868
 21
-55.3005
  0
LINE
  8
0
 10
-82.9868
 20
-55.3005
 11
-83.4152
 21
-55.2503
  0
LINE
  8
0
 10
-83.4152
 20
-55.2503
 11
-83.8255
 21
-55.1174
  0
LINE
  8
0
 10
-83.8255
 20
-55.1174
 11
-84.202
 21
-54.9071
  0
LINE
  8
0
 10
-84.202
 20
-54.9071
 11
-84.5302
 21
-54.6273
  0
LINE
  8
0
 10
-84.5302
 20
-54.6273
 11
-84.7976
 21
-54.2889
  0
LINE
  8
0
 10
-84.7976
 20
-54.2889
 11
-84.9938
 21
-53.9049
  0
LINE
  8
0
 10
-84.9938
 20
-53.9049
 11
-85.1113
 21
-53.4899
  0
LINE
  8
0
 10
-85.1113
 20
-53.4899
 11
-85.1456
 21
-53.06
  0
LINE
  8
0
 10
-1.5875
 20
150
 11
-1.57986
 21
150.156
  0
LINE
  8
0
 10
-1.57986
 20
150.156
 11
-1.557
 21
150.31
  0
LINE
  8
0
 10
-1.557
 20
150.31
 11
-1.51914
 21
150.461
  0
LINE
  8
0
 10
-1.51914
 20
150.461
 11
-1.46666
 21
150.608
  0
LINE
  8
0
 10
-1.46666
 20
150.608
 11
-1.40005
 21
150.748
  0
LINE
  8
0
 10
-1.40005
 20
150.748
 11
-1.31996
 21
150.882
  0
LINE
  8
0
 10
-1.31996
 20
150.882
 11
-1.22715
 21
151.007
  0
LINE
  8
0
 10
-1.22715
 20
151.007
 11
-1.12253
 21
151.123
  0
LINE
  8
0
 10
-1.12253
 20
151.123
 11
-1.0071
 21
151.227
  0
LINE
  8
0
 10
-1.0071
 20
151.227
 11
-0.881968
 21
151.32
  0
LINE
  8
0
 10
-0.881968
 20
151.32
 11
-0.748343
 21
151.4
  0
LINE
  8
0
 10
-0.748343
 20
151.4
 11
-0.607511
 21
151.467
  0
LINE
  8
0
 10
-0.607511
 20
151.467
 11
-0.460828
 21
151.519
  0
LINE
  8
0
 10
-0.460828
 20
151.519
 11
-0.309707
 21
151.557
  0
LINE
  8
0
 10
-0.309707
 20
151.557
 11
-0.155602
 21
151.58
  0
LINE
  8
0
 10
-0.155602
 20
151.58
 11
0
 21
151.587
  0
LINE
  8
0
 10
0
 20
151.587
 11
0.155602
 21
151.58
  0
LINE
  8
0
 10
0.155602
 20
151.58
 11
0.309706
 21
151.557
  0
LINE
  8
0
 10
0.309706
 20
151.557
 11
0.460827
 21
151.519
  0
LINE
  8
0
 10
0.460827
 20
151.519
 11
0.60751
 21
151.467
  0
LINE
  8
0
 10
0.60751
 20
151.467
 11
0.748342
 21
151.4
  0
LINE
  8
0
 10
0.748342
 20
151.4
 11
0.881968
 21
151.32
  0
LINE
  8
0
 10
0.881968
 20
151.32
 11
1.0071
 21
151.227
  0
LINE
  8
0
 10
1.0071
 20
151.227
 11
1.12253
 21
151.123
  0
LINE
  8
0
 10
1.12253
 20
151.123
 11
1.22715
 21
151.007
  0
LINE
  8
0
 10
1.22715
 20
151.007
 11
1.31996
 21
150.882
  0
LINE
  8
0
 10
1.31996
 20
150.882
 11
1.40005
 21
150.748
  0
LINE
  8
0
 10
1.40005
 20
150.748
 11
1.46666
 21
150.608
  0
LINE
  8
0
 10
1.46666
 20
150.608
 11
1.51914
 21
150.461
  0
LINE
  8
0
 10
1.51914
 20
150.461
 11
1.557
 21
150.31
  0
LINE
  8
0
 10
1.557
 20
150.31
 11
1.57985
 21
150.156
  0
LINE
  8
0
 10
1.57985
 20
150.156
 11
1.5875
 21
150
  0
LINE
  8
0
 10
1.5875
 20
150
 11
1.57985
 21
149.844
  0
LINE
  8
0
 10
1.57985
 20
149.844
 11
1.557
 21
149.69
  0
LINE
  8
0
 10
1.557
 20
149.69
 11
1.51914
 21
149.539
  0
LINE
  8
0
 10
1.51914
 20
149.539
 11
1.46666
 21
149.392
  0
LINE
  8
0
 10
1.46666
 20
149.392
 11
1.40005
 21
149.252
  0
LINE
  8
0
 10
1.40005
 20
149.252
 11
1.31996
 21
149.118
  0
LINE
  8
0
 10
1.31996
 20
149.118
 11
1.22715
 21
148.993
  0
LINE
  8
0
 10
1.22715
 20
148.993
 11
1.12253
 21
148.877
  0
LINE
  8
0
 10
1.12253
 20
148.877
 11
1.0071
 21
148.773
  0
LINE
  8
0
 10
1.0071
 20
148.773
 11
0.881968
 21
148.68
  0
LINE
  8
0
 10
0.881968
 20
148.68
 11
0.748342
 21
148.6
  0
LINE
  8
0
 10
0.748342
 20
148.6
 11
0.60751
 21
148.533
  0
LINE
  8
0
 10
0.60751
 20
148.533
 11
0.460827
 21
148.481
  0
LINE
  8
0
 10
0.460827
 20
148.481
 11
0.309706
 21
148.443
  0
LINE
  8
0
 10
0.309706
 20
148.443
 11
0.155602
 21
148.42
  0
LINE
  8
0
 10
0.155602
 20
148.42
 11
0
 21
148.412
  0
LINE
  8
0
 10
0
 20
148.412
 11
-0.155602
 21
148.42
  0
LINE
  8
0
 10
-0.155602
 20
148.42
 11
-0.309707
 21
148.443
  0
LINE
  8
0
 10
-0.309707
 20
148.443
 11
-0.460828
 21
148.481
  0
LINE
  8
0
 10
-0.460828
 20
148.481
 11
-0.607511
 21
148.533
  0
LINE
  8
0
 10
-0.607511
 20
148.533
 11
-0.748343
 21
148.6
  0
LINE
  8
0
 10
-0.748343
 20
148.6
 11
-0.881968
 21
148.68
  0
LINE
  8
0
 10
-0.881968
 20
148.68
 11
-1.0071
 21
148.773
  0
LINE
  8
0
 10
-1.0071
 20
148.773
 11
-1.12253
 21
148.877
  0
LINE
  8
0
 10
-1.12253
 20
148.877
 11
-1.22715
 21
148.993
  0
LINE
  8
0
 10
-1.22715
 20
148.993
 11
-1.31996
 21
149.118
  0
LINE
  8
0
 10
-1.31996
 20
149.118
 11
-1.40005
 21
149.252
  0
LINE
  8
0
 10
-1.40005
 20
149.252
 11
-1.46666
 21
149.392
  0
LINE
  8
0
 10
-1.46666
 20
149.392
 11
-1.51914
 21
149.539
  0
LINE
  8
0
 10
-1.51914
 20
149.539
 11
-1.557
 21
149.69
  0
LINE
  8
0
 10
-1.557
 20
149.69
 11
-1.57986
 21
149.844
  0
LINE
  8
0
 10
-1.57986
 20
149.844
 11
-1.5875
 21
150
  0
LINE
  8
0
 10
93.4125
 20
-150
 11
93.4201
 21
-149.844
  0
LINE
  8
0
 10
93.4201
 20
-149.844
 11
93.443
 21
-149.69
  0
LINE
  8
0
 10
93.443
 20
-149.69
 11
93.4809
 21
-149.539
  0
LINE
  8
0
 10
93.4809
 20
-149.539
 11
93.5333
 21
-149.392
  0
LINE
  8
0
 10
93.5333
 20
-149.392
 11
93.5999
 21
-149.252
  0
LINE
  8
0
 10
93.5999
 20
-149.252
 11
93.68
 21
-149.118
  0
LINE
  8
0
 10
93.68
 20
-149.118
 11
93.7728
 21
-148.993
  0
LINE
  8
0
 10
93.7728
 20
-148.993
 11
93.8775
 21
-148.877
  0
LINE
  8
0
 10
93.8775
 20
-148.877
 11
93.9929
 21
-148.773
  0
LINE
  8
0
 10
93.9929
 20
-148.773
 11
94.118
 21
-148.68
  0
LINE
  8
0
 10
94.118
 20
-148.68
 11
94.2517
 21
-148.6
  0
LINE
  8
0
 10
94.2517
 20
-148.6
 11
94.3925
 21
-148.533
  0
LINE
  8
0
 10
94.3925
 20
-148.533
 11
94.5392
 21
-148.481
  0
LINE
  8
0
 10
94.5392
 20
-148.481
 11
94.6903
 21
-148.443
  0
LINE
  8
0
 10
94.6903
 20
-148.443
 11
94.8444
 21
-148.42
  0
LINE
  8
0
 10
94.8444
 20
-148.42
 11
95
 21
-148.413
  0
LINE
  8
0
 10
95
 20
-148.413
 11
95.1556
 21
-148.42
  0
LINE
  8
0
 10
95.1556
 20
-148.42
 11
95.3097
 21
-148.443
  0
LINE
  8
0
 10
95.3097
 20
-148.443
 11
95.4608
 21
-148.481
  0
LINE
  8
0
 10
95.4608
 20
-148.481
 11
95.6075
 21
-148.533
  0
LINE
  8
0
 10
95.6075
 20
-148.533
 11
95.7483
 21
-148.6
  0
LINE
  8
0
 10
95.7483
 20
-148.6
 11
95.882
 21
-148.68
  0
LINE
  8
0
 10
95.882
 20
-148.68
 11
96.0071
 21
-148.773
  0
LINE
  8
0
 10
96.0071
 20
-148.773
 11
96.1225
 21
-148.877
  0
LINE
  8
0
 10
96.1225
 20
-148.877
 11
96.2272
 21
-148.993
  0
LINE
  8
0
 10
96.2272
 20
-148.993
 11
96.32
 21
-149.118
  0
LINE
  8
0
 10
96.32
 20
-149.118
 11
96.4
 21
-149.252
  0
LINE
  8
0
 10
96.4
 20
-149.252
 11
96.4667
 21
-149.392
  0
LINE
  8
0
 10
96.4667
 20
-149.392
 11
96.5191
 21
-149.539
  0
LINE
  8
0
 10
96.5191
 20
-149.539
 11
96.557
 21
-149.69
  0
LINE
  8
0
 10
96.557
 20
-149.69
 11
96.5799
 21
-149.844
  0
LINE
  8
0
 10
96.5799
 20
-149.844
 11
96.5875
 21
-150
  0
LINE
  8
0
 10
96.5875
 20
-150
 11
96.5799
 21
-150.156
  0
LINE
  8
0
 10
96.5799
 20
-150.156
 11
96.557
 21
-150.31
  0
LINE
  8
0
 10
96.557
 20
-150.31
 11
96.5191
 21
-150.461
  0
LINE
  8
0
 10
96.5191
 20
-150.461
 11
96.4667
 21
-150.608
  0
LINE
  8
0
 10
96.4667
 20
-150.608
 11
96.4
 21
-150.748
  0
LINE
  8
0
 10
96.4
 20
-150.748
 11
96.32
 21
-150.882
  0
LINE
  8
0
 10
96.32
 20
-150.882
 11
96.2272
 21
-151.007
  0
LINE
  8
0
 10
96.2272
 20
-151.007
 11
96.1225
 21
-151.123
  0
LINE
  8
0
 10
96.1225
 20
-151.123
 11
96.0071
 21
-151.227
  0
LINE
  8
0
 10
96.0071
 20
-151.227
 11
95.882
 21
-151.32
  0
LINE
  8
0
 10
95.882
 20
-151.32
 11
95.7483
 21
-151.4
  0
LINE
  8
0
 10
95.7483
 20
-151.4
 11
95.6075
 21
-151.467
  0
LINE
  8
0
 10
95.6075
 20
-151.467
 11
95.4608
 21
-151.519
  0
LINE
  8
0
 10
95.4608
 20
-151.519
 11
95.3097
 21
-151.557
  0
LINE
  8
0
 10
95.3097
 20
-151.557
 11
95.1556
 21
-151.58
  0
LINE
  8
0
 10
95.1556
 20
-151.58
 11
95
 21
-151.588
  0
LINE
  8
0
 10
95
 20
-151.588
 11
94.8444
 21
-151.58
  0
LINE
  8
0
 10
94.8444
 20
-151.58
 11
94.6903
 21
-151.557
  0
LINE
  8
0
 10
94.6903
 20
-151.557
 11
94.5392
 21
-151.519
  0
LINE
  8
0
 10
94.5392
 20
-151.519
 11
94.3925
 21
-151.467
  0
LINE
  8
0
 10
94.3925
 20
-151.467
 11
94.2517
 21
-151.4
  0
LINE
  8
0
 10
94.2517
 20
-151.4
 11
94.118
 21
-151.32
  0
LINE
  8
0
 10
94.118
 20
-151.32
 11
93.9929
 21
-151.227
  0
LINE
  8
0
 10
93.9929
 20
-151.227
 11
93.8775
 21
-151.123
  0
LINE
  8
0
 10
93.8775
 20
-151.123
 11
93.7728
 21
-151.007
  0
LINE
  8
0
 10
93.7728
 20
-151.007
 11
93.68
 21
-150.882
  0
LINE
  8
0
 10
93.68
 20
-150.882
 11
93.5999
 21
-150.748
  0
LINE
  8
0
 10
93.5999
 20
-150.748
 11
93.5333
 21
-150.608
  0
LINE
  8
0
 10
93.5333
 20
-150.608
 11
93.4809
 21
-150.461
  0
LINE
  8
0
 10
93.4809
 20
-150.461
 11
93.443
 21
-150.31
  0
LINE
  8
0
 10
93.443
 20
-150.31
 11
93.4201
 21
-150.156
  0
LINE
  8
0
 10
93.4201
 20
-150.156
 11
93.4125
 21
-150
  0
LINE
  8
0
 10
96.5169
 20
-25.3002
 11
96.5169
 21
-21.8002
  0
LINE
  8
0
 10
96.5169
 20
-21.8002
 11
106.517
 21
-21.8002
  0
LINE
  8
0
 10
106.517
 20
-21.8002
 11
106.688
 21
-21.8086
  0
LINE
  8
0
 10
106.688
 20
-21.8086
 11
106.858
 21
-21.8338
  0
LINE
  8
0
 10
106.858
 20
-21.8338
 11
107.025
 21
-21.8755
  0
LINE
  8
0
 10
107.025
 20
-21.8755
 11
107.187
 21
-21.9334
  0
LINE
  8
0
 10
107.187
 20
-21.9334
 11
107.342
 21
-22.0068
  0
LINE
  8
0
 10
107.342
 20
-22.0068
 11
107.489
 21
-22.0951
  0
LINE
  8
0
 10
107.489
 20
-22.0951
 11
107.627
 21
-22.1974
  0
LINE
  8
0
 10
107.627
 20
-22.1974
 11
107.754
 21
-22.3128
  0
LINE
  8
0
 10
107.754
 20
-22.3128
 11
107.87
 21
-22.44
  0
LINE
  8
0
 10
107.87
 20
-22.44
 11
107.972
 21
-22.5779
  0
LINE
  8
0
 10
107.972
 20
-22.5779
 11
108.06
 21
-22.7252
  0
LINE
  8
0
 10
108.06
 20
-22.7252
 11
108.134
 21
-22.8805
  0
LINE
  8
0
 10
108.134
 20
-22.8805
 11
108.192
 21
-23.0422
  0
LINE
  8
0
 10
108.192
 20
-23.0422
 11
108.233
 21
-23.2088
  0
LINE
  8
0
 10
108.233
 20
-23.2088
 11
108.258
 21
-23.3787
  0
LINE
  8
0
 10
108.258
 20
-23.3787
 11
108.267
 21
-23.5502
  0
LINE
  8
0
 10
108.267
 20
-23.5502
 11
108.258
 21
-23.7217
  0
LINE
  8
0
 10
108.258
 20
-23.7217
 11
108.233
 21
-23.8916
  0
LINE
  8
0
 10
108.233
 20
-23.8916
 11
108.192
 21
-24.0582
  0
LINE
  8
0
 10
108.192
 20
-24.0582
 11
108.134
 21
-24.2199
  0
LINE
  8
0
 10
108.134
 20
-24.2199
 11
108.06
 21
-24.3751
  0
LINE
  8
0
 10
108.06
 20
-24.3751
 11
107.972
 21
-24.5224
  0
LINE
  8
0
 10
107.972
 20
-24.5224
 11
107.87
 21
-24.6604
  0
LINE
  8
0
 10
107.87
 20
-24.6604
 11
107.754
 21
-24.7876
  0
LINE
  8
0
 10
107.754
 20
-24.7876
 11
107.627
 21
-24.903
  0
LINE
  8
0
 10
107.627
 20
-24.903
 11
107.489
 21
-25.0053
  0
LINE
  8
0
 10
107.489
 20
-25.0053
 11
107.342
 21
-25.0936
  0
LINE
  8
0
 10
107.342
 20
-25.0936
 11
107.187
 21
-25.167
  0
LINE
  8
0
 10
107.187
 20
-25.167
 11
107.025
 21
-25.2248
  0
LINE
  8
0
 10
107.025
 20
-25.2248
 11
106.858
 21
-25.2666
  0
LINE
  8
0
 10
106.858
 20
-25.2666
 11
106.688
 21
-25.2918
  0
LINE
  8
0
 10
106.688
 20
-25.2918
 11
106.517
 21
-25.3002
  0
LINE
  8
0
 10
106.517
 20
-25.3002
 11
96.5169
 21
-25.3002
  0
LINE
  8
0
 10
96.5169
 20
21.8002
 11
96.5169
 21
25.3002
  0
LINE
  8
0
 10
96.5169
 20
25.3002
 11
106.517
 21
25.3002
  0
LINE
  8
0
 10
106.517
 20
25.3002
 11
106.688
 21
25.2918
  0
LINE
  8
0
 10
106.688
 20
25.2918
 11
106.858
 21
25.2666
  0
LINE
  8
0
 10
106.858
 20
25.2666
 11
107.025
 21
25.2248
  0
LINE
  8
0
 10
107.025
 20
25.2248
 11
107.187
 21
25.167
  0
LINE
  8
0
 10
107.187
 20
25.167
 11
107.342
 21
25.0936
  0
LINE
  8
0
 10
107.342
 20
25.0936
 11
107.489
 21
25.0053
  0
LINE
  8
0
 10
107.489
 20
25.0053
 11
107.627
 21
24.903
  0
LINE
  8
0
 10
107.627
 20
24.903
 11
107.754
 21
24.7876
  0
LINE
  8
0
 10
107.754
 20
24.7876
 11
107.87
 21
24.6604
  0
LINE
  8
0
 10
107.87
 20
24.6604
 11
107.972
 21
24.5224
  0
LINE
  8
0
 10
107.972
 20
24.5224
 11
108.06
 21
24.3751
  0
LINE
  8
0
 10
108.06
 20
24.3751
 11
108.134
 21
24.2199
  0
LINE
  8
0
 10
108.134
 20
24.2199
 11
108.192
 21
24.0582
  0
LINE
  8
0
 10
108.192
 20
24.0582
 11
108.233
 21
23.8916
  0
LINE
  8
0
 10
108.233
 20
23.8916
 11
108.258
 21
23.7217
  0
LINE
  8
0
 10
108.258
 20
23.7217
 11
108.267
 21
23.5502
  0
LINE
  8
0
 10
108.267
 20
23.5502
 11
108.258
 21
23.3787
  0
LINE
  8
0
 10
108.258
 20
23.3787
 11
108.233
 21
23.2088
  0
LINE
  8
0
 10
108.233
 20
23.2088
 11
108.192
 21
23.0422
  0
LINE
  8
0
 10
108.192
 20
23.0422
 11
108.134
 21
22.8805
  0
LINE
  8
0
 10
108.134
 20
22.8805
 11
108.06
 21
22.7252
  0
LINE
  8
0
 10
108.06
 20
22.7252
 11
107.972
 21
22.5779
  0
LINE
  8
0
 10
107.972
 20
22.5779
 11
107.87
 21
22.44
  0
LINE
  8
0
 10
107.87
 20
22.44
 11
107.754
 21
22.3128
  0
LINE
  8
0
 10
107.754
 20
22.3128
 11
107.627
 21
22.1974
  0
LINE
  8
0
 10
107.627
 20
22.1974
 11
107.489
 21
22.0951
  0
LINE
  8
0
 10
107.489
 20
22.0951
 11
107.342
 21
22.0068
  0
LINE
  8
0
 10
107.342
 20
22.0068
 11
107.187
 21
21.9334
  0
LINE
  8
0
 10
107.187
 20
21.9334
 11
107.025
 21
21.8755
  0
LINE
  8
0
 10
107.025
 20
21.8755
 11
106.858
 21
21.8338
  0
LINE
  8
0
 10
106.858
 20
21.8338
 11
106.688
 21
21.8086
  0
LINE
  8
0
 10
106.688
 20
21.8086
 11
106.517
 21
21.8002
  0
LINE
  8
0
 10
106.517
 20
21.8002
 11
96.5169
 21
21.8002
  0
ENDSEC
  0
SECTION
  2
OBJECTS
  0
DICTIONARY
  0
ENDSEC
  0
EOF
