  0
SECTION
  2
BLOCKS
  0
ENDSEC
  0
SECTION
  2
ENTITIES
  0
LINE
  8
0
 10
-125
 20
-150
 11
-124.964
 21
-151.472
  0
LINE
  8
0
 10
-124.964
 20
-151.472
 11
-124.856
 21
-152.941
  0
LINE
  8
0
 10
-124.856
 20
-152.941
 11
-124.675
 21
-154.402
  0
LINE
  8
0
 10
-124.675
 20
-154.402
 11
-124.424
 21
-155.853
  0
LINE
  8
0
 10
-124.424
 20
-155.853
 11
-124.101
 21
-157.289
  0
LINE
  8
0
 10
-124.101
 20
-157.289
 11
-123.708
 21
-158.709
  0
LINE
  8
0
 10
-123.708
 20
-158.709
 11
-123.246
 21
-160.107
  0
LINE
  8
0
 10
-123.246
 20
-160.107
 11
-122.716
 21
-161.481
  0
LINE
  8
0
 10
-122.716
 20
-161.481
 11
-122.12
 21
-162.827
  0
LINE
  8
0
 10
-122.12
 20
-162.827
 11
-121.458
 21
-164.142
  0
LINE
  8
0
 10
-121.458
 20
-164.142
 11
-120.732
 21
-165.423
  0
LINE
  8
0
 10
-120.732
 20
-165.423
 11
-119.944
 21
-166.667
  0
LINE
  8
0
 10
-119.944
 20
-166.667
 11
-119.096
 21
-167.871
  0
LINE
  8
0
 10
-119.096
 20
-167.871
 11
-118.19
 21
-169.032
  0
LINE
  8
0
 10
-118.19
 20
-169.032
 11
-117.229
 21
-170.147
  0
LINE
  8
0
 10
-117.229
 20
-170.147
 11
-116.213
 21
-171.213
  0
LINE
  8
0
 10
-116.213
 20
-171.213
 11
-115.147
 21
-172.229
  0
LINE
  8
0
 10
-115.147
 20
-172.229
 11
-114.032
 21
-173.19
  0
LINE
  8
0
 10
-114.032
 20
-173.19
 11
-112.871
 21
-174.096
  0
LINE
  8
0
 10
-112.871
 20
-174.096
 11
-111.667
 21
-174.944
  0
LINE
  8
0
 10
-111.667
 20
-174.944
 11
-110.423
 21
-175.732
  0
LINE
  8
0
 10
-110.423
 20
-175.732
 11
-109.142
 21
-176.458
  0
LINE
  8
0
 10
-109.142
 20
-176.458
 11
-107.827
 21
-177.12
  0
LINE
  8
0
 10
-107.827
 20
-177.12
 11
-106.481
 21
-177.716
  0
LINE
  8
0
 10
-106.481
 20
-177.716
 11
-105.107
 21
-178.246
  0
LINE
  8
0
 10
-105.107
 20
-178.246
 11
-103.709
 21
-178.708
  0
LINE
  8
0
 10
-103.709
 20
-178.708
 11
-102.289
 21
-179.101
  0
LINE
  8
0
 10
-102.289
 20
-179.101
 11
-100.853
 21
-179.424
  0
LINE
  8
0
 10
-100.853
 20
-179.424
 11
-99.4019
 21
-179.675
  0
LINE
  8
0
 10
-99.4019
 20
-179.675
 11
-97.9405
 21
-179.856
  0
LINE
  8
0
 10
-97.9405
 20
-179.856
 11
-96.472
 21
-179.964
  0
LINE
  8
0
 10
-96.472
 20
-179.964
 11
-95
 21
-180
  0
LINE
  8
0
 10
-95
 20
-180
 11
-95
 21
-180
  0
LINE
  8
0
 10
-95
 20
-180
 11
-95
 21
-180
  0
LINE
  8
0
 10
-95
 20
-180
 11
-14.65
 21
-180
  0
LINE
  8
0
 10
-14.65
 20
-180
 11
-14.65
 21
-88.7667
  0
LINE
  8
0
 10
-14.65
 20
-88.7667
 11
14.65
 21
-88.7667
  0
LINE
  8
0
 10
14.65
 20
-88.7667
 11
14.65
 21
-180
  0
LINE
  8
0
 10
14.65
 20
-180
 11
95
 21
-180
  0
LINE
  8
0
 10
95
 20
-180
 11
96.472
 21
-179.964
  0
LINE
  8
0
 10
96.472
 20
-179.964
 11
97.9405
 21
-179.856
  0
LINE
  8
0
 10
97.9405
 20
-179.856
 11
99.4019
 21
-179.675
  0
LINE
  8
0
 10
99.4019
 20
-179.675
 11
100.853
 21
-179.424
  0
LINE
  8
0
 10
100.853
 20
-179.424
 11
102.289
 21
-179.101
  0
LINE
  8
0
 10
102.289
 20
-179.101
 11
103.709
 21
-178.708
  0
LINE
  8
0
 10
103.709
 20
-178.708
 11
105.107
 21
-178.246
  0
LINE
  8
0
 10
105.107
 20
-178.246
 11
106.481
 21
-177.716
  0
LINE
  8
0
 10
106.481
 20
-177.716
 11
107.827
 21
-177.12
  0
LINE
  8
0
 10
107.827
 20
-177.12
 11
109.142
 21
-176.458
  0
LINE
  8
0
 10
109.142
 20
-176.458
 11
110.423
 21
-175.732
  0
LINE
  8
0
 10
110.423
 20
-175.732
 11
111.667
 21
-174.944
  0
LINE
  8
0
 10
111.667
 20
-174.944
 11
112.871
 21
-174.096
  0
LINE
  8
0
 10
112.871
 20
-174.096
 11
114.032
 21
-173.19
  0
LINE
  8
0
 10
114.032
 20
-173.19
 11
115.147
 21
-172.229
  0
LINE
  8
0
 10
115.147
 20
-172.229
 11
116.213
 21
-171.213
  0
LINE
  8
0
 10
116.213
 20
-171.213
 11
117.229
 21
-170.147
  0
LINE
  8
0
 10
117.229
 20
-170.147
 11
118.19
 21
-169.032
  0
LINE
  8
0
 10
118.19
 20
-169.032
 11
119.096
 21
-167.871
  0
LINE
  8
0
 10
119.096
 20
-167.871
 11
119.944
 21
-166.667
  0
LINE
  8
0
 10
119.944
 20
-166.667
 11
120.732
 21
-165.423
  0
LINE
  8
0
 10
120.732
 20
-165.423
 11
121.458
 21
-164.142
  0
LINE
  8
0
 10
121.458
 20
-164.142
 11
122.12
 21
-162.827
  0
LINE
  8
0
 10
122.12
 20
-162.827
 11
122.716
 21
-161.481
  0
LINE
  8
0
 10
122.716
 20
-161.481
 11
123.246
 21
-160.107
  0
LINE
  8
0
 10
123.246
 20
-160.107
 11
123.708
 21
-158.709
  0
LINE
  8
0
 10
123.708
 20
-158.709
 11
124.101
 21
-157.289
  0
LINE
  8
0
 10
124.101
 20
-157.289
 11
124.424
 21
-155.853
  0
LINE
  8
0
 10
124.424
 20
-155.853
 11
124.675
 21
-154.402
  0
LINE
  8
0
 10
124.675
 20
-154.402
 11
124.856
 21
-152.941
  0
LINE
  8
0
 10
124.856
 20
-152.941
 11
124.964
 21
-151.472
  0
LINE
  8
0
 10
124.964
 20
-151.472
 11
125
 21
-150
  0
LINE
  8
0
 10
125
 20
-150
 11
125
 21
150
  0
LINE
  8
0
 10
125
 20
150
 11
124.99
 21
150.398
  0
LINE
  8
0
 10
124.99
 20
150.398
 11
36.305
 21
99.1961
  0
LINE
  8
0
 10
36.305
 20
99.1961
 11
21.655
 21
124.571
  0
LINE
  8
0
 10
21.655
 20
124.571
 11
110.345
 21
175.776
  0
LINE
  8
0
 10
110.345
 20
175.776
 11
109.142
 21
176.458
  0
LINE
  8
0
 10
109.142
 20
176.458
 11
107.827
 21
177.12
  0
LINE
  8
0
 10
107.827
 20
177.12
 11
106.481
 21
177.716
  0
LINE
  8
0
 10
106.481
 20
177.716
 11
105.107
 21
178.246
  0
LINE
  8
0
 10
105.107
 20
178.246
 11
103.709
 21
178.708
  0
LINE
  8
0
 10
103.709
 20
178.708
 11
102.289
 21
179.101
  0
LINE
  8
0
 10
102.289
 20
179.101
 11
100.853
 21
179.424
  0
LINE
  8
0
 10
100.853
 20
179.424
 11
99.4019
 21
179.675
  0
LINE
  8
0
 10
99.4019
 20
179.675
 11
97.9405
 21
179.856
  0
LINE
  8
0
 10
97.9405
 20
179.856
 11
96.472
 21
179.964
  0
LINE
  8
0
 10
96.472
 20
179.964
 11
95
 21
180
  0
LINE
  8
0
 10
95
 20
180
 11
-95
 21
180
  0
LINE
  8
0
 10
-95
 20
180
 11
-96.472
 21
179.964
  0
LINE
  8
0
 10
-96.472
 20
179.964
 11
-97.9405
 21
179.856
  0
LINE
  8
0
 10
-97.9405
 20
179.856
 11
-99.4019
 21
179.675
  0
LINE
  8
0
 10
-99.4019
 20
179.675
 11
-100.853
 21
179.424
  0
LINE
  8
0
 10
-100.853
 20
179.424
 11
-102.289
 21
179.101
  0
LINE
  8
0
 10
-102.289
 20
179.101
 11
-103.709
 21
178.708
  0
LINE
  8
0
 10
-103.709
 20
178.708
 11
-105.107
 21
178.246
  0
LINE
  8
0
 10
-105.107
 20
178.246
 11
-106.481
 21
177.716
  0
LINE
  8
0
 10
-106.481
 20
177.716
 11
-107.827
 21
177.12
  0
LINE
  8
0
 10
-107.827
 20
177.12
 11
-109.142
 21
176.458
  0
LINE
  8
0
 10
-109.142
 20
176.458
 11
-110.345
 21
175.776
  0
LINE
  8
0
 10
-110.345
 20
175.776
 11
-21.655
 21
124.571
  0
LINE
  8
0
 10
-21.655
 20
124.571
 11
-36.305
 21
99.1961
  0
LINE
  8
0
 10
-36.305
 20
99.1961
 11
-124.99
 21
150.398
  0
LINE
  8
0
 10
-124.99
 20
150.398
 11
-125
 21
150
  0
LINE
  8
0
 10
-125
 20
150
 11
-125
 21
-150
  0
LINE
  8
0
 10
-96.5875
 20
-150
 11
-96.5799
 21
-149.844
  0
LINE
  8
0
 10
-96.5799
 20
-149.844
 11
-96.557
 21
-149.69
  0
LINE
  8
0
 10
-96.557
 20
-149.69
 11
-96.5191
 21
-149.539
  0
LINE
  8
0
 10
-96.5191
 20
-149.539
 11
-96.4667
 21
-149.392
  0
LINE
  8
0
 10
-96.4667
 20
-149.392
 11
-96.4001
 21
-149.252
  0
LINE
  8
0
 10
-96.4001
 20
-149.252
 11
-96.32
 21
-149.118
  0
LINE
  8
0
 10
-96.32
 20
-149.118
 11
-96.2272
 21
-148.993
  0
LINE
  8
0
 10
-96.2272
 20
-148.993
 11
-96.1225
 21
-148.877
  0
LINE
  8
0
 10
-96.1225
 20
-148.877
 11
-96.0071
 21
-148.773
  0
LINE
  8
0
 10
-96.0071
 20
-148.773
 11
-95.882
 21
-148.68
  0
LINE
  8
0
 10
-95.882
 20
-148.68
 11
-95.7483
 21
-148.6
  0
LINE
  8
0
 10
-95.7483
 20
-148.6
 11
-95.6075
 21
-148.533
  0
LINE
  8
0
 10
-95.6075
 20
-148.533
 11
-95.4608
 21
-148.481
  0
LINE
  8
0
 10
-95.4608
 20
-148.481
 11
-95.3097
 21
-148.443
  0
LINE
  8
0
 10
-95.3097
 20
-148.443
 11
-95.1556
 21
-148.42
  0
LINE
  8
0
 10
-95.1556
 20
-148.42
 11
-95
 21
-148.413
  0
LINE
  8
0
 10
-95
 20
-148.413
 11
-94.8444
 21
-148.42
  0
LINE
  8
0
 10
-94.8444
 20
-148.42
 11
-94.6903
 21
-148.443
  0
LINE
  8
0
 10
-94.6903
 20
-148.443
 11
-94.5392
 21
-148.481
  0
LINE
  8
0
 10
-94.5392
 20
-148.481
 11
-94.3925
 21
-148.533
  0
LINE
  8
0
 10
-94.3925
 20
-148.533
 11
-94.2517
 21
-148.6
  0
LINE
  8
0
 10
-94.2517
 20
-148.6
 11
-94.118
 21
-148.68
  0
LINE
  8
0
 10
-94.118
 20
-148.68
 11
-93.9929
 21
-148.773
  0
LINE
  8
0
 10
-93.9929
 20
-148.773
 11
-93.8775
 21
-148.877
  0
LINE
  8
0
 10
-93.8775
 20
-148.877
 11
-93.7728
 21
-148.993
  0
LINE
  8
0
 10
-93.7728
 20
-148.993
 11
-93.68
 21
-149.118
  0
LINE
  8
0
 10
-93.68
 20
-149.118
 11
-93.6
 21
-149.252
  0
LINE
  8
0
 10
-93.6
 20
-149.252
 11
-93.5333
 21
-149.392
  0
LINE
  8
0
 10
-93.5333
 20
-149.392
 11
-93.4809
 21
-149.539
  0
LINE
  8
0
 10
-93.4809
 20
-149.539
 11
-93.443
 21
-149.69
  0
LINE
  8
0
 10
-93.443
 20
-149.69
 11
-93.4201
 21
-149.844
  0
LINE
  8
0
 10
-93.4201
 20
-149.844
 11
-93.4125
 21
-150
  0
LINE
  8
0
 10
-93.4125
 20
-150
 11
-93.4201
 21
-150.156
  0
LINE
  8
0
 10
-93.4201
 20
-150.156
 11
-93.443
 21
-150.31
  0
LINE
  8
0
 10
-93.443
 20
-150.31
 11
-93.4809
 21
-150.461
  0
LINE
  8
0
 10
-93.4809
 20
-150.461
 11
-93.5333
 21
-150.608
  0
LINE
  8
0
 10
-93.5333
 20
-150.608
 11
-93.6
 21
-150.748
  0
LINE
  8
0
 10
-93.6
 20
-150.748
 11
-93.68
 21
-150.882
  0
LINE
  8
0
 10
-93.68
 20
-150.882
 11
-93.7728
 21
-151.007
  0
LINE
  8
0
 10
-93.7728
 20
-151.007
 11
-93.8775
 21
-151.123
  0
LINE
  8
0
 10
-93.8775
 20
-151.123
 11
-93.9929
 21
-151.227
  0
LINE
  8
0
 10
-93.9929
 20
-151.227
 11
-94.118
 21
-151.32
  0
LINE
  8
0
 10
-94.118
 20
-151.32
 11
-94.2517
 21
-151.4
  0
LINE
  8
0
 10
-94.2517
 20
-151.4
 11
-94.3925
 21
-151.467
  0
LINE
  8
0
 10
-94.3925
 20
-151.467
 11
-94.5392
 21
-151.519
  0
LINE
  8
0
 10
-94.5392
 20
-151.519
 11
-94.6903
 21
-151.557
  0
LINE
  8
0
 10
-94.6903
 20
-151.557
 11
-94.8444
 21
-151.58
  0
LINE
  8
0
 10
-94.8444
 20
-151.58
 11
-95
 21
-151.588
  0
LINE
  8
0
 10
-95
 20
-151.588
 11
-95.1556
 21
-151.58
  0
LINE
  8
0
 10
-95.1556
 20
-151.58
 11
-95.3097
 21
-151.557
  0
LINE
  8
0
 10
-95.3097
 20
-151.557
 11
-95.4608
 21
-151.519
  0
LINE
  8
0
 10
-95.4608
 20
-151.519
 11
-95.6075
 21
-151.467
  0
LINE
  8
0
 10
-95.6075
 20
-151.467
 11
-95.7483
 21
-151.4
  0
LINE
  8
0
 10
-95.7483
 20
-151.4
 11
-95.882
 21
-151.32
  0
LINE
  8
0
 10
-95.882
 20
-151.32
 11
-96.0071
 21
-151.227
  0
LINE
  8
0
 10
-96.0071
 20
-151.227
 11
-96.1225
 21
-151.123
  0
LINE
  8
0
 10
-96.1225
 20
-151.123
 11
-96.2272
 21
-151.007
  0
LINE
  8
0
 10
-96.2272
 20
-151.007
 11
-96.32
 21
-150.882
  0
LINE
  8
0
 10
-96.32
 20
-150.882
 11
-96.4001
 21
-150.748
  0
LINE
  8
0
 10
-96.4001
 20
-150.748
 11
-96.4667
 21
-150.608
  0
LINE
  8
0
 10
-96.4667
 20
-150.608
 11
-96.5191
 21
-150.461
  0
LINE
  8
0
 10
-96.5191
 20
-150.461
 11
-96.557
 21
-150.31
  0
LINE
  8
0
 10
-96.557
 20
-150.31
 11
-96.5799
 21
-150.156
  0
LINE
  8
0
 10
-96.5799
 20
-150.156
 11
-96.5875
 21
-150
  0
LINE
  8
0
 10
-4.1
 20
0
 11
-4.08026
 21
0.40187
  0
LINE
  8
0
 10
-4.08026
 20
0.40187
 11
-4.02122
 21
0.79987
  0
LINE
  8
0
 10
-4.02122
 20
0.79987
 11
-3.92346
 21
1.19017
  0
LINE
  8
0
 10
-3.92346
 20
1.19017
 11
-3.78791
 21
1.569
  0
LINE
  8
0
 10
-3.78791
 20
1.569
 11
-3.61588
 21
1.93273
  0
LINE
  8
0
 10
-3.61588
 20
1.93273
 11
-3.40903
 21
2.27784
  0
LINE
  8
0
 10
-3.40903
 20
2.27784
 11
-3.16934
 21
2.60101
  0
LINE
  8
0
 10
-3.16934
 20
2.60101
 11
-2.89914
 21
2.89914
  0
LINE
  8
0
 10
-2.89914
 20
2.89914
 11
-2.60101
 21
3.16934
  0
LINE
  8
0
 10
-2.60101
 20
3.16934
 11
-2.27784
 21
3.40903
  0
LINE
  8
0
 10
-2.27784
 20
3.40903
 11
-1.93273
 21
3.61588
  0
LINE
  8
0
 10
-1.93273
 20
3.61588
 11
-1.569
 21
3.78791
  0
LINE
  8
0
 10
-1.569
 20
3.78791
 11
-1.19017
 21
3.92346
  0
LINE
  8
0
 10
-1.19017
 20
3.92346
 11
-0.79987
 21
4.02122
  0
LINE
  8
0
 10
-0.79987
 20
4.02122
 11
-0.40187
 21
4.08026
  0
LINE
  8
0
 10
-0.40187
 20
4.08026
 11
0
 21
4.1
  0
LINE
  8
0
 10
0
 20
4.1
 11
0.40187
 21
4.08026
  0
LINE
  8
0
 10
0.40187
 20
4.08026
 11
0.79987
 21
4.02122
  0
LINE
  8
0
 10
0.79987
 20
4.02122
 11
1.19017
 21
3.92346
  0
LINE
  8
0
 10
1.19017
 20
3.92346
 11
1.569
 21
3.78791
  0
LINE
  8
0
 10
1.569
 20
3.78791
 11
1.93273
 21
3.61588
  0
LINE
  8
0
 10
1.93273
 20
3.61588
 11
2.27784
 21
3.40903
  0
LINE
  8
0
 10
2.27784
 20
3.40903
 11
2.60101
 21
3.16934
  0
LINE
  8
0
 10
2.60101
 20
3.16934
 11
2.89914
 21
2.89914
  0
LINE
  8
0
 10
2.89914
 20
2.89914
 11
3.16934
 21
2.60101
  0
LINE
  8
0
 10
3.16934
 20
2.60101
 11
3.40903
 21
2.27784
  0
LINE
  8
0
 10
3.40903
 20
2.27784
 11
3.61588
 21
1.93273
  0
LINE
  8
0
 10
3.61588
 20
1.93273
 11
3.78791
 21
1.569
  0
LINE
  8
0
 10
3.78791
 20
1.569
 11
3.92346
 21
1.19017
  0
LINE
  8
0
 10
3.92346
 20
1.19017
 11
4.02122
 21
0.79987
  0
LINE
  8
0
 10
4.02122
 20
0.79987
 11
4.08026
 21
0.40187
  0
LINE
  8
0
 10
4.08026
 20
0.40187
 11
4.1
 21
0
  0
LINE
  8
0
 10
4.1
 20
0
 11
4.08026
 21
-0.40187
  0
LINE
  8
0
 10
4.08026
 20
-0.40187
 11
4.02122
 21
-0.79987
  0
LINE
  8
0
 10
4.02122
 20
-0.79987
 11
3.92346
 21
-1.19017
  0
LINE
  8
0
 10
3.92346
 20
-1.19017
 11
3.78791
 21
-1.569
  0
LINE
  8
0
 10
3.78791
 20
-1.569
 11
3.61588
 21
-1.93273
  0
LINE
  8
0
 10
3.61588
 20
-1.93273
 11
3.40903
 21
-2.27784
  0
LINE
  8
0
 10
3.40903
 20
-2.27784
 11
3.16934
 21
-2.60101
  0
LINE
  8
0
 10
3.16934
 20
-2.60101
 11
2.89914
 21
-2.89914
  0
LINE
  8
0
 10
2.89914
 20
-2.89914
 11
2.60101
 21
-3.16934
  0
LINE
  8
0
 10
2.60101
 20
-3.16934
 11
2.27784
 21
-3.40903
  0
LINE
  8
0
 10
2.27784
 20
-3.40903
 11
1.93273
 21
-3.61588
  0
LINE
  8
0
 10
1.93273
 20
-3.61588
 11
1.569
 21
-3.78791
  0
LINE
  8
0
 10
1.569
 20
-3.78791
 11
1.19017
 21
-3.92346
  0
LINE
  8
0
 10
1.19017
 20
-3.92346
 11
0.79987
 21
-4.02122
  0
LINE
  8
0
 10
0.79987
 20
-4.02122
 11
0.40187
 21
-4.08026
  0
LINE
  8
0
 10
0.40187
 20
-4.08026
 11
0
 21
-4.1
  0
LINE
  8
0
 10
0
 20
-4.1
 11
-0.40187
 21
-4.08026
  0
LINE
  8
0
 10
-0.40187
 20
-4.08026
 11
-0.79987
 21
-4.02122
  0
LINE
  8
0
 10
-0.79987
 20
-4.02122
 11
-1.19017
 21
-3.92346
  0
LINE
  8
0
 10
-1.19017
 20
-3.92346
 11
-1.569
 21
-3.78791
  0
LINE
  8
0
 10
-1.569
 20
-3.78791
 11
-1.93273
 21
-3.61588
  0
LINE
  8
0
 10
-1.93273
 20
-3.61588
 11
-2.27784
 21
-3.40903
  0
LINE
  8
0
 10
-2.27784
 20
-3.40903
 11
-2.60101
 21
-3.16934
  0
LINE
  8
0
 10
-2.60101
 20
-3.16934
 11
-2.89914
 21
-2.89914
  0
LINE
  8
0
 10
-2.89914
 20
-2.89914
 11
-3.16934
 21
-2.60101
  0
LINE
  8
0
 10
-3.16934
 20
-2.60101
 11
-3.40903
 21
-2.27784
  0
LINE
  8
0
 10
-3.40903
 20
-2.27784
 11
-3.61588
 21
-1.93273
  0
LINE
  8
0
 10
-3.61588
 20
-1.93273
 11
-3.78791
 21
-1.569
  0
LINE
  8
0
 10
-3.78791
 20
-1.569
 11
-3.92346
 21
-1.19017
  0
LINE
  8
0
 10
-3.92346
 20
-1.19017
 11
-4.02122
 21
-0.79987
  0
LINE
  8
0
 10
-4.02122
 20
-0.79987
 11
-4.08026
 21
-0.40187
  0
LINE
  8
0
 10
-4.08026
 20
-0.40187
 11
-4.1
 21
0
  0
LINE
  8
0
 10
-1.5875
 20
150
 11
-1.57986
 21
150.156
  0
LINE
  8
0
 10
-1.57986
 20
150.156
 11
-1.557
 21
150.31
  0
LINE
  8
0
 10
-1.557
 20
150.31
 11
-1.51914
 21
150.461
  0
LINE
  8
0
 10
-1.51914
 20
150.461
 11
-1.46666
 21
150.608
  0
LINE
  8
0
 10
-1.46666
 20
150.608
 11
-1.40005
 21
150.748
  0
LINE
  8
0
 10
-1.40005
 20
150.748
 11
-1.31996
 21
150.882
  0
LINE
  8
0
 10
-1.31996
 20
150.882
 11
-1.22715
 21
151.007
  0
LINE
  8
0
 10
-1.22715
 20
151.007
 11
-1.12253
 21
151.123
  0
LINE
  8
0
 10
-1.12253
 20
151.123
 11
-1.0071
 21
151.227
  0
LINE
  8
0
 10
-1.0071
 20
151.227
 11
-0.881968
 21
151.32
  0
LINE
  8
0
 10
-0.881968
 20
151.32
 11
-0.748343
 21
151.4
  0
LINE
  8
0
 10
-0.748343
 20
151.4
 11
-0.607511
 21
151.467
  0
LINE
  8
0
 10
-0.607511
 20
151.467
 11
-0.460828
 21
151.519
  0
LINE
  8
0
 10
-0.460828
 20
151.519
 11
-0.309707
 21
151.557
  0
LINE
  8
0
 10
-0.309707
 20
151.557
 11
-0.155602
 21
151.58
  0
LINE
  8
0
 10
-0.155602
 20
151.58
 11
0
 21
151.587
  0
LINE
  8
0
 10
0
 20
151.587
 11
0.155602
 21
151.58
  0
LINE
  8
0
 10
0.155602
 20
151.58
 11
0.309706
 21
151.557
  0
LINE
  8
0
 10
0.309706
 20
151.557
 11
0.460827
 21
151.519
  0
LINE
  8
0
 10
0.460827
 20
151.519
 11
0.60751
 21
151.467
  0
LINE
  8
0
 10
0.60751
 20
151.467
 11
0.748342
 21
151.4
  0
LINE
  8
0
 10
0.748342
 20
151.4
 11
0.881968
 21
151.32
  0
LINE
  8
0
 10
0.881968
 20
151.32
 11
1.0071
 21
151.227
  0
LINE
  8
0
 10
1.0071
 20
151.227
 11
1.12253
 21
151.123
  0
LINE
  8
0
 10
1.12253
 20
151.123
 11
1.22715
 21
151.007
  0
LINE
  8
0
 10
1.22715
 20
151.007
 11
1.31996
 21
150.882
  0
LINE
  8
0
 10
1.31996
 20
150.882
 11
1.40005
 21
150.748
  0
LINE
  8
0
 10
1.40005
 20
150.748
 11
1.46666
 21
150.608
  0
LINE
  8
0
 10
1.46666
 20
150.608
 11
1.51914
 21
150.461
  0
LINE
  8
0
 10
1.51914
 20
150.461
 11
1.557
 21
150.31
  0
LINE
  8
0
 10
1.557
 20
150.31
 11
1.57985
 21
150.156
  0
LINE
  8
0
 10
1.57985
 20
150.156
 11
1.5875
 21
150
  0
LINE
  8
0
 10
1.5875
 20
150
 11
1.57985
 21
149.844
  0
LINE
  8
0
 10
1.57985
 20
149.844
 11
1.557
 21
149.69
  0
LINE
  8
0
 10
1.557
 20
149.69
 11
1.51914
 21
149.539
  0
LINE
  8
0
 10
1.51914
 20
149.539
 11
1.46666
 21
149.392
  0
LINE
  8
0
 10
1.46666
 20
149.392
 11
1.40005
 21
149.252
  0
LINE
  8
0
 10
1.40005
 20
149.252
 11
1.31996
 21
149.118
  0
LINE
  8
0
 10
1.31996
 20
149.118
 11
1.22715
 21
148.993
  0
LINE
  8
0
 10
1.22715
 20
148.993
 11
1.12253
 21
148.877
  0
LINE
  8
0
 10
1.12253
 20
148.877
 11
1.0071
 21
148.773
  0
LINE
  8
0
 10
1.0071
 20
148.773
 11
0.881968
 21
148.68
  0
LINE
  8
0
 10
0.881968
 20
148.68
 11
0.748342
 21
148.6
  0
LINE
  8
0
 10
0.748342
 20
148.6
 11
0.60751
 21
148.533
  0
LINE
  8
0
 10
0.60751
 20
148.533
 11
0.460827
 21
148.481
  0
LINE
  8
0
 10
0.460827
 20
148.481
 11
0.309706
 21
148.443
  0
LINE
  8
0
 10
0.309706
 20
148.443
 11
0.155602
 21
148.42
  0
LINE
  8
0
 10
0.155602
 20
148.42
 11
0
 21
148.412
  0
LINE
  8
0
 10
0
 20
148.412
 11
-0.155602
 21
148.42
  0
LINE
  8
0
 10
-0.155602
 20
148.42
 11
-0.309707
 21
148.443
  0
LINE
  8
0
 10
-0.309707
 20
148.443
 11
-0.460828
 21
148.481
  0
LINE
  8
0
 10
-0.460828
 20
148.481
 11
-0.607511
 21
148.533
  0
LINE
  8
0
 10
-0.607511
 20
148.533
 11
-0.748343
 21
148.6
  0
LINE
  8
0
 10
-0.748343
 20
148.6
 11
-0.881968
 21
148.68
  0
LINE
  8
0
 10
-0.881968
 20
148.68
 11
-1.0071
 21
148.773
  0
LINE
  8
0
 10
-1.0071
 20
148.773
 11
-1.12253
 21
148.877
  0
LINE
  8
0
 10
-1.12253
 20
148.877
 11
-1.22715
 21
148.993
  0
LINE
  8
0
 10
-1.22715
 20
148.993
 11
-1.31996
 21
149.118
  0
LINE
  8
0
 10
-1.31996
 20
149.118
 11
-1.40005
 21
149.252
  0
LINE
  8
0
 10
-1.40005
 20
149.252
 11
-1.46666
 21
149.392
  0
LINE
  8
0
 10
-1.46666
 20
149.392
 11
-1.51914
 21
149.539
  0
LINE
  8
0
 10
-1.51914
 20
149.539
 11
-1.557
 21
149.69
  0
LINE
  8
0
 10
-1.557
 20
149.69
 11
-1.57986
 21
149.844
  0
LINE
  8
0
 10
-1.57986
 20
149.844
 11
-1.5875
 21
150
  0
LINE
  8
0
 10
49.4165
 20
-25.3002
 11
49.4165
 21
-21.8002
  0
LINE
  8
0
 10
49.4165
 20
-21.8002
 11
59.4165
 21
-21.8002
  0
LINE
  8
0
 10
59.4165
 20
-21.8002
 11
59.588
 21
-21.8086
  0
LINE
  8
0
 10
59.588
 20
-21.8086
 11
59.7579
 21
-21.8338
  0
LINE
  8
0
 10
59.7579
 20
-21.8338
 11
59.9245
 21
-21.8755
  0
LINE
  8
0
 10
59.9245
 20
-21.8755
 11
60.0862
 21
-21.9334
  0
LINE
  8
0
 10
60.0862
 20
-21.9334
 11
60.2414
 21
-22.0068
  0
LINE
  8
0
 10
60.2414
 20
-22.0068
 11
60.3887
 21
-22.0951
  0
LINE
  8
0
 10
60.3887
 20
-22.0951
 11
60.5267
 21
-22.1974
  0
LINE
  8
0
 10
60.5267
 20
-22.1974
 11
60.6539
 21
-22.3128
  0
LINE
  8
0
 10
60.6539
 20
-22.3128
 11
60.7692
 21
-22.44
  0
LINE
  8
0
 10
60.7692
 20
-22.44
 11
60.8715
 21
-22.5779
  0
LINE
  8
0
 10
60.8715
 20
-22.5779
 11
60.9598
 21
-22.7252
  0
LINE
  8
0
 10
60.9598
 20
-22.7252
 11
61.0333
 21
-22.8805
  0
LINE
  8
0
 10
61.0333
 20
-22.8805
 11
61.0911
 21
-23.0422
  0
LINE
  8
0
 10
61.0911
 20
-23.0422
 11
61.1329
 21
-23.2088
  0
LINE
  8
0
 10
61.1329
 20
-23.2088
 11
61.158
 21
-23.3787
  0
LINE
  8
0
 10
61.158
 20
-23.3787
 11
61.1665
 21
-23.5502
  0
LINE
  8
0
 10
61.1665
 20
-23.5502
 11
61.158
 21
-23.7217
  0
LINE
  8
0
 10
61.158
 20
-23.7217
 11
61.1329
 21
-23.8916
  0
LINE
  8
0
 10
61.1329
 20
-23.8916
 11
61.0911
 21
-24.0582
  0
LINE
  8
0
 10
61.0911
 20
-24.0582
 11
61.0333
 21
-24.2199
  0
LINE
  8
0
 10
61.0333
 20
-24.2199
 11
60.9598
 21
-24.3751
  0
LINE
  8
0
 10
60.9598
 20
-24.3751
 11
60.8715
 21
-24.5224
  0
LINE
  8
0
 10
60.8715
 20
-24.5224
 11
60.7692
 21
-24.6604
  0
LINE
  8
0
 10
60.7692
 20
-24.6604
 11
60.6539
 21
-24.7876
  0
LINE
  8
0
 10
60.6539
 20
-24.7876
 11
60.5267
 21
-24.903
  0
LINE
  8
0
 10
60.5267
 20
-24.903
 11
60.3887
 21
-25.0053
  0
LINE
  8
0
 10
60.3887
 20
-25.0053
 11
60.2414
 21
-25.0936
  0
LINE
  8
0
 10
60.2414
 20
-25.0936
 11
60.0862
 21
-25.167
  0
LINE
  8
0
 10
60.0862
 20
-25.167
 11
59.9245
 21
-25.2248
  0
LINE
  8
0
 10
59.9245
 20
-25.2248
 11
59.7579
 21
-25.2666
  0
LINE
  8
0
 10
59.7579
 20
-25.2666
 11
59.588
 21
-25.2918
  0
LINE
  8
0
 10
59.588
 20
-25.2918
 11
59.4165
 21
-25.3002
  0
LINE
  8
0
 10
59.4165
 20
-25.3002
 11
49.4165
 21
-25.3002
  0
LINE
  8
0
 10
49.4165
 20
21.8002
 11
49.4165
 21
25.3002
  0
LINE
  8
0
 10
49.4165
 20
25.3002
 11
59.4165
 21
25.3002
  0
LINE
  8
0
 10
59.4165
 20
25.3002
 11
59.588
 21
25.2918
  0
LINE
  8
0
 10
59.588
 20
25.2918
 11
59.7579
 21
25.2666
  0
LINE
  8
0
 10
59.7579
 20
25.2666
 11
59.9245
 21
25.2248
  0
LINE
  8
0
 10
59.9245
 20
25.2248
 11
60.0862
 21
25.167
  0
LINE
  8
0
 10
60.0862
 20
25.167
 11
60.2414
 21
25.0936
  0
LINE
  8
0
 10
60.2414
 20
25.0936
 11
60.3887
 21
25.0053
  0
LINE
  8
0
 10
60.3887
 20
25.0053
 11
60.5267
 21
24.903
  0
LINE
  8
0
 10
60.5267
 20
24.903
 11
60.6539
 21
24.7876
  0
LINE
  8
0
 10
60.6539
 20
24.7876
 11
60.7692
 21
24.6604
  0
LINE
  8
0
 10
60.7692
 20
24.6604
 11
60.8715
 21
24.5224
  0
LINE
  8
0
 10
60.8715
 20
24.5224
 11
60.9598
 21
24.3751
  0
LINE
  8
0
 10
60.9598
 20
24.3751
 11
61.0333
 21
24.2199
  0
LINE
  8
0
 10
61.0333
 20
24.2199
 11
61.0911
 21
24.0582
  0
LINE
  8
0
 10
61.0911
 20
24.0582
 11
61.1329
 21
23.8916
  0
LINE
  8
0
 10
61.1329
 20
23.8916
 11
61.158
 21
23.7217
  0
LINE
  8
0
 10
61.158
 20
23.7217
 11
61.1665
 21
23.5502
  0
LINE
  8
0
 10
61.1665
 20
23.5502
 11
61.158
 21
23.3787
  0
LINE
  8
0
 10
61.158
 20
23.3787
 11
61.1329
 21
23.2088
  0
LINE
  8
0
 10
61.1329
 20
23.2088
 11
61.0911
 21
23.0422
  0
LINE
  8
0
 10
61.0911
 20
23.0422
 11
61.0333
 21
22.8805
  0
LINE
  8
0
 10
61.0333
 20
22.8805
 11
60.9598
 21
22.7252
  0
LINE
  8
0
 10
60.9598
 20
22.7252
 11
60.8715
 21
22.5779
  0
LINE
  8
0
 10
60.8715
 20
22.5779
 11
60.7692
 21
22.44
  0
LINE
  8
0
 10
60.7692
 20
22.44
 11
60.6539
 21
22.3128
  0
LINE
  8
0
 10
60.6539
 20
22.3128
 11
60.5267
 21
22.1974
  0
LINE
  8
0
 10
60.5267
 20
22.1974
 11
60.3887
 21
22.0951
  0
LINE
  8
0
 10
60.3887
 20
22.0951
 11
60.2414
 21
22.0068
  0
LINE
  8
0
 10
60.2414
 20
22.0068
 11
60.0862
 21
21.9334
  0
LINE
  8
0
 10
60.0862
 20
21.9334
 11
59.9245
 21
21.8755
  0
LINE
  8
0
 10
59.9245
 20
21.8755
 11
59.7579
 21
21.8338
  0
LINE
  8
0
 10
59.7579
 20
21.8338
 11
59.588
 21
21.8086
  0
LINE
  8
0
 10
59.588
 20
21.8086
 11
59.4165
 21
21.8002
  0
LINE
  8
0
 10
59.4165
 20
21.8002
 11
49.4165
 21
21.8002
  0
LINE
  8
0
 10
54.9667
 20
-19
 11
54.9667
 21
19
  0
LINE
  8
0
 10
54.9667
 20
19
 11
82.9667
 21
19
  0
LINE
  8
0
 10
82.9667
 20
19
 11
84.829
 21
18.9085
  0
LINE
  8
0
 10
84.829
 20
18.9085
 11
86.6734
 21
18.6349
  0
LINE
  8
0
 10
86.6734
 20
18.6349
 11
88.4821
 21
18.1819
  0
LINE
  8
0
 10
88.4821
 20
18.1819
 11
90.2377
 21
17.5537
  0
LINE
  8
0
 10
90.2377
 20
17.5537
 11
91.9232
 21
16.7565
  0
LINE
  8
0
 10
91.9232
 20
16.7565
 11
93.5225
 21
15.7979
  0
LINE
  8
0
 10
93.5225
 20
15.7979
 11
95.0201
 21
14.6872
  0
LINE
  8
0
 10
95.0201
 20
14.6872
 11
96.4017
 21
13.435
  0
LINE
  8
0
 10
96.4017
 20
13.435
 11
97.6539
 21
12.0535
  0
LINE
  8
0
 10
97.6539
 20
12.0535
 11
98.7646
 21
10.5558
  0
LINE
  8
0
 10
98.7646
 20
10.5558
 11
99.7232
 21
8.95654
  0
LINE
  8
0
 10
99.7232
 20
8.95654
 11
100.52
 21
7.27098
  0
LINE
  8
0
 10
100.52
 20
7.27098
 11
101.149
 21
5.51541
  0
LINE
  8
0
 10
101.149
 20
5.51541
 11
101.602
 21
3.70672
  0
LINE
  8
0
 10
101.602
 20
3.70672
 11
101.875
 21
1.86232
  0
LINE
  8
0
 10
101.875
 20
1.86232
 11
101.967
 21
0
  0
LINE
  8
0
 10
101.967
 20
0
 11
101.875
 21
-1.86233
  0
LINE
  8
0
 10
101.875
 20
-1.86233
 11
101.602
 21
-3.70672
  0
LINE
  8
0
 10
101.602
 20
-3.70672
 11
101.149
 21
-5.51541
  0
LINE
  8
0
 10
101.149
 20
-5.51541
 11
100.52
 21
-7.27099
  0
LINE
  8
0
 10
100.52
 20
-7.27099
 11
99.7232
 21
-8.95654
  0
LINE
  8
0
 10
99.7232
 20
-8.95654
 11
98.7646
 21
-10.5558
  0
LINE
  8
0
 10
98.7646
 20
-10.5558
 11
97.6539
 21
-12.0535
  0
LINE
  8
0
 10
97.6539
 20
-12.0535
 11
96.4017
 21
-13.435
  0
LINE
  8
0
 10
96.4017
 20
-13.435
 11
95.0201
 21
-14.6872
  0
LINE
  8
0
 10
95.0201
 20
-14.6872
 11
93.5225
 21
-15.7979
  0
LINE
  8
0
 10
93.5225
 20
-15.7979
 11
91.9232
 21
-16.7565
  0
LINE
  8
0
 10
91.9232
 20
-16.7565
 11
90.2377
 21
-17.5537
  0
LINE
  8
0
 10
90.2377
 20
-17.5537
 11
88.4821
 21
-18.1819
  0
LINE
  8
0
 10
88.4821
 20
-18.1819
 11
86.6734
 21
-18.6349
  0
LINE
  8
0
 10
86.6734
 20
-18.6349
 11
84.829
 21
-18.9085
  0
LINE
  8
0
 10
84.829
 20
-18.9085
 11
82.9667
 21
-19
  0
LINE
  8
0
 10
82.9667
 20
-19
 11
54.9667
 21
-19
  0
LINE
  8
0
 10
93.4125
 20
-150
 11
93.4201
 21
-149.844
  0
LINE
  8
0
 10
93.4201
 20
-149.844
 11
93.443
 21
-149.69
  0
LINE
  8
0
 10
93.443
 20
-149.69
 11
93.4809
 21
-149.539
  0
LINE
  8
0
 10
93.4809
 20
-149.539
 11
93.5333
 21
-149.392
  0
LINE
  8
0
 10
93.5333
 20
-149.392
 11
93.5999
 21
-149.252
  0
LINE
  8
0
 10
93.5999
 20
-149.252
 11
93.68
 21
-149.118
  0
LINE
  8
0
 10
93.68
 20
-149.118
 11
93.7728
 21
-148.993
  0
LINE
  8
0
 10
93.7728
 20
-148.993
 11
93.8775
 21
-148.877
  0
LINE
  8
0
 10
93.8775
 20
-148.877
 11
93.9929
 21
-148.773
  0
LINE
  8
0
 10
93.9929
 20
-148.773
 11
94.118
 21
-148.68
  0
LINE
  8
0
 10
94.118
 20
-148.68
 11
94.2517
 21
-148.6
  0
LINE
  8
0
 10
94.2517
 20
-148.6
 11
94.3925
 21
-148.533
  0
LINE
  8
0
 10
94.3925
 20
-148.533
 11
94.5392
 21
-148.481
  0
LINE
  8
0
 10
94.5392
 20
-148.481
 11
94.6903
 21
-148.443
  0
LINE
  8
0
 10
94.6903
 20
-148.443
 11
94.8444
 21
-148.42
  0
LINE
  8
0
 10
94.8444
 20
-148.42
 11
95
 21
-148.413
  0
LINE
  8
0
 10
95
 20
-148.413
 11
95.1556
 21
-148.42
  0
LINE
  8
0
 10
95.1556
 20
-148.42
 11
95.3097
 21
-148.443
  0
LINE
  8
0
 10
95.3097
 20
-148.443
 11
95.4608
 21
-148.481
  0
LINE
  8
0
 10
95.4608
 20
-148.481
 11
95.6075
 21
-148.533
  0
LINE
  8
0
 10
95.6075
 20
-148.533
 11
95.7483
 21
-148.6
  0
LINE
  8
0
 10
95.7483
 20
-148.6
 11
95.882
 21
-148.68
  0
LINE
  8
0
 10
95.882
 20
-148.68
 11
96.0071
 21
-148.773
  0
LINE
  8
0
 10
96.0071
 20
-148.773
 11
96.1225
 21
-148.877
  0
LINE
  8
0
 10
96.1225
 20
-148.877
 11
96.2272
 21
-148.993
  0
LINE
  8
0
 10
96.2272
 20
-148.993
 11
96.32
 21
-149.118
  0
LINE
  8
0
 10
96.32
 20
-149.118
 11
96.4
 21
-149.252
  0
LINE
  8
0
 10
96.4
 20
-149.252
 11
96.4667
 21
-149.392
  0
LINE
  8
0
 10
96.4667
 20
-149.392
 11
96.5191
 21
-149.539
  0
LINE
  8
0
 10
96.5191
 20
-149.539
 11
96.557
 21
-149.69
  0
LINE
  8
0
 10
96.557
 20
-149.69
 11
96.5799
 21
-149.844
  0
LINE
  8
0
 10
96.5799
 20
-149.844
 11
96.5875
 21
-150
  0
LINE
  8
0
 10
96.5875
 20
-150
 11
96.5799
 21
-150.156
  0
LINE
  8
0
 10
96.5799
 20
-150.156
 11
96.557
 21
-150.31
  0
LINE
  8
0
 10
96.557
 20
-150.31
 11
96.5191
 21
-150.461
  0
LINE
  8
0
 10
96.5191
 20
-150.461
 11
96.4667
 21
-150.608
  0
LINE
  8
0
 10
96.4667
 20
-150.608
 11
96.4
 21
-150.748
  0
LINE
  8
0
 10
96.4
 20
-150.748
 11
96.32
 21
-150.882
  0
LINE
  8
0
 10
96.32
 20
-150.882
 11
96.2272
 21
-151.007
  0
LINE
  8
0
 10
96.2272
 20
-151.007
 11
96.1225
 21
-151.123
  0
LINE
  8
0
 10
96.1225
 20
-151.123
 11
96.0071
 21
-151.227
  0
LINE
  8
0
 10
96.0071
 20
-151.227
 11
95.882
 21
-151.32
  0
LINE
  8
0
 10
95.882
 20
-151.32
 11
95.7483
 21
-151.4
  0
LINE
  8
0
 10
95.7483
 20
-151.4
 11
95.6075
 21
-151.467
  0
LINE
  8
0
 10
95.6075
 20
-151.467
 11
95.4608
 21
-151.519
  0
LINE
  8
0
 10
95.4608
 20
-151.519
 11
95.3097
 21
-151.557
  0
LINE
  8
0
 10
95.3097
 20
-151.557
 11
95.1556
 21
-151.58
  0
LINE
  8
0
 10
95.1556
 20
-151.58
 11
95
 21
-151.588
  0
LINE
  8
0
 10
95
 20
-151.588
 11
94.8444
 21
-151.58
  0
LINE
  8
0
 10
94.8444
 20
-151.58
 11
94.6903
 21
-151.557
  0
LINE
  8
0
 10
94.6903
 20
-151.557
 11
94.5392
 21
-151.519
  0
LINE
  8
0
 10
94.5392
 20
-151.519
 11
94.3925
 21
-151.467
  0
LINE
  8
0
 10
94.3925
 20
-151.467
 11
94.2517
 21
-151.4
  0
LINE
  8
0
 10
94.2517
 20
-151.4
 11
94.118
 21
-151.32
  0
LINE
  8
0
 10
94.118
 20
-151.32
 11
93.9929
 21
-151.227
  0
LINE
  8
0
 10
93.9929
 20
-151.227
 11
93.8775
 21
-151.123
  0
LINE
  8
0
 10
93.8775
 20
-151.123
 11
93.7728
 21
-151.007
  0
LINE
  8
0
 10
93.7728
 20
-151.007
 11
93.68
 21
-150.882
  0
LINE
  8
0
 10
93.68
 20
-150.882
 11
93.5999
 21
-150.748
  0
LINE
  8
0
 10
93.5999
 20
-150.748
 11
93.5333
 21
-150.608
  0
LINE
  8
0
 10
93.5333
 20
-150.608
 11
93.4809
 21
-150.461
  0
LINE
  8
0
 10
93.4809
 20
-150.461
 11
93.443
 21
-150.31
  0
LINE
  8
0
 10
93.443
 20
-150.31
 11
93.4201
 21
-150.156
  0
LINE
  8
0
 10
93.4201
 20
-150.156
 11
93.4125
 21
-150
  0
LINE
  8
0
 10
96.5169
 20
-25.3002
 11
96.5169
 21
-21.8002
  0
LINE
  8
0
 10
96.5169
 20
-21.8002
 11
106.517
 21
-21.8002
  0
LINE
  8
0
 10
106.517
 20
-21.8002
 11
106.688
 21
-21.8086
  0
LINE
  8
0
 10
106.688
 20
-21.8086
 11
106.858
 21
-21.8338
  0
LINE
  8
0
 10
106.858
 20
-21.8338
 11
107.025
 21
-21.8755
  0
LINE
  8
0
 10
107.025
 20
-21.8755
 11
107.187
 21
-21.9334
  0
LINE
  8
0
 10
107.187
 20
-21.9334
 11
107.342
 21
-22.0068
  0
LINE
  8
0
 10
107.342
 20
-22.0068
 11
107.489
 21
-22.0951
  0
LINE
  8
0
 10
107.489
 20
-22.0951
 11
107.627
 21
-22.1974
  0
LINE
  8
0
 10
107.627
 20
-22.1974
 11
107.754
 21
-22.3128
  0
LINE
  8
0
 10
107.754
 20
-22.3128
 11
107.87
 21
-22.44
  0
LINE
  8
0
 10
107.87
 20
-22.44
 11
107.972
 21
-22.5779
  0
LINE
  8
0
 10
107.972
 20
-22.5779
 11
108.06
 21
-22.7252
  0
LINE
  8
0
 10
108.06
 20
-22.7252
 11
108.134
 21
-22.8805
  0
LINE
  8
0
 10
108.134
 20
-22.8805
 11
108.192
 21
-23.0422
  0
LINE
  8
0
 10
108.192
 20
-23.0422
 11
108.233
 21
-23.2088
  0
LINE
  8
0
 10
108.233
 20
-23.2088
 11
108.258
 21
-23.3787
  0
LINE
  8
0
 10
108.258
 20
-23.3787
 11
108.267
 21
-23.5502
  0
LINE
  8
0
 10
108.267
 20
-23.5502
 11
108.258
 21
-23.7217
  0
LINE
  8
0
 10
108.258
 20
-23.7217
 11
108.233
 21
-23.8916
  0
LINE
  8
0
 10
108.233
 20
-23.8916
 11
108.192
 21
-24.0582
  0
LINE
  8
0
 10
108.192
 20
-24.0582
 11
108.134
 21
-24.2199
  0
LINE
  8
0
 10
108.134
 20
-24.2199
 11
108.06
 21
-24.3751
  0
LINE
  8
0
 10
108.06
 20
-24.3751
 11
107.972
 21
-24.5224
  0
LINE
  8
0
 10
107.972
 20
-24.5224
 11
107.87
 21
-24.6604
  0
LINE
  8
0
 10
107.87
 20
-24.6604
 11
107.754
 21
-24.7876
  0
LINE
  8
0
 10
107.754
 20
-24.7876
 11
107.627
 21
-24.903
  0
LINE
  8
0
 10
107.627
 20
-24.903
 11
107.489
 21
-25.0053
  0
LINE
  8
0
 10
107.489
 20
-25.0053
 11
107.342
 21
-25.0936
  0
LINE
  8
0
 10
107.342
 20
-25.0936
 11
107.187
 21
-25.167
  0
LINE
  8
0
 10
107.187
 20
-25.167
 11
107.025
 21
-25.2248
  0
LINE
  8
0
 10
107.025
 20
-25.2248
 11
106.858
 21
-25.2666
  0
LINE
  8
0
 10
106.858
 20
-25.2666
 11
106.688
 21
-25.2918
  0
LINE
  8
0
 10
106.688
 20
-25.2918
 11
106.517
 21
-25.3002
  0
LINE
  8
0
 10
106.517
 20
-25.3002
 11
96.5169
 21
-25.3002
  0
LINE
  8
0
 10
96.5169
 20
21.8002
 11
96.5169
 21
25.3002
  0
LINE
  8
0
 10
96.5169
 20
25.3002
 11
106.517
 21
25.3002
  0
LINE
  8
0
 10
106.517
 20
25.3002
 11
106.688
 21
25.2918
  0
LINE
  8
0
 10
106.688
 20
25.2918
 11
106.858
 21
25.2666
  0
LINE
  8
0
 10
106.858
 20
25.2666
 11
107.025
 21
25.2248
  0
LINE
  8
0
 10
107.025
 20
25.2248
 11
107.187
 21
25.167
  0
LINE
  8
0
 10
107.187
 20
25.167
 11
107.342
 21
25.0936
  0
LINE
  8
0
 10
107.342
 20
25.0936
 11
107.489
 21
25.0053
  0
LINE
  8
0
 10
107.489
 20
25.0053
 11
107.627
 21
24.903
  0
LINE
  8
0
 10
107.627
 20
24.903
 11
107.754
 21
24.7876
  0
LINE
  8
0
 10
107.754
 20
24.7876
 11
107.87
 21
24.6604
  0
LINE
  8
0
 10
107.87
 20
24.6604
 11
107.972
 21
24.5224
  0
LINE
  8
0
 10
107.972
 20
24.5224
 11
108.06
 21
24.3751
  0
LINE
  8
0
 10
108.06
 20
24.3751
 11
108.134
 21
24.2199
  0
LINE
  8
0
 10
108.134
 20
24.2199
 11
108.192
 21
24.0582
  0
LINE
  8
0
 10
108.192
 20
24.0582
 11
108.233
 21
23.8916
  0
LINE
  8
0
 10
108.233
 20
23.8916
 11
108.258
 21
23.7217
  0
LINE
  8
0
 10
108.258
 20
23.7217
 11
108.267
 21
23.5502
  0
LINE
  8
0
 10
108.267
 20
23.5502
 11
108.258
 21
23.3787
  0
LINE
  8
0
 10
108.258
 20
23.3787
 11
108.233
 21
23.2088
  0
LINE
  8
0
 10
108.233
 20
23.2088
 11
108.192
 21
23.0422
  0
LINE
  8
0
 10
108.192
 20
23.0422
 11
108.134
 21
22.8805
  0
LINE
  8
0
 10
108.134
 20
22.8805
 11
108.06
 21
22.7252
  0
LINE
  8
0
 10
108.06
 20
22.7252
 11
107.972
 21
22.5779
  0
LINE
  8
0
 10
107.972
 20
22.5779
 11
107.87
 21
22.44
  0
LINE
  8
0
 10
107.87
 20
22.44
 11
107.754
 21
22.3128
  0
LINE
  8
0
 10
107.754
 20
22.3128
 11
107.627
 21
22.1974
  0
LINE
  8
0
 10
107.627
 20
22.1974
 11
107.489
 21
22.0951
  0
LINE
  8
0
 10
107.489
 20
22.0951
 11
107.342
 21
22.0068
  0
LINE
  8
0
 10
107.342
 20
22.0068
 11
107.187
 21
21.9334
  0
LINE
  8
0
 10
107.187
 20
21.9334
 11
107.025
 21
21.8755
  0
LINE
  8
0
 10
107.025
 20
21.8755
 11
106.858
 21
21.8338
  0
LINE
  8
0
 10
106.858
 20
21.8338
 11
106.688
 21
21.8086
  0
LINE
  8
0
 10
106.688
 20
21.8086
 11
106.517
 21
21.8002
  0
LINE
  8
0
 10
106.517
 20
21.8002
 11
96.5169
 21
21.8002
  0
ENDSEC
  0
SECTION
  2
OBJECTS
  0
DICTIONARY
  0
ENDSEC
  0
EOF
